<?xml version="1.0" encoding="UTF-8" standalone="no"?>
<!DOCTYPE svg PUBLIC "-//W3C//DTD SVG 1.1//EN"
 "http://www.w3.org/Graphics/SVG/1.1/DTD/svg11.dtd">
<!-- Generated by graphviz version 2.38.0 (20140413.2041)
 -->
<!-- Title: Robowars.Weapons.WeaponEnhancement.GetDamage Pages: 1 -->
<svg width="578pt" height="39pt"
 viewBox="0.00 0.00 578.00 39.00" xmlns="http://www.w3.org/2000/svg" xmlns:xlink="http://www.w3.org/1999/xlink">
<g id="graph0" class="graph" transform="scale(1 1) rotate(0) translate(4 35)">
<title>Robowars.Weapons.WeaponEnhancement.GetDamage</title>
<polygon fill="white" stroke="none" points="-4,4 -4,-35 574,-35 574,4 -4,4"/>
<!-- Node1 -->
<g id="node1" class="node"><title>Node1</title>
<g id="a_node1"><a xlink:title=" ">
<polygon fill="#bfbfbf" stroke="black" points="0,-0.5 0,-30.5 206,-30.5 206,-0.5 0,-0.5"/>
<text text-anchor="start" x="8" y="-18.5" font-family="Helvetica,sans-Serif" font-size="10.00">Robowars.Weapons.WeaponEnhancement.</text>
<text text-anchor="middle" x="103" y="-7.5" font-family="Helvetica,sans-Serif" font-size="10.00">GetDamage</text>
</a>
</g>
</g>
<!-- Node2 -->
<g id="node2" class="node"><title>Node2</title>
<g id="a_node2"><a xlink:href="class_robowars_1_1_weapons_1_1_weapon.html#ae031f8bce8e49d0bd8279c1ca81a76b8" target="_top" xlink:title=" ">
<polygon fill="white" stroke="black" points="242,-0.5 242,-30.5 388,-30.5 388,-0.5 242,-0.5"/>
<text text-anchor="start" x="250" y="-18.5" font-family="Helvetica,sans-Serif" font-size="10.00">Robowars.Weapons.Weapon.</text>
<text text-anchor="middle" x="315" y="-7.5" font-family="Helvetica,sans-Serif" font-size="10.00">GetDamage</text>
</a>
</g>
</g>
<!-- Node1&#45;&gt;Node2 -->
<g id="edge1" class="edge"><title>Node1&#45;&gt;Node2</title>
<path fill="none" stroke="midnightblue" d="M206.232,-15.5C214.76,-15.5 223.312,-15.5 231.664,-15.5"/>
<polygon fill="midnightblue" stroke="midnightblue" points="231.736,-19.0001 241.736,-15.5 231.736,-12.0001 231.736,-19.0001"/>
</g>
<!-- Node3 -->
<g id="node3" class="node"><title>Node3</title>
<g id="a_node3"><a xlink:href="class_robowars_1_1_weapons_1_1_weapon_1_1_damage_rating.html#a6b7d9070e7ca6048a23f1a175def136b" target="_top" xlink:title="Gets a new random damage between Min and Max.">
<polygon fill="white" stroke="black" points="424,-0.5 424,-30.5 570,-30.5 570,-0.5 424,-0.5"/>
<text text-anchor="start" x="432" y="-18.5" font-family="Helvetica,sans-Serif" font-size="10.00">Robowars.Weapons.Weapon.</text>
<text text-anchor="middle" x="497" y="-7.5" font-family="Helvetica,sans-Serif" font-size="10.00">DamageRating.Get</text>
</a>
</g>
</g>
<!-- Node2&#45;&gt;Node3 -->
<g id="edge2" class="edge"><title>Node2&#45;&gt;Node3</title>
<path fill="none" stroke="midnightblue" d="M388.176,-15.5C396.52,-15.5 405.077,-15.5 413.544,-15.5"/>
<polygon fill="midnightblue" stroke="midnightblue" points="413.808,-19.0001 423.808,-15.5 413.808,-12.0001 413.808,-19.0001"/>
</g>
</g>
</svg>
