<?xml version="1.0" encoding="UTF-8" standalone="no"?>
<!DOCTYPE svg PUBLIC "-//W3C//DTD SVG 1.1//EN"
 "http://www.w3.org/Graphics/SVG/1.1/DTD/svg11.dtd">
<!-- Generated by graphviz version 2.38.0 (20140413.2041)
 -->
<!-- Title: Robowars.Weapon Pages: 1 -->
<svg width="492pt" height="309pt"
 viewBox="0.00 0.00 492.00 309.00" xmlns="http://www.w3.org/2000/svg" xmlns:xlink="http://www.w3.org/1999/xlink">
<g id="graph0" class="graph" transform="scale(1 1) rotate(0) translate(4 305)">
<title>Robowars.Weapon</title>
<polygon fill="white" stroke="none" points="-4,4 -4,-305 488,-305 488,4 -4,4"/>
<!-- Node1 -->
<g id="node1" class="node"><title>Node1</title>
<g id="a_node1"><a xlink:title=" ">
<polygon fill="#bfbfbf" stroke="black" points="111.5,-221.5 111.5,-300.5 209.5,-300.5 209.5,-221.5 111.5,-221.5"/>
<text text-anchor="middle" x="160.5" y="-288.5" font-family="Helvetica,sans-Serif" font-size="10.00">Robowars.Weapon</text>
<polyline fill="none" stroke="black" points="111.5,-281.5 209.5,-281.5 "/>
<text text-anchor="start" x="119.5" y="-269.5" font-family="Helvetica,sans-Serif" font-size="10.00">+ PowerDrain</text>
<text text-anchor="start" x="119.5" y="-258.5" font-family="Helvetica,sans-Serif" font-size="10.00">+ Name</text>
<text text-anchor="start" x="119.5" y="-247.5" font-family="Helvetica,sans-Serif" font-size="10.00">+ Damage</text>
<polyline fill="none" stroke="black" points="111.5,-240.5 209.5,-240.5 "/>
<text text-anchor="start" x="119.5" y="-228.5" font-family="Helvetica,sans-Serif" font-size="10.00">+ GetDamage()</text>
</a>
</g>
</g>
<!-- Node2 -->
<g id="node2" class="node"><title>Node2</title>
<g id="a_node2"><a xlink:href="class_robowars_1_1_hammer.html" target="_top" xlink:title=" ">
<polygon fill="white" stroke="black" points="0,-127.5 0,-184.5 99,-184.5 99,-127.5 0,-127.5"/>
<text text-anchor="middle" x="49.5" y="-172.5" font-family="Helvetica,sans-Serif" font-size="10.00">Robowars.Hammer</text>
<polyline fill="none" stroke="black" points="0,-165.5 99,-165.5 "/>
<text text-anchor="start" x="8" y="-153.5" font-family="Helvetica,sans-Serif" font-size="10.00">+ PowerDrain</text>
<polyline fill="none" stroke="black" points="0,-146.5 99,-146.5 "/>
<text text-anchor="start" x="8" y="-134.5" font-family="Helvetica,sans-Serif" font-size="10.00">+ Hammer()</text>
</a>
</g>
</g>
<!-- Node1&#45;&gt;Node2 -->
<g id="edge1" class="edge"><title>Node1&#45;&gt;Node2</title>
<path fill="none" stroke="midnightblue" d="M111.351,-214.393C100.408,-204.239 89.1322,-193.776 79.2539,-184.61"/>
<polygon fill="none" stroke="midnightblue" points="109.141,-217.117 118.852,-221.354 113.902,-211.986 109.141,-217.117"/>
</g>
<!-- Node3 -->
<g id="node3" class="node"><title>Node3</title>
<g id="a_node3"><a xlink:href="class_robowars_1_1_laser.html" target="_top" xlink:title=" ">
<polygon fill="white" stroke="black" points="117.5,-127.5 117.5,-184.5 203.5,-184.5 203.5,-127.5 117.5,-127.5"/>
<text text-anchor="middle" x="160.5" y="-172.5" font-family="Helvetica,sans-Serif" font-size="10.00">Robowars.Laser</text>
<polyline fill="none" stroke="black" points="117.5,-165.5 203.5,-165.5 "/>
<text text-anchor="start" x="125.5" y="-153.5" font-family="Helvetica,sans-Serif" font-size="10.00">+ PowerDrain</text>
<polyline fill="none" stroke="black" points="117.5,-146.5 203.5,-146.5 "/>
<text text-anchor="start" x="125.5" y="-134.5" font-family="Helvetica,sans-Serif" font-size="10.00">+ Laser()</text>
</a>
</g>
</g>
<!-- Node1&#45;&gt;Node3 -->
<g id="edge2" class="edge"><title>Node1&#45;&gt;Node3</title>
<path fill="none" stroke="midnightblue" d="M160.5,-211.163C160.5,-202.04 160.5,-192.806 160.5,-184.61"/>
<polygon fill="none" stroke="midnightblue" points="157,-211.354 160.5,-221.354 164,-211.354 157,-211.354"/>
</g>
<!-- Node4 -->
<g id="node4" class="node"><title>Node4</title>
<g id="a_node4"><a xlink:href="class_robowars_1_1_weapon_enhancement.html" target="_top" xlink:title=" ">
<polygon fill="white" stroke="black" points="221.5,-127.5 221.5,-184.5 379.5,-184.5 379.5,-127.5 221.5,-127.5"/>
<text text-anchor="middle" x="300.5" y="-172.5" font-family="Helvetica,sans-Serif" font-size="10.00">Robowars.WeaponEnhancement</text>
<polyline fill="none" stroke="black" points="221.5,-165.5 379.5,-165.5 "/>
<text text-anchor="start" x="229.5" y="-153.5" font-family="Helvetica,sans-Serif" font-size="10.00">+ EnhancedWeapon</text>
<polyline fill="none" stroke="black" points="221.5,-146.5 379.5,-146.5 "/>
<text text-anchor="start" x="229.5" y="-134.5" font-family="Helvetica,sans-Serif" font-size="10.00">+ GetDamage()</text>
</a>
</g>
</g>
<!-- Node1&#45;&gt;Node4 -->
<g id="edge3" class="edge"><title>Node1&#45;&gt;Node4</title>
<path fill="none" stroke="midnightblue" d="M218.17,-217.571C233.312,-206.431 249.249,-194.706 263.024,-184.571"/>
<polygon fill="none" stroke="midnightblue" points="215.84,-214.941 209.859,-223.686 219.988,-220.579 215.84,-214.941"/>
</g>
<!-- Node5 -->
<g id="node5" class="node"><title>Node5</title>
<g id="a_node5"><a xlink:href="class_robowars_1_1_fixed_damage_bonus_weapon.html" target="_top" xlink:title=" ">
<polygon fill="white" stroke="black" points="130,-0.5 130,-90.5 285,-90.5 285,-0.5 130,-0.5"/>
<text text-anchor="start" x="138" y="-78.5" font-family="Helvetica,sans-Serif" font-size="10.00">Robowars.FixedDamageBonus</text>
<text text-anchor="middle" x="207.5" y="-67.5" font-family="Helvetica,sans-Serif" font-size="10.00">Weapon</text>
<polyline fill="none" stroke="black" points="130,-60.5 285,-60.5 "/>
<text text-anchor="start" x="138" y="-48.5" font-family="Helvetica,sans-Serif" font-size="10.00">+ PowerDrain</text>
<text text-anchor="start" x="138" y="-37.5" font-family="Helvetica,sans-Serif" font-size="10.00">+ Bonus</text>
<polyline fill="none" stroke="black" points="130,-30.5 285,-30.5 "/>
<text text-anchor="start" x="138" y="-18.5" font-family="Helvetica,sans-Serif" font-size="10.00">+ FixedDamageBonusWeapon()</text>
<text text-anchor="start" x="138" y="-7.5" font-family="Helvetica,sans-Serif" font-size="10.00">+ GetDamage()</text>
</a>
</g>
</g>
<!-- Node4&#45;&gt;Node5 -->
<g id="edge4" class="edge"><title>Node4&#45;&gt;Node5</title>
<path fill="none" stroke="midnightblue" d="M270.044,-119.468C262.128,-110.232 253.504,-100.171 245.261,-90.5541"/>
<polygon fill="none" stroke="midnightblue" points="267.626,-122.025 276.792,-127.34 272.941,-117.47 267.626,-122.025"/>
</g>
<!-- Node6 -->
<g id="node6" class="node"><title>Node6</title>
<g id="a_node6"><a xlink:href="class_robowars_1_1_percentage_bonus_damage_weapon.html" target="_top" xlink:title=" ">
<polygon fill="white" stroke="black" points="303,-0.5 303,-90.5 484,-90.5 484,-0.5 303,-0.5"/>
<text text-anchor="start" x="311" y="-78.5" font-family="Helvetica,sans-Serif" font-size="10.00">Robowars.PercentageBonus</text>
<text text-anchor="middle" x="393.5" y="-67.5" font-family="Helvetica,sans-Serif" font-size="10.00">DamageWeapon</text>
<polyline fill="none" stroke="black" points="303,-60.5 484,-60.5 "/>
<text text-anchor="start" x="311" y="-48.5" font-family="Helvetica,sans-Serif" font-size="10.00">+ PowerDrain</text>
<text text-anchor="start" x="311" y="-37.5" font-family="Helvetica,sans-Serif" font-size="10.00">+ BonusFactor</text>
<polyline fill="none" stroke="black" points="303,-30.5 484,-30.5 "/>
<text text-anchor="start" x="311" y="-18.5" font-family="Helvetica,sans-Serif" font-size="10.00">+ PercentageBonusDamageWeapon()</text>
<text text-anchor="start" x="311" y="-7.5" font-family="Helvetica,sans-Serif" font-size="10.00">+ GetDamage()</text>
</a>
</g>
</g>
<!-- Node4&#45;&gt;Node6 -->
<g id="edge5" class="edge"><title>Node4&#45;&gt;Node6</title>
<path fill="none" stroke="midnightblue" d="M330.956,-119.468C338.872,-110.232 347.496,-100.171 355.739,-90.5541"/>
<polygon fill="none" stroke="midnightblue" points="328.059,-117.47 324.208,-127.34 333.374,-122.025 328.059,-117.47"/>
</g>
</g>
</svg>
