<?xml version="1.0" encoding="UTF-8" standalone="no"?>
<!DOCTYPE svg PUBLIC "-//W3C//DTD SVG 1.1//EN"
 "http://www.w3.org/Graphics/SVG/1.1/DTD/svg11.dtd">
<!-- Generated by graphviz version 2.38.0 (20140413.2041)
 -->
<!-- Title: Robowars.Contest Pages: 1 -->
<svg width="304pt" height="354pt"
 viewBox="0.00 0.00 303.50 354.00" xmlns="http://www.w3.org/2000/svg" xmlns:xlink="http://www.w3.org/1999/xlink">
<g id="graph0" class="graph" transform="scale(1 1) rotate(0) translate(4 350)">
<title>Robowars.Contest</title>
<polygon fill="white" stroke="none" points="-4,4 -4,-350 299.5,-350 299.5,4 -4,4"/>
<!-- Node1 -->
<g id="node1" class="node"><title>Node1</title>
<g id="a_node1"><a xlink:title="Contains all the information required to organize the Robowars contest">
<polygon fill="#bfbfbf" stroke="black" points="85,-0.5 85,-90.5 181,-90.5 181,-0.5 85,-0.5"/>
<text text-anchor="middle" x="133" y="-78.5" font-family="Helvetica,sans-Serif" font-size="10.00">Robowars.Contest</text>
<polyline fill="none" stroke="black" points="85,-71.5 181,-71.5 "/>
<text text-anchor="start" x="93" y="-59.5" font-family="Helvetica,sans-Serif" font-size="10.00">+ Contestant1</text>
<text text-anchor="start" x="93" y="-48.5" font-family="Helvetica,sans-Serif" font-size="10.00">+ Contestant2</text>
<polyline fill="none" stroke="black" points="85,-41.5 181,-41.5 "/>
<text text-anchor="start" x="93" y="-29.5" font-family="Helvetica,sans-Serif" font-size="10.00">+ ShowStatus()</text>
<text text-anchor="start" x="93" y="-18.5" font-family="Helvetica,sans-Serif" font-size="10.00">+ ShowMenu()</text>
<text text-anchor="start" x="93" y="-7.5" font-family="Helvetica,sans-Serif" font-size="10.00">&#45; Fight()</text>
</a>
</g>
</g>
<!-- Node2 -->
<g id="node2" class="node"><title>Node2</title>
<g id="a_node2"><a xlink:href="class_robowars_1_1_robot_assembler.html" target="_top" xlink:title=" ">
<polygon fill="white" stroke="black" points="0,-149.5 0,-228.5 134,-228.5 134,-149.5 0,-149.5"/>
<text text-anchor="middle" x="67" y="-216.5" font-family="Helvetica,sans-Serif" font-size="10.00">Robowars.RobotAssembler</text>
<polyline fill="none" stroke="black" points="0,-209.5 134,-209.5 "/>
<text text-anchor="middle" x="67" y="-197.5" font-family="Helvetica,sans-Serif" font-size="10.00"> </text>
<polyline fill="none" stroke="black" points="0,-190.5 134,-190.5 "/>
<text text-anchor="start" x="8" y="-178.5" font-family="Helvetica,sans-Serif" font-size="10.00">+ AssembleRobot()</text>
<text text-anchor="start" x="8" y="-167.5" font-family="Helvetica,sans-Serif" font-size="10.00"># Name()</text>
<text text-anchor="start" x="8" y="-156.5" font-family="Helvetica,sans-Serif" font-size="10.00"># CreateWeapons()</text>
</a>
</g>
</g>
<!-- Node2&#45;&gt;Node1 -->
<g id="edge1" class="edge"><title>Node2&#45;&gt;Node1</title>
<path fill="none" stroke="#404040" d="M77.546,-149.473C81.6928,-136.353 86.9264,-121.78 93,-109 94.213,-106.447 95.5119,-103.873 96.873,-101.3"/>
<polygon fill="none" stroke="#404040" points="96.8975,-101.256 96.3374,-94.0671 102.758,-90.785 103.318,-97.9743 96.8975,-101.256"/>
<text text-anchor="middle" x="135" y="-123" font-family="Helvetica,sans-Serif" font-size="10.00"> +MiningFacility</text>
<text text-anchor="middle" x="135" y="-112" font-family="Helvetica,sans-Serif" font-size="10.00">+TerminatorFacility</text>
</g>
<!-- Node3 -->
<g id="node3" class="node"><title>Node3</title>
<g id="a_node3"><a xlink:href="class_robowars_1_1_mining_robot_maker.html" target="_top" xlink:title="Creates friendly mining robots">
<polygon fill="white" stroke="black" points="152.5,-155 152.5,-223 295.5,-223 295.5,-155 152.5,-155"/>
<text text-anchor="middle" x="224" y="-211" font-family="Helvetica,sans-Serif" font-size="10.00">Robowars.MiningRobotMaker</text>
<polyline fill="none" stroke="black" points="152.5,-204 295.5,-204 "/>
<text text-anchor="middle" x="224" y="-192" font-family="Helvetica,sans-Serif" font-size="10.00"> </text>
<polyline fill="none" stroke="black" points="152.5,-185 295.5,-185 "/>
<text text-anchor="start" x="160.5" y="-173" font-family="Helvetica,sans-Serif" font-size="10.00"># CreateWeapons()</text>
<text text-anchor="start" x="160.5" y="-162" font-family="Helvetica,sans-Serif" font-size="10.00"># Name()</text>
</a>
</g>
</g>
<!-- Node3&#45;&gt;Node1 -->
<g id="edge2" class="edge"><title>Node3&#45;&gt;Node1</title>
<path fill="none" stroke="#404040" d="M205.119,-154.984C196.75,-140.692 186.634,-123.865 177,-109 175.234,-106.275 173.404,-103.5 171.537,-100.71"/>
<polygon fill="none" stroke="#404040" points="171.413,-100.527 164.734,-97.8094 164.673,-90.5985 171.353,-93.316 171.413,-100.527"/>
<text text-anchor="middle" x="236.5" y="-117.5" font-family="Helvetica,sans-Serif" font-size="10.00"> &#45;_miningRobotMaker</text>
</g>
<!-- Node4 -->
<g id="node4" class="node"><title>Node4</title>
<g id="a_node4"><a xlink:href="class_robowars_1_1_robot_assembler.html" target="_top" xlink:title=" ">
<polygon fill="white" stroke="black" points="173.5,-266.5 173.5,-345.5 274.5,-345.5 274.5,-266.5 173.5,-266.5"/>
<text text-anchor="middle" x="224" y="-333.5" font-family="Helvetica,sans-Serif" font-size="10.00">RobotAssembler</text>
<polyline fill="none" stroke="black" points="173.5,-326.5 274.5,-326.5 "/>
<text text-anchor="middle" x="224" y="-314.5" font-family="Helvetica,sans-Serif" font-size="10.00"> </text>
<polyline fill="none" stroke="black" points="173.5,-307.5 274.5,-307.5 "/>
<text text-anchor="start" x="181.5" y="-295.5" font-family="Helvetica,sans-Serif" font-size="10.00">+ AssembleRobot()</text>
<text text-anchor="start" x="181.5" y="-284.5" font-family="Helvetica,sans-Serif" font-size="10.00"># Name()</text>
<text text-anchor="start" x="181.5" y="-273.5" font-family="Helvetica,sans-Serif" font-size="10.00"># CreateWeapons()</text>
</a>
</g>
</g>
<!-- Node4&#45;&gt;Node3 -->
<g id="edge3" class="edge"><title>Node4&#45;&gt;Node3</title>
<path fill="none" stroke="midnightblue" d="M224,-256.342C224,-245.213 224,-233.63 224,-223.317"/>
<polygon fill="none" stroke="midnightblue" points="220.5,-256.387 224,-266.387 227.5,-256.387 220.5,-256.387"/>
</g>
</g>
</svg>
