<?xml version="1.0" encoding="UTF-8" standalone="no"?>
<!DOCTYPE svg PUBLIC "-//W3C//DTD SVG 1.1//EN"
 "http://www.w3.org/Graphics/SVG/1.1/DTD/svg11.dtd">
<!-- Generated by graphviz version 2.38.0 (20140413.2041)
 -->
<!-- Title: Robowars.Laser Pages: 1 -->
<svg width="94pt" height="182pt"
 viewBox="0.00 0.00 94.00 182.00" xmlns="http://www.w3.org/2000/svg" xmlns:xlink="http://www.w3.org/1999/xlink">
<g id="graph0" class="graph" transform="scale(1 1) rotate(0) translate(4 178)">
<title>Robowars.Laser</title>
<polygon fill="white" stroke="none" points="-4,4 -4,-178 90,-178 90,4 -4,4"/>
<!-- Node1 -->
<g id="node1" class="node"><title>Node1</title>
<g id="a_node1"><a xlink:title=" ">
<polygon fill="#bfbfbf" stroke="black" points="0,-0.5 0,-57.5 86,-57.5 86,-0.5 0,-0.5"/>
<text text-anchor="middle" x="43" y="-45.5" font-family="Helvetica,sans-Serif" font-size="10.00">Robowars.Laser</text>
<polyline fill="none" stroke="black" points="0,-38.5 86,-38.5 "/>
<text text-anchor="start" x="8" y="-26.5" font-family="Helvetica,sans-Serif" font-size="10.00">+ PowerDrain</text>
<polyline fill="none" stroke="black" points="0,-19.5 86,-19.5 "/>
<text text-anchor="start" x="8" y="-7.5" font-family="Helvetica,sans-Serif" font-size="10.00">+ Laser()</text>
</a>
</g>
</g>
<!-- Node2 -->
<g id="node2" class="node"><title>Node2</title>
<g id="a_node2"><a xlink:href="class_robowars_1_1_weapon.html" target="_top" xlink:title=" ">
<polygon fill="white" stroke="black" points="1.5,-94.5 1.5,-173.5 84.5,-173.5 84.5,-94.5 1.5,-94.5"/>
<text text-anchor="middle" x="43" y="-161.5" font-family="Helvetica,sans-Serif" font-size="10.00">Weapon</text>
<polyline fill="none" stroke="black" points="1.5,-154.5 84.5,-154.5 "/>
<text text-anchor="start" x="9.5" y="-142.5" font-family="Helvetica,sans-Serif" font-size="10.00">+ PowerDrain</text>
<text text-anchor="start" x="9.5" y="-131.5" font-family="Helvetica,sans-Serif" font-size="10.00">+ Name</text>
<text text-anchor="start" x="9.5" y="-120.5" font-family="Helvetica,sans-Serif" font-size="10.00">+ Damage</text>
<polyline fill="none" stroke="black" points="1.5,-113.5 84.5,-113.5 "/>
<text text-anchor="start" x="9.5" y="-101.5" font-family="Helvetica,sans-Serif" font-size="10.00">+ GetDamage()</text>
</a>
</g>
</g>
<!-- Node2&#45;&gt;Node1 -->
<g id="edge1" class="edge"><title>Node2&#45;&gt;Node1</title>
<path fill="none" stroke="midnightblue" d="M43,-84.1628C43,-75.0404 43,-65.8063 43,-57.6095"/>
<polygon fill="none" stroke="midnightblue" points="39.5001,-84.3535 43,-94.3536 46.5001,-84.3536 39.5001,-84.3535"/>
</g>
</g>
</svg>
