<?xml version="1.0" encoding="UTF-8" standalone="no"?>
<!DOCTYPE svg PUBLIC "-//W3C//DTD SVG 1.1//EN"
 "http://www.w3.org/Graphics/SVG/1.1/DTD/svg11.dtd">
<!-- Generated by graphviz version 2.38.0 (20140413.2041)
 -->
<!-- Title: Robowars.RobotAssembler Pages: 1 -->
<svg width="264pt" height="215pt"
 viewBox="0.00 0.00 264.00 215.00" xmlns="http://www.w3.org/2000/svg" xmlns:xlink="http://www.w3.org/1999/xlink">
<g id="graph0" class="graph" transform="scale(1 1) rotate(0) translate(4 211)">
<title>Robowars.RobotAssembler</title>
<polygon fill="white" stroke="none" points="-4,4 -4,-211 260,-211 260,4 -4,4"/>
<!-- Node1 -->
<g id="node1" class="node"><title>Node1</title>
<g id="a_node1"><a xlink:title="Represents logic regarding how specific robots may be produced.">
<polygon fill="#bfbfbf" stroke="black" points="72.5,-138.5 72.5,-206.5 206.5,-206.5 206.5,-138.5 72.5,-138.5"/>
<text text-anchor="middle" x="139.5" y="-194.5" font-family="Helvetica,sans-Serif" font-size="10.00">Robowars.RobotAssembler</text>
<polyline fill="none" stroke="black" points="72.5,-187.5 206.5,-187.5 "/>
<text text-anchor="middle" x="139.5" y="-175.5" font-family="Helvetica,sans-Serif" font-size="10.00"> </text>
<polyline fill="none" stroke="black" points="72.5,-168.5 206.5,-168.5 "/>
<text text-anchor="start" x="80.5" y="-156.5" font-family="Helvetica,sans-Serif" font-size="10.00">+ AssembleRobot()</text>
<text text-anchor="start" x="80.5" y="-145.5" font-family="Helvetica,sans-Serif" font-size="10.00"># CreateRobot()</text>
</a>
</g>
</g>
<!-- Node2 -->
<g id="node2" class="node"><title>Node2</title>
<g id="a_node2"><a xlink:href="class_robowars_1_1_mining_robot_maker.html" target="_top" xlink:title="Creates friendly mining robots">
<polygon fill="white" stroke="black" points="0,-22.5 0,-79.5 143,-79.5 143,-22.5 0,-22.5"/>
<text text-anchor="middle" x="71.5" y="-67.5" font-family="Helvetica,sans-Serif" font-size="10.00">Robowars.MiningRobotMaker</text>
<polyline fill="none" stroke="black" points="0,-60.5 143,-60.5 "/>
<text text-anchor="middle" x="71.5" y="-48.5" font-family="Helvetica,sans-Serif" font-size="10.00"> </text>
<polyline fill="none" stroke="black" points="0,-41.5 143,-41.5 "/>
<text text-anchor="start" x="8" y="-29.5" font-family="Helvetica,sans-Serif" font-size="10.00"># CreateRobot()</text>
</a>
</g>
</g>
<!-- Node1&#45;&gt;Node2 -->
<g id="edge1" class="edge"><title>Node1&#45;&gt;Node2</title>
<path fill="none" stroke="midnightblue" d="M115.504,-129.331C106.166,-112.92 95.722,-94.5666 87.3531,-79.8596"/>
<polygon fill="none" stroke="midnightblue" points="112.57,-131.252 120.558,-138.213 118.654,-127.79 112.57,-131.252"/>
</g>
<!-- Node3 -->
<g id="node3" class="node"><title>Node3</title>
<g id="a_node3"><a xlink:href="class_robowars_1_1_sky_net.html" target="_top" xlink:title="Creates terminator robots">
<polygon fill="white" stroke="black" points="161,-0.5 161,-101.5 256,-101.5 256,-0.5 161,-0.5"/>
<text text-anchor="middle" x="208.5" y="-89.5" font-family="Helvetica,sans-Serif" font-size="10.00">Robowars.SkyNet</text>
<polyline fill="none" stroke="black" points="161,-82.5 256,-82.5 "/>
<text text-anchor="start" x="169" y="-70.5" font-family="Helvetica,sans-Serif" font-size="10.00">+ Instance</text>
<text text-anchor="start" x="169" y="-59.5" font-family="Helvetica,sans-Serif" font-size="10.00">&#45; _mark</text>
<text text-anchor="start" x="169" y="-48.5" font-family="Helvetica,sans-Serif" font-size="10.00">&#45; _instance</text>
<text text-anchor="start" x="169" y="-37.5" font-family="Helvetica,sans-Serif" font-size="10.00">&#45; start</text>
<polyline fill="none" stroke="black" points="161,-30.5 256,-30.5 "/>
<text text-anchor="start" x="169" y="-18.5" font-family="Helvetica,sans-Serif" font-size="10.00"># CreateRobot()</text>
<text text-anchor="start" x="169" y="-7.5" font-family="Helvetica,sans-Serif" font-size="10.00">&#45; SkyNet()</text>
</a>
</g>
</g>
<!-- Node1&#45;&gt;Node3 -->
<g id="edge2" class="edge"><title>Node1&#45;&gt;Node3</title>
<path fill="none" stroke="midnightblue" d="M163.778,-129.454C168.967,-120.466 174.497,-110.89 179.834,-101.646"/>
<polygon fill="none" stroke="midnightblue" points="160.69,-127.802 158.72,-138.213 166.752,-131.303 160.69,-127.802"/>
</g>
</g>
</svg>
