<?xml version="1.0" encoding="UTF-8" standalone="no"?>
<!DOCTYPE svg PUBLIC "-//W3C//DTD SVG 1.1//EN"
 "http://www.w3.org/Graphics/SVG/1.1/DTD/svg11.dtd">
<!-- Generated by graphviz version 2.38.0 (20140413.2041)
 -->
<!-- Title: Robowars.SkyNet Pages: 1 -->
<svg width="170pt" height="194pt"
 viewBox="0.00 0.00 170.00 194.00" xmlns="http://www.w3.org/2000/svg" xmlns:xlink="http://www.w3.org/1999/xlink">
<g id="graph0" class="graph" transform="scale(1 1) rotate(0) translate(4 190)">
<title>Robowars.SkyNet</title>
<polygon fill="white" stroke="none" points="-4,4 -4,-190 166,-190 166,4 -4,4"/>
<!-- Node1 -->
<g id="node1" class="node"><title>Node1</title>
<g id="a_node1"><a xlink:title="Creates terminator robots">
<polygon fill="#bfbfbf" stroke="black" points="3,-0.5 3,-79.5 98,-79.5 98,-0.5 3,-0.5"/>
<text text-anchor="middle" x="50.5" y="-67.5" font-family="Helvetica,sans-Serif" font-size="10.00">Robowars.SkyNet</text>
<polyline fill="none" stroke="black" points="3,-60.5 98,-60.5 "/>
<text text-anchor="start" x="11" y="-48.5" font-family="Helvetica,sans-Serif" font-size="10.00">&#45; _mark</text>
<text text-anchor="start" x="11" y="-37.5" font-family="Helvetica,sans-Serif" font-size="10.00">&#45; start</text>
<polyline fill="none" stroke="black" points="3,-30.5 98,-30.5 "/>
<text text-anchor="start" x="11" y="-18.5" font-family="Helvetica,sans-Serif" font-size="10.00"># CreateRobot()</text>
<text text-anchor="start" x="11" y="-7.5" font-family="Helvetica,sans-Serif" font-size="10.00">&#45; SkyNet()</text>
</a>
</g>
</g>
<!-- Node1&#45;&gt;Node1 -->
<g id="edge2" class="edge"><title>Node1&#45;&gt;Node1</title>
<path fill="none" stroke="#404040" d="M98.1902,-50.5537C108.513,-49.5218 116,-46.0039 116,-40 116,-36.7166 113.761,-34.1767 110.043,-32.3803"/>
<polygon fill="none" stroke="#404040" points="109.839,-32.3297 103.053,-34.7708 98.1902,-29.4463 104.976,-27.0052 109.839,-32.3297"/>
<text text-anchor="middle" x="139" y="-43" font-family="Helvetica,sans-Serif" font-size="10.00"> +Instance</text>
<text text-anchor="middle" x="139" y="-32" font-family="Helvetica,sans-Serif" font-size="10.00">&#45;_instance</text>
</g>
<!-- Node2 -->
<g id="node2" class="node"><title>Node2</title>
<g id="a_node2"><a xlink:href="class_robowars_1_1_robot_assembler.html" target="_top" xlink:title="Represents logic regarding how specific robots may be produced.">
<polygon fill="white" stroke="black" points="0,-117.5 0,-185.5 101,-185.5 101,-117.5 0,-117.5"/>
<text text-anchor="middle" x="50.5" y="-173.5" font-family="Helvetica,sans-Serif" font-size="10.00">RobotAssembler</text>
<polyline fill="none" stroke="black" points="0,-166.5 101,-166.5 "/>
<text text-anchor="middle" x="50.5" y="-154.5" font-family="Helvetica,sans-Serif" font-size="10.00"> </text>
<polyline fill="none" stroke="black" points="0,-147.5 101,-147.5 "/>
<text text-anchor="start" x="8" y="-135.5" font-family="Helvetica,sans-Serif" font-size="10.00">+ AssembleRobot()</text>
<text text-anchor="start" x="8" y="-124.5" font-family="Helvetica,sans-Serif" font-size="10.00"># CreateRobot()</text>
</a>
</g>
</g>
<!-- Node2&#45;&gt;Node1 -->
<g id="edge1" class="edge"><title>Node2&#45;&gt;Node1</title>
<path fill="none" stroke="midnightblue" d="M50.5,-107.339C50.5,-98.2542 50.5,-88.7235 50.5,-79.8103"/>
<polygon fill="none" stroke="midnightblue" points="47.0001,-107.349 50.5,-117.349 54.0001,-107.349 47.0001,-107.349"/>
</g>
</g>
</svg>
