<?xml version="1.0" encoding="UTF-8" standalone="no"?>
<!DOCTYPE svg PUBLIC "-//W3C//DTD SVG 1.1//EN"
 "http://www.w3.org/Graphics/SVG/1.1/DTD/svg11.dtd">
<!-- Generated by graphviz version 2.38.0 (20140413.2041)
 -->
<!-- Title: Robowars.RobotAssembler.AssembleRobot Pages: 1 -->
<svg width="344pt" height="78pt"
 viewBox="0.00 0.00 344.00 77.50" xmlns="http://www.w3.org/2000/svg" xmlns:xlink="http://www.w3.org/1999/xlink">
<g id="graph0" class="graph" transform="scale(1 1) rotate(0) translate(4 73.5)">
<title>Robowars.RobotAssembler.AssembleRobot</title>
<polygon fill="white" stroke="none" points="-4,4 -4,-73.5 340,-73.5 340,4 -4,4"/>
<!-- Node1 -->
<g id="node1" class="node"><title>Node1</title>
<g id="a_node1"><a xlink:title="Creates a new robot.">
<polygon fill="#bfbfbf" stroke="black" points="0,-17 0,-47 137,-47 137,-17 0,-17"/>
<text text-anchor="start" x="8" y="-35" font-family="Helvetica,sans-Serif" font-size="10.00">Robowars.RobotAssembler.</text>
<text text-anchor="middle" x="68.5" y="-24" font-family="Helvetica,sans-Serif" font-size="10.00">AssembleRobot</text>
</a>
</g>
</g>
<!-- Node2 -->
<g id="node2" class="node"><title>Node2</title>
<g id="a_node2"><a xlink:href="class_robowars_1_1_robot_assembler.html#aad9c5cff1aab535f762950f7a031d51f" target="_top" xlink:title="Creates weaponry for the robot.">
<polygon fill="white" stroke="black" points="186,-39 186,-69 323,-69 323,-39 186,-39"/>
<text text-anchor="start" x="194" y="-57" font-family="Helvetica,sans-Serif" font-size="10.00">Robowars.RobotAssembler.</text>
<text text-anchor="middle" x="254.5" y="-46" font-family="Helvetica,sans-Serif" font-size="10.00">CreateWeapons</text>
</a>
</g>
</g>
<!-- Node1&#45;&gt;Node2 -->
<g id="edge1" class="edge"><title>Node1&#45;&gt;Node2</title>
<path fill="none" stroke="midnightblue" d="M137.231,-40.0983C149.763,-41.5967 162.943,-43.1725 175.745,-44.7033"/>
<polygon fill="midnightblue" stroke="midnightblue" points="175.567,-48.2068 185.912,-45.9189 176.399,-41.2563 175.567,-48.2068"/>
</g>
<!-- Node3 -->
<g id="node3" class="node"><title>Node3</title>
<g id="a_node3"><a xlink:href="class_robowars_1_1_robot_assembler.html#a0a90cc5b9ffa5c85e299159feb8f2ff4" target="_top" xlink:title="Returns the name for a newly created robot.">
<polygon fill="white" stroke="black" points="173,-0.5 173,-19.5 336,-19.5 336,-0.5 173,-0.5"/>
<text text-anchor="middle" x="254.5" y="-7.5" font-family="Helvetica,sans-Serif" font-size="10.00">Robowars.RobotAssembler.Name</text>
</a>
</g>
</g>
<!-- Node1&#45;&gt;Node3 -->
<g id="edge2" class="edge"><title>Node1&#45;&gt;Node3</title>
<path fill="none" stroke="midnightblue" d="M137.231,-23.9017C145.867,-22.8691 154.811,-21.7998 163.726,-20.7338"/>
<polygon fill="midnightblue" stroke="midnightblue" points="164.249,-24.1963 173.763,-19.5338 163.418,-17.2458 164.249,-24.1963"/>
</g>
</g>
</svg>
