<?xml version="1.0" encoding="UTF-8" standalone="no"?>
<!DOCTYPE svg PUBLIC "-//W3C//DTD SVG 1.1//EN"
 "http://www.w3.org/Graphics/SVG/1.1/DTD/svg11.dtd">
<!-- Generated by graphviz version 2.38.0 (20140413.2041)
 -->
<!-- Title: Robowars.Robot.Attacking Pages: 1 -->
<svg width="140pt" height="408pt"
 viewBox="0.00 0.00 140.00 408.00" xmlns="http://www.w3.org/2000/svg" xmlns:xlink="http://www.w3.org/1999/xlink">
<g id="graph0" class="graph" transform="scale(1 1) rotate(0) translate(4 404)">
<title>Robowars.Robot.Attacking</title>
<polygon fill="white" stroke="none" points="-4,4 -4,-404 136,-404 136,4 -4,4"/>
<!-- Node1 -->
<g id="node1" class="node"><title>Node1</title>
<g id="a_node1"><a xlink:title=" ">
<polygon fill="#bfbfbf" stroke="black" points="0,-0.5 0,-79.5 132,-79.5 132,-0.5 0,-0.5"/>
<text text-anchor="middle" x="66" y="-67.5" font-family="Helvetica,sans-Serif" font-size="10.00">Robowars.Robot.Attacking</text>
<polyline fill="none" stroke="black" points="0,-60.5 132,-60.5 "/>
<text text-anchor="middle" x="66" y="-48.5" font-family="Helvetica,sans-Serif" font-size="10.00"> </text>
<polyline fill="none" stroke="black" points="0,-41.5 132,-41.5 "/>
<text text-anchor="start" x="8" y="-29.5" font-family="Helvetica,sans-Serif" font-size="10.00">+ Attacking()</text>
<text text-anchor="start" x="8" y="-18.5" font-family="Helvetica,sans-Serif" font-size="10.00">+ Ready()</text>
<text text-anchor="start" x="8" y="-7.5" font-family="Helvetica,sans-Serif" font-size="10.00">+ Attack()</text>
</a>
</g>
</g>
<!-- Node2 -->
<g id="node2" class="node"><title>Node2</title>
<g id="a_node2"><a xlink:href="class_robowars_1_1_robot_1_1_active.html" target="_top" xlink:title=" ">
<polygon fill="white" stroke="black" points="27.5,-116.5 27.5,-217.5 104.5,-217.5 104.5,-116.5 27.5,-116.5"/>
<text text-anchor="middle" x="66" y="-205.5" font-family="Helvetica,sans-Serif" font-size="10.00">Active</text>
<polyline fill="none" stroke="black" points="27.5,-198.5 104.5,-198.5 "/>
<text text-anchor="middle" x="66" y="-186.5" font-family="Helvetica,sans-Serif" font-size="10.00"> </text>
<polyline fill="none" stroke="black" points="27.5,-179.5 104.5,-179.5 "/>
<text text-anchor="start" x="35.5" y="-167.5" font-family="Helvetica,sans-Serif" font-size="10.00">+ Active()</text>
<text text-anchor="start" x="35.5" y="-156.5" font-family="Helvetica,sans-Serif" font-size="10.00">+ Ready()</text>
<text text-anchor="start" x="35.5" y="-145.5" font-family="Helvetica,sans-Serif" font-size="10.00">+ Deactivate()</text>
<text text-anchor="start" x="35.5" y="-134.5" font-family="Helvetica,sans-Serif" font-size="10.00">+ Attack()</text>
<text text-anchor="start" x="35.5" y="-123.5" font-family="Helvetica,sans-Serif" font-size="10.00"># Destroy()</text>
</a>
</g>
</g>
<!-- Node2&#45;&gt;Node1 -->
<g id="edge1" class="edge"><title>Node2&#45;&gt;Node1</title>
<path fill="none" stroke="midnightblue" d="M66,-106.186C66,-97.2207 66,-88.1815 66,-79.8082"/>
<polygon fill="none" stroke="midnightblue" points="62.5001,-106.237 66,-116.238 69.5001,-106.238 62.5001,-106.237"/>
</g>
<!-- Node3 -->
<g id="node3" class="node"><title>Node3</title>
<g id="a_node3"><a xlink:href="class_robowars_1_1_robot_1_1_robot_situation.html" target="_top" xlink:title="Represents a Situation a robot can have; Each method is a transition to a different situation,...">
<polygon fill="white" stroke="black" points="18.5,-254.5 18.5,-399.5 113.5,-399.5 113.5,-254.5 18.5,-254.5"/>
<text text-anchor="middle" x="66" y="-387.5" font-family="Helvetica,sans-Serif" font-size="10.00">RobotSituation</text>
<polyline fill="none" stroke="black" points="18.5,-380.5 113.5,-380.5 "/>
<text text-anchor="start" x="26.5" y="-368.5" font-family="Helvetica,sans-Serif" font-size="10.00">+ Description</text>
<text text-anchor="start" x="26.5" y="-357.5" font-family="Helvetica,sans-Serif" font-size="10.00">+ Context</text>
<text text-anchor="start" x="26.5" y="-346.5" font-family="Helvetica,sans-Serif" font-size="10.00">+ Feedback</text>
<polyline fill="none" stroke="black" points="18.5,-339.5 113.5,-339.5 "/>
<text text-anchor="start" x="26.5" y="-327.5" font-family="Helvetica,sans-Serif" font-size="10.00">+ RobotSituation()</text>
<text text-anchor="start" x="26.5" y="-316.5" font-family="Helvetica,sans-Serif" font-size="10.00">+ Ready()</text>
<text text-anchor="start" x="26.5" y="-305.5" font-family="Helvetica,sans-Serif" font-size="10.00">+ Attack()</text>
<text text-anchor="start" x="26.5" y="-294.5" font-family="Helvetica,sans-Serif" font-size="10.00">+ Deactivate()</text>
<text text-anchor="start" x="26.5" y="-283.5" font-family="Helvetica,sans-Serif" font-size="10.00">+ TakeDamage()</text>
<text text-anchor="start" x="26.5" y="-272.5" font-family="Helvetica,sans-Serif" font-size="10.00"># Destroy()</text>
<text text-anchor="start" x="26.5" y="-261.5" font-family="Helvetica,sans-Serif" font-size="10.00">&#45; RobotSituation()</text>
</a>
</g>
</g>
<!-- Node3&#45;&gt;Node2 -->
<g id="edge2" class="edge"><title>Node3&#45;&gt;Node2</title>
<path fill="none" stroke="midnightblue" d="M66,-244.186C66,-235.139 66,-226.14 66,-217.667"/>
<polygon fill="none" stroke="midnightblue" points="62.5001,-244.397 66,-254.397 69.5001,-244.397 62.5001,-244.397"/>
</g>
</g>
</svg>
