<?xml version="1.0" encoding="UTF-8" standalone="no"?>
<!DOCTYPE svg PUBLIC "-//W3C//DTD SVG 1.1//EN"
 "http://www.w3.org/Graphics/SVG/1.1/DTD/svg11.dtd">
<!-- Generated by graphviz version 2.38.0 (20140413.2041)
 -->
<!-- Title: Robowars.RobotAssembler.CreateRobot Pages: 1 -->
<svg width="660pt" height="39pt"
 viewBox="0.00 0.00 660.00 39.00" xmlns="http://www.w3.org/2000/svg" xmlns:xlink="http://www.w3.org/1999/xlink">
<g id="graph0" class="graph" transform="scale(1 1) rotate(0) translate(4 35)">
<title>Robowars.RobotAssembler.CreateRobot</title>
<polygon fill="white" stroke="none" points="-4,4 -4,-35 656,-35 656,4 -4,4"/>
<!-- Node1 -->
<g id="node1" class="node"><title>Node1</title>
<g id="a_node1"><a xlink:title="Creates weaponry for the robot.">
<polygon fill="#bfbfbf" stroke="black" points="515,-0.5 515,-30.5 652,-30.5 652,-0.5 515,-0.5"/>
<text text-anchor="start" x="523" y="-18.5" font-family="Helvetica,sans-Serif" font-size="10.00">Robowars.RobotAssembler.</text>
<text text-anchor="middle" x="583.5" y="-7.5" font-family="Helvetica,sans-Serif" font-size="10.00">CreateRobot</text>
</a>
</g>
</g>
<!-- Node2 -->
<g id="node2" class="node"><title>Node2</title>
<g id="a_node2"><a xlink:href="class_robowars_1_1_robot_assembler.html#a33adb5edf364767e511a2ca2dbbb6bb3" target="_top" xlink:title="Creates a new robot.">
<polygon fill="white" stroke="black" points="342,-0.5 342,-30.5 479,-30.5 479,-0.5 342,-0.5"/>
<text text-anchor="start" x="350" y="-18.5" font-family="Helvetica,sans-Serif" font-size="10.00">Robowars.RobotAssembler.</text>
<text text-anchor="middle" x="410.5" y="-7.5" font-family="Helvetica,sans-Serif" font-size="10.00">AssembleRobot</text>
</a>
</g>
</g>
<!-- Node1&#45;&gt;Node2 -->
<g id="edge1" class="edge"><title>Node1&#45;&gt;Node2</title>
<path fill="none" stroke="midnightblue" d="M504.9,-15.5C496.308,-15.5 487.609,-15.5 479.153,-15.5"/>
<polygon fill="midnightblue" stroke="midnightblue" points="504.916,-19.0001 514.916,-15.5 504.916,-12.0001 504.916,-19.0001"/>
</g>
<!-- Node3 -->
<g id="node3" class="node"><title>Node3</title>
<g id="a_node3"><a xlink:href="class_robowars_1_1_contest.html#abf6b758bc8ca3b0a5c8e82d95154014a" target="_top" xlink:title="Shows a menu where the user can select a command to organize and initiate a fight">
<polygon fill="white" stroke="black" points="159,-6 159,-25 306,-25 306,-6 159,-6"/>
<text text-anchor="middle" x="232.5" y="-13" font-family="Helvetica,sans-Serif" font-size="10.00">Robowars.Contest.ShowMenu</text>
</a>
</g>
</g>
<!-- Node2&#45;&gt;Node3 -->
<g id="edge2" class="edge"><title>Node2&#45;&gt;Node3</title>
<path fill="none" stroke="midnightblue" d="M331.678,-15.5C323.182,-15.5 314.557,-15.5 306.126,-15.5"/>
<polygon fill="midnightblue" stroke="midnightblue" points="331.957,-19.0001 341.957,-15.5 331.957,-12.0001 331.957,-19.0001"/>
</g>
<!-- Node4 -->
<g id="node4" class="node"><title>Node4</title>
<g id="a_node4"><a xlink:href="class_robowars_1_1_program.html#af46e692d0f1e92dd1bae9ccb6daa191b" target="_top" xlink:title=" ">
<polygon fill="white" stroke="black" points="0,-6 0,-25 123,-25 123,-6 0,-6"/>
<text text-anchor="middle" x="61.5" y="-13" font-family="Helvetica,sans-Serif" font-size="10.00">Robowars.Program.Main</text>
</a>
</g>
</g>
<!-- Node3&#45;&gt;Node4 -->
<g id="edge3" class="edge"><title>Node3&#45;&gt;Node4</title>
<path fill="none" stroke="midnightblue" d="M148.754,-15.5C140.128,-15.5 131.477,-15.5 123.162,-15.5"/>
<polygon fill="midnightblue" stroke="midnightblue" points="148.848,-19.0001 158.848,-15.5 148.848,-12.0001 148.848,-19.0001"/>
</g>
</g>
</svg>
