<?xml version="1.0" encoding="UTF-8" standalone="no"?>
<!DOCTYPE svg PUBLIC "-//W3C//DTD SVG 1.1//EN"
 "http://www.w3.org/Graphics/SVG/1.1/DTD/svg11.dtd">
<!-- Generated by graphviz version 2.38.0 (20140413.2041)
 -->
<!-- Title: Robowars.Contest.ShowStatus Pages: 1 -->
<svg width="502pt" height="28pt"
 viewBox="0.00 0.00 502.00 28.00" xmlns="http://www.w3.org/2000/svg" xmlns:xlink="http://www.w3.org/1999/xlink">
<g id="graph0" class="graph" transform="scale(1 1) rotate(0) translate(4 24)">
<title>Robowars.Contest.ShowStatus</title>
<polygon fill="white" stroke="none" points="-4,4 -4,-24 498,-24 498,4 -4,4"/>
<!-- Node1 -->
<g id="node1" class="node"><title>Node1</title>
<g id="a_node1"><a xlink:title="Shows the status of the two contestants">
<polygon fill="#bfbfbf" stroke="black" points="342,-0.5 342,-19.5 494,-19.5 494,-0.5 342,-0.5"/>
<text text-anchor="middle" x="418" y="-7.5" font-family="Helvetica,sans-Serif" font-size="10.00">Robowars.Contest.ShowStatus</text>
</a>
</g>
</g>
<!-- Node2 -->
<g id="node2" class="node"><title>Node2</title>
<g id="a_node2"><a xlink:href="class_robowars_1_1_contest.html#abf6b758bc8ca3b0a5c8e82d95154014a" target="_top" xlink:title="Shows a menu where the user can select a command to organize and initiate a fight">
<polygon fill="white" stroke="black" points="159,-0.5 159,-19.5 306,-19.5 306,-0.5 159,-0.5"/>
<text text-anchor="middle" x="232.5" y="-7.5" font-family="Helvetica,sans-Serif" font-size="10.00">Robowars.Contest.ShowMenu</text>
</a>
</g>
</g>
<!-- Node1&#45;&gt;Node2 -->
<g id="edge1" class="edge"><title>Node1&#45;&gt;Node2</title>
<path fill="none" stroke="midnightblue" d="M331.825,-10C323.253,-10 314.604,-10 306.179,-10"/>
<polygon fill="midnightblue" stroke="midnightblue" points="331.834,-13.5001 341.834,-10 331.834,-6.5001 331.834,-13.5001"/>
</g>
<!-- Node3 -->
<g id="node3" class="node"><title>Node3</title>
<g id="a_node3"><a xlink:href="class_robowars_1_1_program.html#af46e692d0f1e92dd1bae9ccb6daa191b" target="_top" xlink:title=" ">
<polygon fill="white" stroke="black" points="0,-0.5 0,-19.5 123,-19.5 123,-0.5 0,-0.5"/>
<text text-anchor="middle" x="61.5" y="-7.5" font-family="Helvetica,sans-Serif" font-size="10.00">Robowars.Program.Main</text>
</a>
</g>
</g>
<!-- Node2&#45;&gt;Node3 -->
<g id="edge2" class="edge"><title>Node2&#45;&gt;Node3</title>
<path fill="none" stroke="midnightblue" d="M148.754,-10C140.128,-10 131.477,-10 123.162,-10"/>
<polygon fill="midnightblue" stroke="midnightblue" points="148.848,-13.5001 158.848,-10 148.848,-6.5001 148.848,-13.5001"/>
</g>
</g>
</svg>
