<?xml version="1.0" encoding="UTF-8" standalone="no"?>
<!DOCTYPE svg PUBLIC "-//W3C//DTD SVG 1.1//EN"
 "http://www.w3.org/Graphics/SVG/1.1/DTD/svg11.dtd">
<!-- Generated by graphviz version 2.38.0 (20140413.2041)
 -->
<!-- Title: WeaponEnhancement Pages: 1 -->
<svg width="362pt" height="298pt"
 viewBox="0.00 0.00 362.00 298.00" xmlns="http://www.w3.org/2000/svg" xmlns:xlink="http://www.w3.org/1999/xlink">
<g id="graph0" class="graph" transform="scale(1 1) rotate(0) translate(4 294)">
<title>WeaponEnhancement</title>
<polygon fill="white" stroke="none" points="-4,4 -4,-294 358,-294 358,4 -4,4"/>
<!-- Node1 -->
<g id="node1" class="node"><title>Node1</title>
<g id="a_node1"><a xlink:title="Represents an enchancement of a Weapon, by transparently wrapping the weapon while also implementing ...">
<polygon fill="#bfbfbf" stroke="black" points="114,-116.5 114,-173.5 227,-173.5 227,-116.5 114,-116.5"/>
<text text-anchor="middle" x="170.5" y="-161.5" font-family="Helvetica,sans-Serif" font-size="10.00">WeaponEnhancement</text>
<polyline fill="none" stroke="black" points="114,-154.5 227,-154.5 "/>
<text text-anchor="start" x="122" y="-142.5" font-family="Helvetica,sans-Serif" font-size="10.00">+ EnhancedWeapon</text>
<polyline fill="none" stroke="black" points="114,-135.5 227,-135.5 "/>
<text text-anchor="start" x="122" y="-123.5" font-family="Helvetica,sans-Serif" font-size="10.00">+ GetDamage()</text>
</a>
</g>
</g>
<!-- Node3 -->
<g id="node3" class="node"><title>Node3</title>
<g id="a_node3"><a xlink:href="class_fixed_damage_bonus_weapon.html" target="_top" xlink:title=" ">
<polygon fill="white" stroke="black" points="0,-0.5 0,-79.5 155,-79.5 155,-0.5 0,-0.5"/>
<text text-anchor="middle" x="77.5" y="-67.5" font-family="Helvetica,sans-Serif" font-size="10.00">FixedDamageBonusWeapon</text>
<polyline fill="none" stroke="black" points="0,-60.5 155,-60.5 "/>
<text text-anchor="start" x="8" y="-48.5" font-family="Helvetica,sans-Serif" font-size="10.00">+ PowerDrain</text>
<text text-anchor="start" x="8" y="-37.5" font-family="Helvetica,sans-Serif" font-size="10.00">+ Bonus</text>
<polyline fill="none" stroke="black" points="0,-30.5 155,-30.5 "/>
<text text-anchor="start" x="8" y="-18.5" font-family="Helvetica,sans-Serif" font-size="10.00">+ FixedDamageBonusWeapon()</text>
<text text-anchor="start" x="8" y="-7.5" font-family="Helvetica,sans-Serif" font-size="10.00">+ GetDamage()</text>
</a>
</g>
</g>
<!-- Node1&#45;&gt;Node3 -->
<g id="edge2" class="edge"><title>Node1&#45;&gt;Node3</title>
<path fill="none" stroke="midnightblue" d="M138.641,-108.715C130.146,-99.3064 120.924,-89.0934 112.281,-79.5205"/>
<polygon fill="none" stroke="midnightblue" points="136.278,-111.321 145.578,-116.398 141.474,-106.63 136.278,-111.321"/>
</g>
<!-- Node4 -->
<g id="node4" class="node"><title>Node4</title>
<g id="a_node4"><a xlink:href="class_percentage_bonus_damage_weapon.html" target="_top" xlink:title=" ">
<polygon fill="white" stroke="black" points="173,-0.5 173,-79.5 354,-79.5 354,-0.5 173,-0.5"/>
<text text-anchor="middle" x="263.5" y="-67.5" font-family="Helvetica,sans-Serif" font-size="10.00">PercentageBonusDamageWeapon</text>
<polyline fill="none" stroke="black" points="173,-60.5 354,-60.5 "/>
<text text-anchor="start" x="181" y="-48.5" font-family="Helvetica,sans-Serif" font-size="10.00">+ PowerDrain</text>
<text text-anchor="start" x="181" y="-37.5" font-family="Helvetica,sans-Serif" font-size="10.00">+ BonusFactor</text>
<polyline fill="none" stroke="black" points="173,-30.5 354,-30.5 "/>
<text text-anchor="start" x="181" y="-18.5" font-family="Helvetica,sans-Serif" font-size="10.00">+ PercentageBonusDamageWeapon()</text>
<text text-anchor="start" x="181" y="-7.5" font-family="Helvetica,sans-Serif" font-size="10.00">+ GetDamage()</text>
</a>
</g>
</g>
<!-- Node1&#45;&gt;Node4 -->
<g id="edge3" class="edge"><title>Node1&#45;&gt;Node4</title>
<path fill="none" stroke="midnightblue" d="M202.359,-108.715C210.854,-99.3064 220.076,-89.0934 228.719,-79.5205"/>
<polygon fill="none" stroke="midnightblue" points="199.526,-106.63 195.422,-116.398 204.722,-111.321 199.526,-106.63"/>
</g>
<!-- Node2 -->
<g id="node2" class="node"><title>Node2</title>
<g id="a_node2"><a xlink:href="class_weapon.html" target="_top" xlink:title="Defines a top level interface for a weapon.">
<polygon fill="white" stroke="black" points="129,-210.5 129,-289.5 212,-289.5 212,-210.5 129,-210.5"/>
<text text-anchor="middle" x="170.5" y="-277.5" font-family="Helvetica,sans-Serif" font-size="10.00">Weapon</text>
<polyline fill="none" stroke="black" points="129,-270.5 212,-270.5 "/>
<text text-anchor="start" x="137" y="-258.5" font-family="Helvetica,sans-Serif" font-size="10.00">+ PowerDrain</text>
<text text-anchor="start" x="137" y="-247.5" font-family="Helvetica,sans-Serif" font-size="10.00">+ Name</text>
<text text-anchor="start" x="137" y="-236.5" font-family="Helvetica,sans-Serif" font-size="10.00">+ Damage</text>
<polyline fill="none" stroke="black" points="129,-229.5 212,-229.5 "/>
<text text-anchor="start" x="137" y="-217.5" font-family="Helvetica,sans-Serif" font-size="10.00">+ GetDamage()</text>
</a>
</g>
</g>
<!-- Node2&#45;&gt;Node1 -->
<g id="edge1" class="edge"><title>Node2&#45;&gt;Node1</title>
<path fill="none" stroke="midnightblue" d="M170.5,-200.163C170.5,-191.04 170.5,-181.806 170.5,-173.61"/>
<polygon fill="none" stroke="midnightblue" points="167,-200.354 170.5,-210.354 174,-200.354 167,-200.354"/>
</g>
</g>
</svg>
