<?xml version="1.0" encoding="UTF-8" standalone="no"?>
<!DOCTYPE svg PUBLIC "-//W3C//DTD SVG 1.1//EN"
 "http://www.w3.org/Graphics/SVG/1.1/DTD/svg11.dtd">
<!-- Generated by graphviz version 2.38.0 (20140413.2041)
 -->
<!-- Title: Robowars.Robots.RobotSituation.Ready Pages: 1 -->
<svg width="366pt" height="39pt"
 viewBox="0.00 0.00 366.00 39.00" xmlns="http://www.w3.org/2000/svg" xmlns:xlink="http://www.w3.org/1999/xlink">
<g id="graph0" class="graph" transform="scale(1 1) rotate(0) translate(4 35)">
<title>Robowars.Robots.RobotSituation.Ready</title>
<polygon fill="white" stroke="none" points="-4,4 -4,-35 362,-35 362,4 -4,4"/>
<!-- Node1 -->
<g id="node1" class="node"><title>Node1</title>
<g id="a_node1"><a xlink:title="Attempts a transition to the Active Situation">
<polygon fill="#bfbfbf" stroke="black" points="195,-0.5 195,-30.5 358,-30.5 358,-0.5 195,-0.5"/>
<text text-anchor="start" x="203" y="-18.5" font-family="Helvetica,sans-Serif" font-size="10.00">Robowars.Robots.RobotSituation.</text>
<text text-anchor="middle" x="276.5" y="-7.5" font-family="Helvetica,sans-Serif" font-size="10.00">Ready</text>
</a>
</g>
</g>
<!-- Node2 -->
<g id="node2" class="node"><title>Node2</title>
<g id="a_node2"><a xlink:href="class_robowars_1_1_robots_1_1_robot.html#ab49a3c4493ae32967a5bdad650368b77" target="_top" xlink:title="Attempts to restore the robot back to its Active situation, if possible.">
<polygon fill="white" stroke="black" points="0,-0.5 0,-30.5 159,-30.5 159,-0.5 0,-0.5"/>
<text text-anchor="start" x="8" y="-18.5" font-family="Helvetica,sans-Serif" font-size="10.00">Robowars.Robots.Robot.Activate</text>
<text text-anchor="middle" x="79.5" y="-7.5" font-family="Helvetica,sans-Serif" font-size="10.00">IfPossible</text>
</a>
</g>
</g>
<!-- Node1&#45;&gt;Node2 -->
<g id="edge1" class="edge"><title>Node1&#45;&gt;Node2</title>
<path fill="none" stroke="midnightblue" d="M184.535,-15.5C176.097,-15.5 167.593,-15.5 159.278,-15.5"/>
<polygon fill="midnightblue" stroke="midnightblue" points="184.778,-19.0001 194.778,-15.5 184.778,-12.0001 184.778,-19.0001"/>
</g>
</g>
</svg>
