<?xml version="1.0" encoding="UTF-8" standalone="no"?>
<!DOCTYPE svg PUBLIC "-//W3C//DTD SVG 1.1//EN"
 "http://www.w3.org/Graphics/SVG/1.1/DTD/svg11.dtd">
<!-- Generated by graphviz version 2.38.0 (20140413.2041)
 -->
<!-- Title: Robowars.Robots.Attacking Pages: 1 -->
<svg width="145pt" height="397pt"
 viewBox="0.00 0.00 145.00 397.00" xmlns="http://www.w3.org/2000/svg" xmlns:xlink="http://www.w3.org/1999/xlink">
<g id="graph0" class="graph" transform="scale(1 1) rotate(0) translate(4 393)">
<title>Robowars.Robots.Attacking</title>
<polygon fill="white" stroke="none" points="-4,4 -4,-393 141,-393 141,4 -4,4"/>
<!-- Node1 -->
<g id="node1" class="node"><title>Node1</title>
<g id="a_node1"><a xlink:title="Indicates that the Robot is currently Attacking.">
<polygon fill="#bfbfbf" stroke="black" points="0,-0.5 0,-79.5 137,-79.5 137,-0.5 0,-0.5"/>
<text text-anchor="middle" x="68.5" y="-67.5" font-family="Helvetica,sans-Serif" font-size="10.00">Robowars.Robots.Attacking</text>
<polyline fill="none" stroke="black" points="0,-60.5 137,-60.5 "/>
<text text-anchor="middle" x="68.5" y="-48.5" font-family="Helvetica,sans-Serif" font-size="10.00"> </text>
<polyline fill="none" stroke="black" points="0,-41.5 137,-41.5 "/>
<text text-anchor="start" x="8" y="-29.5" font-family="Helvetica,sans-Serif" font-size="10.00">+ Attacking()</text>
<text text-anchor="start" x="8" y="-18.5" font-family="Helvetica,sans-Serif" font-size="10.00">+ Ready()</text>
<text text-anchor="start" x="8" y="-7.5" font-family="Helvetica,sans-Serif" font-size="10.00">+ Attack()</text>
</a>
</g>
</g>
<!-- Node2 -->
<g id="node2" class="node"><title>Node2</title>
<g id="a_node2"><a xlink:href="class_robowars_1_1_robots_1_1_active.html" target="_top" xlink:title="Indicates that the Robot is Active and is ready to perform actions.">
<polygon fill="white" stroke="black" points="30,-116.5 30,-217.5 107,-217.5 107,-116.5 30,-116.5"/>
<text text-anchor="middle" x="68.5" y="-205.5" font-family="Helvetica,sans-Serif" font-size="10.00">Active</text>
<polyline fill="none" stroke="black" points="30,-198.5 107,-198.5 "/>
<text text-anchor="middle" x="68.5" y="-186.5" font-family="Helvetica,sans-Serif" font-size="10.00"> </text>
<polyline fill="none" stroke="black" points="30,-179.5 107,-179.5 "/>
<text text-anchor="start" x="38" y="-167.5" font-family="Helvetica,sans-Serif" font-size="10.00">+ Active()</text>
<text text-anchor="start" x="38" y="-156.5" font-family="Helvetica,sans-Serif" font-size="10.00">+ Ready()</text>
<text text-anchor="start" x="38" y="-145.5" font-family="Helvetica,sans-Serif" font-size="10.00">+ Deactivate()</text>
<text text-anchor="start" x="38" y="-134.5" font-family="Helvetica,sans-Serif" font-size="10.00">+ Attack()</text>
<text text-anchor="start" x="38" y="-123.5" font-family="Helvetica,sans-Serif" font-size="10.00"># Destroy()</text>
</a>
</g>
</g>
<!-- Node2&#45;&gt;Node1 -->
<g id="edge1" class="edge"><title>Node2&#45;&gt;Node1</title>
<path fill="none" stroke="midnightblue" d="M68.5,-106.186C68.5,-97.2207 68.5,-88.1815 68.5,-79.8082"/>
<polygon fill="none" stroke="midnightblue" points="65.0001,-106.237 68.5,-116.238 72.0001,-106.238 65.0001,-106.237"/>
</g>
<!-- Node3 -->
<g id="node3" class="node"><title>Node3</title>
<g id="a_node3"><a xlink:href="class_robowars_1_1_robots_1_1_robot_situation.html" target="_top" xlink:title="Represents a Situation a Robot can be in; Each method is a transition to a different RobotSituation,...">
<polygon fill="white" stroke="black" points="21,-254.5 21,-388.5 116,-388.5 116,-254.5 21,-254.5"/>
<text text-anchor="middle" x="68.5" y="-376.5" font-family="Helvetica,sans-Serif" font-size="10.00">RobotSituation</text>
<polyline fill="none" stroke="black" points="21,-369.5 116,-369.5 "/>
<text text-anchor="start" x="29" y="-357.5" font-family="Helvetica,sans-Serif" font-size="10.00">+ Description</text>
<text text-anchor="start" x="29" y="-346.5" font-family="Helvetica,sans-Serif" font-size="10.00">+ Context</text>
<text text-anchor="start" x="29" y="-335.5" font-family="Helvetica,sans-Serif" font-size="10.00">+ Feedback</text>
<polyline fill="none" stroke="black" points="21,-328.5 116,-328.5 "/>
<text text-anchor="start" x="29" y="-316.5" font-family="Helvetica,sans-Serif" font-size="10.00">+ RobotSituation()</text>
<text text-anchor="start" x="29" y="-305.5" font-family="Helvetica,sans-Serif" font-size="10.00">+ Ready()</text>
<text text-anchor="start" x="29" y="-294.5" font-family="Helvetica,sans-Serif" font-size="10.00">+ Attack()</text>
<text text-anchor="start" x="29" y="-283.5" font-family="Helvetica,sans-Serif" font-size="10.00">+ Deactivate()</text>
<text text-anchor="start" x="29" y="-272.5" font-family="Helvetica,sans-Serif" font-size="10.00">+ TakeDamage()</text>
<text text-anchor="start" x="29" y="-261.5" font-family="Helvetica,sans-Serif" font-size="10.00"># Destroy()</text>
</a>
</g>
</g>
<!-- Node3&#45;&gt;Node2 -->
<g id="edge2" class="edge"><title>Node3&#45;&gt;Node2</title>
<path fill="none" stroke="midnightblue" d="M68.5,-244.274C68.5,-235.194 68.5,-226.113 68.5,-217.547"/>
<polygon fill="none" stroke="midnightblue" points="65.0001,-244.498 68.5,-254.498 72.0001,-244.498 65.0001,-244.498"/>
</g>
</g>
</svg>
