<?xml version="1.0" encoding="UTF-8" standalone="no"?>
<!DOCTYPE svg PUBLIC "-//W3C//DTD SVG 1.1//EN"
 "http://www.w3.org/Graphics/SVG/1.1/DTD/svg11.dtd">
<!-- Generated by graphviz version 2.38.0 (20140413.2041)
 -->
<!-- Title: Robowars.Robot.RobotSituation.Destroy Pages: 1 -->
<svg width="699pt" height="39pt"
 viewBox="0.00 0.00 699.00 39.00" xmlns="http://www.w3.org/2000/svg" xmlns:xlink="http://www.w3.org/1999/xlink">
<g id="graph0" class="graph" transform="scale(1 1) rotate(0) translate(4 35)">
<title>Robowars.Robot.RobotSituation.Destroy</title>
<polygon fill="white" stroke="none" points="-4,4 -4,-35 695,-35 695,4 -4,4"/>
<!-- Node1 -->
<g id="node1" class="node"><title>Node1</title>
<g id="a_node1"><a xlink:title=" ">
<polygon fill="#bfbfbf" stroke="black" points="533,-0.5 533,-30.5 691,-30.5 691,-0.5 533,-0.5"/>
<text text-anchor="start" x="541" y="-18.5" font-family="Helvetica,sans-Serif" font-size="10.00">Robowars.Robot.RobotSituation.</text>
<text text-anchor="middle" x="612" y="-7.5" font-family="Helvetica,sans-Serif" font-size="10.00">Destroy</text>
</a>
</g>
</g>
<!-- Node2 -->
<g id="node2" class="node"><title>Node2</title>
<g id="a_node2"><a xlink:href="class_robowars_1_1_robot_1_1_robot_situation.html#af0b1aa1c5f80cf36c5d3761195cb87a0" target="_top" xlink:title=" ">
<polygon fill="white" stroke="black" points="339,-0.5 339,-30.5 497,-30.5 497,-0.5 339,-0.5"/>
<text text-anchor="start" x="347" y="-18.5" font-family="Helvetica,sans-Serif" font-size="10.00">Robowars.Robot.RobotSituation.</text>
<text text-anchor="middle" x="418" y="-7.5" font-family="Helvetica,sans-Serif" font-size="10.00">TakeDamage</text>
</a>
</g>
</g>
<!-- Node1&#45;&gt;Node2 -->
<g id="edge1" class="edge"><title>Node1&#45;&gt;Node2</title>
<path fill="none" stroke="midnightblue" d="M522.847,-15.5C514.231,-15.5 505.53,-15.5 497.025,-15.5"/>
<polygon fill="midnightblue" stroke="midnightblue" points="522.906,-19.0001 532.906,-15.5 522.906,-12.0001 522.906,-19.0001"/>
</g>
<!-- Node3 -->
<g id="node3" class="node"><title>Node3</title>
<g id="a_node3"><a xlink:href="class_robowars_1_1_robot.html#a9cbd51f30a41c882ad9fd152a13646e9" target="_top" xlink:title=" ">
<polygon fill="white" stroke="black" points="155,-6 155,-25 303,-25 303,-6 155,-6"/>
<text text-anchor="middle" x="229" y="-13" font-family="Helvetica,sans-Serif" font-size="10.00">Robowars.Robot.TakeDamage</text>
</a>
</g>
</g>
<!-- Node2&#45;&gt;Node3 -->
<g id="edge2" class="edge"><title>Node2&#45;&gt;Node3</title>
<path fill="none" stroke="midnightblue" d="M328.752,-15.5C320.173,-15.5 311.535,-15.5 303.128,-15.5"/>
<polygon fill="midnightblue" stroke="midnightblue" points="328.779,-19.0001 338.779,-15.5 328.779,-12.0001 328.779,-19.0001"/>
</g>
<!-- Node4 -->
<g id="node4" class="node"><title>Node4</title>
<g id="a_node4"><a xlink:href="class_robowars_1_1_robot.html#a76a6fccb34fe3482c0883712abff7622" target="_top" xlink:title="Robot attacks the other robot with a random weapon, if the situation allows.">
<polygon fill="white" stroke="black" points="0,-6 0,-25 119,-25 119,-6 0,-6"/>
<text text-anchor="middle" x="59.5" y="-13" font-family="Helvetica,sans-Serif" font-size="10.00">Robowars.Robot.Attack</text>
</a>
</g>
</g>
<!-- Node3&#45;&gt;Node4 -->
<g id="edge3" class="edge"><title>Node3&#45;&gt;Node4</title>
<path fill="none" stroke="midnightblue" d="M144.475,-15.5C135.888,-15.5 127.298,-15.5 119.066,-15.5"/>
<polygon fill="midnightblue" stroke="midnightblue" points="144.532,-19.0001 154.532,-15.5 144.532,-12.0001 144.532,-19.0001"/>
</g>
</g>
</svg>
