<?xml version="1.0" encoding="UTF-8" standalone="no"?>
<!DOCTYPE svg PUBLIC "-//W3C//DTD SVG 1.1//EN"
 "http://www.w3.org/Graphics/SVG/1.1/DTD/svg11.dtd">
<!-- Generated by graphviz version 2.38.0 (20140413.2041)
 -->
<!-- Title: Robowars.SkyNet.CreateRobot Pages: 1 -->
<svg width="375pt" height="235pt"
 viewBox="0.00 0.00 375.00 235.00" xmlns="http://www.w3.org/2000/svg" xmlns:xlink="http://www.w3.org/1999/xlink">
<g id="graph0" class="graph" transform="scale(1 1) rotate(0) translate(4 231)">
<title>Robowars.SkyNet.CreateRobot</title>
<polygon fill="white" stroke="none" points="-4,4 -4,-231 371,-231 371,4 -4,4"/>
<!-- Node1 -->
<g id="node1" class="node"><title>Node1</title>
<g id="a_node1"><a xlink:title="A new Terminator instance">
<polygon fill="#bfbfbf" stroke="black" points="0,-104 0,-123 152,-123 152,-104 0,-104"/>
<text text-anchor="middle" x="76" y="-111" font-family="Helvetica,sans-Serif" font-size="10.00">Robowars.SkyNet.CreateRobot</text>
</a>
</g>
</g>
<!-- Node2 -->
<g id="node2" class="node"><title>Node2</title>
<g id="a_node2"><a xlink:href="class_robowars_1_1_weapons_1_1_weapon_upgrade_specifier.html#aa5df27fd35ef87b09867448775dafb8c" target="_top" xlink:title=" ">
<polygon fill="white" stroke="black" points="188,-196.5 188,-226.5 367,-226.5 367,-196.5 188,-196.5"/>
<text text-anchor="start" x="196" y="-214.5" font-family="Helvetica,sans-Serif" font-size="10.00">Robowars.Weapons.WeaponUpgrade</text>
<text text-anchor="middle" x="277.5" y="-203.5" font-family="Helvetica,sans-Serif" font-size="10.00">Specifier.Build</text>
</a>
</g>
</g>
<!-- Node1&#45;&gt;Node2 -->
<g id="edge1" class="edge"><title>Node1&#45;&gt;Node2</title>
<path fill="none" stroke="midnightblue" d="M88.5616,-123.076C107.955,-138.692 148.779,-169.682 188,-187.5 192.389,-189.494 196.978,-191.352 201.658,-193.078"/>
<polygon fill="midnightblue" stroke="midnightblue" points="200.763,-196.472 211.358,-196.438 203.054,-189.858 200.763,-196.472"/>
</g>
<!-- Node3 -->
<g id="node3" class="node"><title>Node3</title>
<g id="a_node3"><a xlink:href="class_robowars_1_1_weapons_1_1_weapon_upgrade_specifier.html#a4c885a4e530cfbaab8dece77d8b49442" target="_top" xlink:title=" ">
<polygon fill="white" stroke="black" points="188,-147.5 188,-177.5 367,-177.5 367,-147.5 188,-147.5"/>
<text text-anchor="start" x="196" y="-165.5" font-family="Helvetica,sans-Serif" font-size="10.00">Robowars.Weapons.WeaponUpgrade</text>
<text text-anchor="middle" x="277.5" y="-154.5" font-family="Helvetica,sans-Serif" font-size="10.00">Specifier.FromWeapon</text>
</a>
</g>
</g>
<!-- Node1&#45;&gt;Node3 -->
<g id="edge2" class="edge"><title>Node1&#45;&gt;Node3</title>
<path fill="none" stroke="midnightblue" d="M115.939,-123.064C141.307,-129.295 175.16,-137.609 205.239,-144.997"/>
<polygon fill="midnightblue" stroke="midnightblue" points="204.732,-148.477 215.278,-147.463 206.402,-141.679 204.732,-148.477"/>
</g>
<!-- Node4 -->
<g id="node4" class="node"><title>Node4</title>
<g id="a_node4"><a xlink:href="class_robowars_1_1_weapons_1_1_weapon_upgrade_specifier.html#a14433e99cb8e1afc5882b0c0d405e21d" target="_top" xlink:title=" ">
<polygon fill="white" stroke="black" points="188,-98.5 188,-128.5 367,-128.5 367,-98.5 188,-98.5"/>
<text text-anchor="start" x="196" y="-116.5" font-family="Helvetica,sans-Serif" font-size="10.00">Robowars.Weapons.WeaponUpgrade</text>
<text text-anchor="middle" x="277.5" y="-105.5" font-family="Helvetica,sans-Serif" font-size="10.00">Specifier.Named</text>
</a>
</g>
</g>
<!-- Node1&#45;&gt;Node4 -->
<g id="edge3" class="edge"><title>Node1&#45;&gt;Node4</title>
<path fill="none" stroke="midnightblue" d="M152.138,-113.5C160.474,-113.5 169.054,-113.5 177.626,-113.5"/>
<polygon fill="midnightblue" stroke="midnightblue" points="177.669,-117 187.669,-113.5 177.669,-110 177.669,-117"/>
</g>
<!-- Node5 -->
<g id="node5" class="node"><title>Node5</title>
<g id="a_node5"><a xlink:href="class_robowars_1_1_weapons_1_1_weapon_upgrade_specifier.html#ac803e80b2b4d1bc47819fb465c19f738" target="_top" xlink:title=" ">
<polygon fill="white" stroke="black" points="188,-49.5 188,-79.5 367,-79.5 367,-49.5 188,-49.5"/>
<text text-anchor="start" x="196" y="-67.5" font-family="Helvetica,sans-Serif" font-size="10.00">Robowars.Weapons.WeaponUpgrade</text>
<text text-anchor="middle" x="277.5" y="-56.5" font-family="Helvetica,sans-Serif" font-size="10.00">Specifier.UpgradeByAmount</text>
</a>
</g>
</g>
<!-- Node1&#45;&gt;Node5 -->
<g id="edge4" class="edge"><title>Node1&#45;&gt;Node5</title>
<path fill="none" stroke="midnightblue" d="M115.939,-103.936C141.307,-97.7053 175.16,-89.3906 205.239,-82.0026"/>
<polygon fill="midnightblue" stroke="midnightblue" points="206.402,-85.3213 215.278,-79.537 204.732,-78.5233 206.402,-85.3213"/>
</g>
<!-- Node6 -->
<g id="node6" class="node"><title>Node6</title>
<g id="a_node6"><a xlink:href="class_robowars_1_1_weapons_1_1_weapon_upgrade_specifier.html#a3db013e1a0e625e17851d93bb6bde089" target="_top" xlink:title=" ">
<polygon fill="white" stroke="black" points="188,-0.5 188,-30.5 367,-30.5 367,-0.5 188,-0.5"/>
<text text-anchor="start" x="196" y="-18.5" font-family="Helvetica,sans-Serif" font-size="10.00">Robowars.Weapons.WeaponUpgrade</text>
<text text-anchor="middle" x="277.5" y="-7.5" font-family="Helvetica,sans-Serif" font-size="10.00">Specifier.UpgradeByPercentage</text>
</a>
</g>
</g>
<!-- Node1&#45;&gt;Node6 -->
<g id="edge5" class="edge"><title>Node1&#45;&gt;Node6</title>
<path fill="none" stroke="midnightblue" d="M88.9221,-103.861C108.504,-88.4579 149.188,-58.2306 188,-40.5 193.21,-38.1199 198.697,-35.916 204.283,-33.8855"/>
<polygon fill="midnightblue" stroke="midnightblue" points="205.425,-37.194 213.743,-30.6318 203.148,-30.5746 205.425,-37.194"/>
</g>
</g>
</svg>
