<?xml version="1.0" encoding="UTF-8" standalone="no"?>
<!DOCTYPE svg PUBLIC "-//W3C//DTD SVG 1.1//EN"
 "http://www.w3.org/Graphics/SVG/1.1/DTD/svg11.dtd">
<!-- Generated by graphviz version 2.38.0 (20140413.2041)
 -->
<!-- Title: Robowars.Weapons.FixedDamageBonusWeapon.GetDamage Pages: 1 -->
<svg width="539pt" height="39pt"
 viewBox="0.00 0.00 539.00 39.00" xmlns="http://www.w3.org/2000/svg" xmlns:xlink="http://www.w3.org/1999/xlink">
<g id="graph0" class="graph" transform="scale(1 1) rotate(0) translate(4 35)">
<title>Robowars.Weapons.FixedDamageBonusWeapon.GetDamage</title>
<polygon fill="white" stroke="none" points="-4,4 -4,-35 535,-35 535,4 -4,4"/>
<!-- Node1 -->
<g id="node1" class="node"><title>Node1</title>
<g id="a_node1"><a xlink:title=" ">
<polygon fill="#bfbfbf" stroke="black" points="0,-0.5 0,-30.5 167,-30.5 167,-0.5 0,-0.5"/>
<text text-anchor="start" x="8" y="-18.5" font-family="Helvetica,sans-Serif" font-size="10.00">Robowars.Weapons.FixedDamage</text>
<text text-anchor="middle" x="83.5" y="-7.5" font-family="Helvetica,sans-Serif" font-size="10.00">BonusWeapon.GetDamage</text>
</a>
</g>
</g>
<!-- Node2 -->
<g id="node2" class="node"><title>Node2</title>
<g id="a_node2"><a xlink:href="class_robowars_1_1_weapons_1_1_weapon.html#ae031f8bce8e49d0bd8279c1ca81a76b8" target="_top" xlink:title=" ">
<polygon fill="white" stroke="black" points="203,-0.5 203,-30.5 349,-30.5 349,-0.5 203,-0.5"/>
<text text-anchor="start" x="211" y="-18.5" font-family="Helvetica,sans-Serif" font-size="10.00">Robowars.Weapons.Weapon.</text>
<text text-anchor="middle" x="276" y="-7.5" font-family="Helvetica,sans-Serif" font-size="10.00">GetDamage</text>
</a>
</g>
</g>
<!-- Node1&#45;&gt;Node2 -->
<g id="edge1" class="edge"><title>Node1&#45;&gt;Node2</title>
<path fill="none" stroke="midnightblue" d="M167.225,-15.5C175.649,-15.5 184.205,-15.5 192.625,-15.5"/>
<polygon fill="midnightblue" stroke="midnightblue" points="192.809,-19.0001 202.809,-15.5 192.809,-12.0001 192.809,-19.0001"/>
</g>
<!-- Node3 -->
<g id="node3" class="node"><title>Node3</title>
<g id="a_node3"><a xlink:href="class_robowars_1_1_weapons_1_1_weapon_1_1_damage_rating.html#a6b7d9070e7ca6048a23f1a175def136b" target="_top" xlink:title="Gets a new random damage between Min and Max.">
<polygon fill="white" stroke="black" points="385,-0.5 385,-30.5 531,-30.5 531,-0.5 385,-0.5"/>
<text text-anchor="start" x="393" y="-18.5" font-family="Helvetica,sans-Serif" font-size="10.00">Robowars.Weapons.Weapon.</text>
<text text-anchor="middle" x="458" y="-7.5" font-family="Helvetica,sans-Serif" font-size="10.00">DamageRating.Get</text>
</a>
</g>
</g>
<!-- Node2&#45;&gt;Node3 -->
<g id="edge2" class="edge"><title>Node2&#45;&gt;Node3</title>
<path fill="none" stroke="midnightblue" d="M349.176,-15.5C357.52,-15.5 366.077,-15.5 374.544,-15.5"/>
<polygon fill="midnightblue" stroke="midnightblue" points="374.808,-19.0001 384.808,-15.5 374.808,-12.0001 374.808,-19.0001"/>
</g>
</g>
</svg>
