<?xml version="1.0" encoding="UTF-8" standalone="no"?>
<!DOCTYPE svg PUBLIC "-//W3C//DTD SVG 1.1//EN"
 "http://www.w3.org/Graphics/SVG/1.1/DTD/svg11.dtd">
<!-- Generated by graphviz version 2.38.0 (20140413.2041)
 -->
<!-- Title: Robowars.RobotAssembler Pages: 1 -->
<svg width="270pt" height="226pt"
 viewBox="0.00 0.00 270.00 226.00" xmlns="http://www.w3.org/2000/svg" xmlns:xlink="http://www.w3.org/1999/xlink">
<g id="graph0" class="graph" transform="scale(1 1) rotate(0) translate(4 222)">
<title>Robowars.RobotAssembler</title>
<polygon fill="white" stroke="none" points="-4,4 -4,-222 266,-222 266,4 -4,4"/>
<!-- Node1 -->
<g id="node1" class="node"><title>Node1</title>
<g id="a_node1"><a xlink:title=" ">
<polygon fill="#bfbfbf" stroke="black" points="74.5,-138.5 74.5,-217.5 208.5,-217.5 208.5,-138.5 74.5,-138.5"/>
<text text-anchor="middle" x="141.5" y="-205.5" font-family="Helvetica,sans-Serif" font-size="10.00">Robowars.RobotAssembler</text>
<polyline fill="none" stroke="black" points="74.5,-198.5 208.5,-198.5 "/>
<text text-anchor="middle" x="141.5" y="-186.5" font-family="Helvetica,sans-Serif" font-size="10.00"> </text>
<polyline fill="none" stroke="black" points="74.5,-179.5 208.5,-179.5 "/>
<text text-anchor="start" x="82.5" y="-167.5" font-family="Helvetica,sans-Serif" font-size="10.00">+ AssembleRobot()</text>
<text text-anchor="start" x="82.5" y="-156.5" font-family="Helvetica,sans-Serif" font-size="10.00"># Name()</text>
<text text-anchor="start" x="82.5" y="-145.5" font-family="Helvetica,sans-Serif" font-size="10.00"># CreateWeapons()</text>
</a>
</g>
</g>
<!-- Node2 -->
<g id="node2" class="node"><title>Node2</title>
<g id="a_node2"><a xlink:href="class_robowars_1_1_mining_robot_maker.html" target="_top" xlink:title="Creates friendly mining robots">
<polygon fill="white" stroke="black" points="0,-17 0,-85 143,-85 143,-17 0,-17"/>
<text text-anchor="middle" x="71.5" y="-73" font-family="Helvetica,sans-Serif" font-size="10.00">Robowars.MiningRobotMaker</text>
<polyline fill="none" stroke="black" points="0,-66 143,-66 "/>
<text text-anchor="middle" x="71.5" y="-54" font-family="Helvetica,sans-Serif" font-size="10.00"> </text>
<polyline fill="none" stroke="black" points="0,-47 143,-47 "/>
<text text-anchor="start" x="8" y="-35" font-family="Helvetica,sans-Serif" font-size="10.00"># CreateWeapons()</text>
<text text-anchor="start" x="8" y="-24" font-family="Helvetica,sans-Serif" font-size="10.00"># Name()</text>
</a>
</g>
</g>
<!-- Node1&#45;&gt;Node2 -->
<g id="edge1" class="edge"><title>Node1&#45;&gt;Node2</title>
<path fill="none" stroke="midnightblue" d="M114.875,-129.455C106.595,-114.67 97.6515,-98.6992 90.0484,-85.1222"/>
<polygon fill="none" stroke="midnightblue" points="111.987,-131.461 119.927,-138.476 118.094,-128.041 111.987,-131.461"/>
</g>
<!-- Node3 -->
<g id="node3" class="node"><title>Node3</title>
<g id="a_node3"><a xlink:href="class_robowars_1_1_sky_net.html" target="_top" xlink:title="Creates terminator robots">
<polygon fill="white" stroke="black" points="161,-0.5 161,-101.5 262,-101.5 262,-0.5 161,-0.5"/>
<text text-anchor="middle" x="211.5" y="-89.5" font-family="Helvetica,sans-Serif" font-size="10.00">Robowars.SkyNet</text>
<polyline fill="none" stroke="black" points="161,-82.5 262,-82.5 "/>
<text text-anchor="start" x="169" y="-70.5" font-family="Helvetica,sans-Serif" font-size="10.00">+ Instance</text>
<text text-anchor="start" x="169" y="-59.5" font-family="Helvetica,sans-Serif" font-size="10.00">&#45; _mark</text>
<text text-anchor="start" x="169" y="-48.5" font-family="Helvetica,sans-Serif" font-size="10.00">&#45; _instance</text>
<polyline fill="none" stroke="black" points="161,-41.5 262,-41.5 "/>
<text text-anchor="start" x="169" y="-29.5" font-family="Helvetica,sans-Serif" font-size="10.00"># CreateWeapons()</text>
<text text-anchor="start" x="169" y="-18.5" font-family="Helvetica,sans-Serif" font-size="10.00"># Name()</text>
<text text-anchor="start" x="169" y="-7.5" font-family="Helvetica,sans-Serif" font-size="10.00">&#45; SkyNet()</text>
</a>
</g>
</g>
<!-- Node1&#45;&gt;Node3 -->
<g id="edge2" class="edge"><title>Node1&#45;&gt;Node3</title>
<path fill="none" stroke="midnightblue" d="M168.074,-129.547C173.176,-120.436 178.532,-110.871 183.673,-101.691"/>
<polygon fill="none" stroke="midnightblue" points="164.906,-128.041 163.073,-138.476 171.013,-131.461 164.906,-128.041"/>
</g>
</g>
</svg>
