<?xml version="1.0" encoding="UTF-8" standalone="no"?>
<!DOCTYPE svg PUBLIC "-//W3C//DTD SVG 1.1//EN"
 "http://www.w3.org/Graphics/SVG/1.1/DTD/svg11.dtd">
<!-- Generated by graphviz version 2.38.0 (20140413.2041)
 -->
<!-- Title: Robowars.Contest.ShowMenu Pages: 1 -->
<!--zoomable 166 -->
<svg id="main" version="1.1" xmlns="http://www.w3.org/2000/svg" xmlns:xlink="http://www.w3.org/1999/xlink" xml:space="preserve" onload="init(evt)">
<style type="text/css"><![CDATA[
.edge:hover path { stroke: red; }
.edge:hover polygon { stroke: red; fill: red; }
]]></style>
<script type="text/javascript"><![CDATA[
var edges = document.getElementsByTagName('g');
if (edges && edges.length) {
  for (var i=0;i<edges.length;i++) {
    if (edges[i].id.substr(0,4)=='edge') {
      edges[i].setAttribute('class','edge');
    }
  }
}
]]></script>
        <defs>
                <circle id="rim" cx="0" cy="0" r="7"/>
                <circle id="rim2" cx="0" cy="0" r="3.5"/>
                <g id="zoomPlus">
                        <use xlink:href="#rim" fill="#404040">
                                <set attributeName="fill" to="#808080" begin="zoomplus.mouseover" end="zoomplus.mouseout"/>
                        </use>
                        <path d="M-4,0h8M0,-4v8" fill="none" stroke="white" stroke-width="1.5" pointer-events="none"/>
                </g>
                <g id="zoomMin">
                        <use xlink:href="#rim" fill="#404040">
                                <set attributeName="fill" to="#808080" begin="zoomminus.mouseover" end="zoomminus.mouseout"/>
                        </use>
                        <path d="M-4,0h8" fill="none" stroke="white" stroke-width="1.5" pointer-events="none"/>
                </g>
                <g id="dirArrow">
                        <path fill="none" stroke="white" stroke-width="1.5" d="M0,-3.0v7 M-2.5,-0.5L0,-3.0L2.5,-0.5"/>
                </g>
               <g id="resetDef">
                       <use xlink:href="#rim2" fill="#404040">
                               <set attributeName="fill" to="#808080" begin="reset.mouseover" end="reset.mouseout"/>
                       </use>
               </g>
        </defs>

<script type="text/javascript">
var viewWidth = 736;
var viewHeight = 166;
var sectionId = 'dynsection-3';
</script>
<script xlink:href="svgpan.js"/>
<svg id="graph" class="graph">
<g id="viewport">
<title>Robowars.Contest.ShowMenu</title>
<polygon fill="white" stroke="none" points="-4,4 -4,-161.5 732,-161.5 732,4 -4,4"/>
<!-- Node1 -->
<g id="node1" class="node"><title>Node1</title>
<g id="a_node1"><a xlink:title="Shows a menu where the user can select a command to organize and initiate a fight">
<polygon fill="#bfbfbf" stroke="black" points="0,-44.5 0,-63.5 147,-63.5 147,-44.5 0,-44.5"/>
<text text-anchor="middle" x="73.5" y="-51.5" font-family="Helvetica,sans-Serif" font-size="10.00">Robowars.Contest.ShowMenu</text>
</a>
</g>
</g>
<!-- Node2 -->
<g id="node2" class="node"><title>Node2</title>
<g id="a_node2"><a xlink:href="class_robowars_1_1_robot_assembler.html#a33adb5edf364767e511a2ca2dbbb6bb3" target="_top" xlink:title="Creates a new robot.">
<polygon fill="white" stroke="black" points="190.5,-83 190.5,-113 327.5,-113 327.5,-83 190.5,-83"/>
<text text-anchor="start" x="198.5" y="-101" font-family="Helvetica,sans-Serif" font-size="10.00">Robowars.RobotAssembler.</text>
<text text-anchor="middle" x="259" y="-90" font-family="Helvetica,sans-Serif" font-size="10.00">AssembleRobot</text>
</a>
</g>
</g>
<!-- Node1&#45;&gt;Node2 -->
<g id="edge1" class="edge"><title>Node1&#45;&gt;Node2</title>
<path fill="none" stroke="midnightblue" d="M114.317,-63.5473C135.069,-68.5233 161.106,-74.7666 185.296,-80.5669"/>
<polygon fill="midnightblue" stroke="midnightblue" points="184.63,-84.0064 195.171,-82.9346 186.262,-77.1993 184.63,-84.0064"/>
</g>
<!-- Node5 -->
<g id="node5" class="node"><title>Node5</title>
<g id="a_node5"><a xlink:href="class_robowars_1_1_contest.html#aa78400fb2b86f1d4b6e963581fb0b3f1" target="_top" xlink:title=" ">
<polygon fill="white" stroke="black" points="198.5,-44.5 198.5,-63.5 319.5,-63.5 319.5,-44.5 198.5,-44.5"/>
<text text-anchor="middle" x="259" y="-51.5" font-family="Helvetica,sans-Serif" font-size="10.00">Robowars.Contest.Fight</text>
</a>
</g>
</g>
<!-- Node1&#45;&gt;Node5 -->
<g id="edge4" class="edge"><title>Node1&#45;&gt;Node5</title>
<path fill="none" stroke="midnightblue" d="M147.024,-54C160.595,-54 174.754,-54 188.239,-54"/>
<polygon fill="midnightblue" stroke="midnightblue" points="188.399,-57.5001 198.399,-54 188.399,-50.5001 188.399,-57.5001"/>
</g>
<!-- Node8 -->
<g id="node8" class="node"><title>Node8</title>
<g id="a_node8"><a xlink:href="class_robowars_1_1_contest.html#aab738c7bae8a47f70118f9a0517551c1" target="_top" xlink:title="Shows the status of the two contestants">
<polygon fill="white" stroke="black" points="183,-3.5 183,-22.5 335,-22.5 335,-3.5 183,-3.5"/>
<text text-anchor="middle" x="259" y="-10.5" font-family="Helvetica,sans-Serif" font-size="10.00">Robowars.Contest.ShowStatus</text>
</a>
</g>
</g>
<!-- Node1&#45;&gt;Node8 -->
<g id="edge7" class="edge"><title>Node1&#45;&gt;Node8</title>
<path fill="none" stroke="midnightblue" d="M117.06,-44.4907C143.368,-38.6126 177.337,-31.0228 205.334,-24.7673"/>
<polygon fill="midnightblue" stroke="midnightblue" points="206.357,-28.1251 215.354,-22.5286 204.831,-21.2935 206.357,-28.1251"/>
</g>
<!-- Node3 -->
<g id="node3" class="node"><title>Node3</title>
<g id="a_node3"><a xlink:href="class_robowars_1_1_robot_assembler.html#aad9c5cff1aab535f762950f7a031d51f" target="_top" xlink:title="Creates weaponry for the robot.">
<polygon fill="white" stroke="black" points="384,-127 384,-157 521,-157 521,-127 384,-127"/>
<text text-anchor="start" x="392" y="-145" font-family="Helvetica,sans-Serif" font-size="10.00">Robowars.RobotAssembler.</text>
<text text-anchor="middle" x="452.5" y="-134" font-family="Helvetica,sans-Serif" font-size="10.00">CreateWeapons</text>
</a>
</g>
</g>
<!-- Node2&#45;&gt;Node3 -->
<g id="edge2" class="edge"><title>Node2&#45;&gt;Node3</title>
<path fill="none" stroke="midnightblue" d="M325.368,-113.019C341.762,-116.786 359.482,-120.857 376.312,-124.724"/>
<polygon fill="midnightblue" stroke="midnightblue" points="375.572,-128.146 386.102,-126.974 377.14,-121.323 375.572,-128.146"/>
</g>
<!-- Node4 -->
<g id="node4" class="node"><title>Node4</title>
<g id="a_node4"><a xlink:href="class_robowars_1_1_robot_assembler.html#a0a90cc5b9ffa5c85e299159feb8f2ff4" target="_top" xlink:title="Returns the name for a newly created robot.">
<polygon fill="white" stroke="black" points="371,-88.5 371,-107.5 534,-107.5 534,-88.5 371,-88.5"/>
<text text-anchor="middle" x="452.5" y="-95.5" font-family="Helvetica,sans-Serif" font-size="10.00">Robowars.RobotAssembler.Name</text>
</a>
</g>
</g>
<!-- Node2&#45;&gt;Node4 -->
<g id="edge3" class="edge"><title>Node2&#45;&gt;Node4</title>
<path fill="none" stroke="midnightblue" d="M327.516,-98C338.234,-98 349.47,-98 360.618,-98"/>
<polygon fill="midnightblue" stroke="midnightblue" points="360.814,-101.5 370.814,-98 360.814,-94.5001 360.814,-101.5"/>
</g>
<!-- Node6 -->
<g id="node6" class="node"><title>Node6</title>
<g id="a_node6"><a xlink:href="class_robowars_1_1_robot.html#ae41ce01299fe98b573362be9c76172ee" target="_top" xlink:title=" ">
<polygon fill="white" stroke="black" points="387.5,-39 387.5,-69 517.5,-69 517.5,-39 387.5,-39"/>
<text text-anchor="start" x="395.5" y="-57" font-family="Helvetica,sans-Serif" font-size="10.00">Robowars.Robot.ActivateIf</text>
<text text-anchor="middle" x="452.5" y="-46" font-family="Helvetica,sans-Serif" font-size="10.00">Possible</text>
</a>
</g>
</g>
<!-- Node5&#45;&gt;Node6 -->
<g id="edge5" class="edge"><title>Node5&#45;&gt;Node6</title>
<path fill="none" stroke="midnightblue" d="M319.542,-54C337.784,-54 358.081,-54 377.18,-54"/>
<polygon fill="midnightblue" stroke="midnightblue" points="377.342,-57.5001 387.342,-54 377.342,-50.5001 377.342,-57.5001"/>
</g>
<!-- Node7 -->
<g id="node7" class="node"><title>Node7</title>
<g id="a_node7"><a xlink:href="class_robowars_1_1_robot_1_1_robot_situation.html#a432be630bd8891af2e1afd4bac43793c" target="_top" xlink:title=" ">
<polygon fill="white" stroke="black" points="570,-39 570,-69 728,-69 728,-39 570,-39"/>
<text text-anchor="start" x="578" y="-57" font-family="Helvetica,sans-Serif" font-size="10.00">Robowars.Robot.RobotSituation.</text>
<text text-anchor="middle" x="649" y="-46" font-family="Helvetica,sans-Serif" font-size="10.00">Ready</text>
</a>
</g>
</g>
<!-- Node6&#45;&gt;Node7 -->
<g id="edge6" class="edge"><title>Node6&#45;&gt;Node7</title>
<path fill="none" stroke="midnightblue" d="M517.726,-54C531.171,-54 545.571,-54 559.717,-54"/>
<polygon fill="midnightblue" stroke="midnightblue" points="559.954,-57.5001 569.954,-54 559.954,-50.5001 559.954,-57.5001"/>
</g>
<!-- Node9 -->
<g id="node9" class="node"><title>Node9</title>
<g id="a_node9"><a xlink:href="class_robowars_1_1_robot.html#a8f6dfbc39f615d923e0357c52c75599d" target="_top" xlink:title=" ">
<polygon fill="white" stroke="black" points="393,-0.5 393,-19.5 512,-19.5 512,-0.5 393,-0.5"/>
<text text-anchor="middle" x="452.5" y="-7.5" font-family="Helvetica,sans-Serif" font-size="10.00">Robowars.Robot.Report</text>
</a>
</g>
</g>
<!-- Node8&#45;&gt;Node9 -->
<g id="edge8" class="edge"><title>Node8&#45;&gt;Node9</title>
<path fill="none" stroke="midnightblue" d="M335.136,-11.8229C350.866,-11.5765 367.375,-11.3179 382.855,-11.0754"/>
<polygon fill="midnightblue" stroke="midnightblue" points="382.916,-14.575 392.859,-10.9187 382.806,-7.57582 382.916,-14.575"/>
</g>
</g>
</svg>
        <g id="navigator" transform="translate(0 0)" fill="#404254">
                <rect fill="#f2f5e9" fill-opacity="0.5" stroke="#606060" stroke-width=".5" x="0" y="0" width="60" height="60"/>
                <use id="zoomplus" xlink:href="#zoomPlus" x="17" y="9" onmousedown="handleZoom(evt,'in')"/>
                <use id="zoomminus" xlink:href="#zoomMin" x="42" y="9" onmousedown="handleZoom(evt,'out')"/>
                <use id="reset" xlink:href="#resetDef" x="30" y="36" onmousedown="handleReset()"/>
                <g id="arrowUp" xlink:href="#dirArrow" transform="translate(30 24)" onmousedown="handlePan(0,-1)">
                  <use xlink:href="#rim" fill="#404040">
                        <set attributeName="fill" to="#808080" begin="arrowUp.mouseover" end="arrowUp.mouseout"/>
                  </use>
                  <path fill="none" stroke="white" stroke-width="1.5" d="M0,-3.0v7 M-2.5,-0.5L0,-3.0L2.5,-0.5"/>
                </g>
                <g id="arrowRight" xlink:href="#dirArrow" transform="rotate(90) translate(36 -43)" onmousedown="handlePan(1,0)">
                  <use xlink:href="#rim" fill="#404040">
                        <set attributeName="fill" to="#808080" begin="arrowRight.mouseover" end="arrowRight.mouseout"/>
                  </use>
                  <path fill="none" stroke="white" stroke-width="1.5" d="M0,-3.0v7 M-2.5,-0.5L0,-3.0L2.5,-0.5"/>
                </g>
                <g id="arrowDown" xlink:href="#dirArrow" transform="rotate(180) translate(-30 -48)" onmousedown="handlePan(0,1)">
                  <use xlink:href="#rim" fill="#404040">
                        <set attributeName="fill" to="#808080" begin="arrowDown.mouseover" end="arrowDown.mouseout"/>
                  </use>
                  <path fill="none" stroke="white" stroke-width="1.5" d="M0,-3.0v7 M-2.5,-0.5L0,-3.0L2.5,-0.5"/>
                </g>
                <g id="arrowLeft" xlink:href="#dirArrow" transform="rotate(270) translate(-36 17)" onmousedown="handlePan(-1,0)">
                  <use xlink:href="#rim" fill="#404040">
                        <set attributeName="fill" to="#808080" begin="arrowLeft.mouseover" end="arrowLeft.mouseout"/>
                  </use>
                  <path fill="none" stroke="white" stroke-width="1.5" d="M0,-3.0v7 M-2.5,-0.5L0,-3.0L2.5,-0.5"/>
                </g>
        </g>
        <svg viewBox="0 0 15 15" width="100%" height="30px" preserveAspectRatio="xMaxYMin meet">
         <g id="arrow_out" transform="scale(0.3 0.3)">
          <a xlink:href="class_robowars_1_1_contest_abf6b758bc8ca3b0a5c8e82d95154014a_cgraph_org.svg" target="_base">
           <rect id="button" ry="5" rx="5" y="6" x="6" height="38" width="38"
                fill="#f2f5e9" fill-opacity="0.5" stroke="#606060" stroke-width="1.0"/>
           <path id="arrow"
             d="M 11.500037,31.436501 C 11.940474,20.09759 22.043105,11.32322 32.158766,21.979434 L 37.068811,17.246167 C 37.068811,17.246167 37.088388,32 37.088388,32 L 22.160133,31.978069 C 22.160133,31.978069 26.997745,27.140456 26.997745,27.140456 C 18.528582,18.264221 13.291696,25.230495 11.500037,31.436501 z"
             style="fill:#404040;"/>
          </a>
         </g>
        </svg>
</svg>
