<?xml version="1.0" encoding="UTF-8" standalone="no"?>
<!DOCTYPE svg PUBLIC "-//W3C//DTD SVG 1.1//EN"
 "http://www.w3.org/Graphics/SVG/1.1/DTD/svg11.dtd">
<!-- Generated by graphviz version 2.38.0 (20140413.2041)
 -->
<!-- Title: FixedDamageBonusWeapon Pages: 1 -->
<svg width="163pt" height="298pt"
 viewBox="0.00 0.00 163.00 298.00" xmlns="http://www.w3.org/2000/svg" xmlns:xlink="http://www.w3.org/1999/xlink">
<g id="graph0" class="graph" transform="scale(1 1) rotate(0) translate(4 294)">
<title>FixedDamageBonusWeapon</title>
<polygon fill="white" stroke="none" points="-4,4 -4,-294 159,-294 159,4 -4,4"/>
<!-- Node1 -->
<g id="node1" class="node"><title>Node1</title>
<g id="a_node1"><a xlink:title=" ">
<polygon fill="#bfbfbf" stroke="black" points="0,-0.5 0,-79.5 155,-79.5 155,-0.5 0,-0.5"/>
<text text-anchor="middle" x="77.5" y="-67.5" font-family="Helvetica,sans-Serif" font-size="10.00">FixedDamageBonusWeapon</text>
<polyline fill="none" stroke="black" points="0,-60.5 155,-60.5 "/>
<text text-anchor="start" x="8" y="-48.5" font-family="Helvetica,sans-Serif" font-size="10.00">+ PowerDrain</text>
<text text-anchor="start" x="8" y="-37.5" font-family="Helvetica,sans-Serif" font-size="10.00">+ Bonus</text>
<polyline fill="none" stroke="black" points="0,-30.5 155,-30.5 "/>
<text text-anchor="start" x="8" y="-18.5" font-family="Helvetica,sans-Serif" font-size="10.00">+ FixedDamageBonusWeapon()</text>
<text text-anchor="start" x="8" y="-7.5" font-family="Helvetica,sans-Serif" font-size="10.00">+ GetDamage()</text>
</a>
</g>
</g>
<!-- Node2 -->
<g id="node2" class="node"><title>Node2</title>
<g id="a_node2"><a xlink:href="class_weapon_enhancement.html" target="_top" xlink:title="Represents an enchancement of a Weapon, by transparently wrapping the weapon while also implementing ...">
<polygon fill="white" stroke="black" points="21,-116.5 21,-173.5 134,-173.5 134,-116.5 21,-116.5"/>
<text text-anchor="middle" x="77.5" y="-161.5" font-family="Helvetica,sans-Serif" font-size="10.00">WeaponEnhancement</text>
<polyline fill="none" stroke="black" points="21,-154.5 134,-154.5 "/>
<text text-anchor="start" x="29" y="-142.5" font-family="Helvetica,sans-Serif" font-size="10.00">+ EnhancedWeapon</text>
<polyline fill="none" stroke="black" points="21,-135.5 134,-135.5 "/>
<text text-anchor="start" x="29" y="-123.5" font-family="Helvetica,sans-Serif" font-size="10.00">+ GetDamage()</text>
</a>
</g>
</g>
<!-- Node2&#45;&gt;Node1 -->
<g id="edge1" class="edge"><title>Node2&#45;&gt;Node1</title>
<path fill="none" stroke="midnightblue" d="M77.5,-106.156C77.5,-97.4733 77.5,-88.2318 77.5,-79.5205"/>
<polygon fill="none" stroke="midnightblue" points="74.0001,-106.398 77.5,-116.398 81.0001,-106.398 74.0001,-106.398"/>
</g>
<!-- Node3 -->
<g id="node3" class="node"><title>Node3</title>
<g id="a_node3"><a xlink:href="class_weapon.html" target="_top" xlink:title="Defines a top level interface for a weapon.">
<polygon fill="white" stroke="black" points="36,-210.5 36,-289.5 119,-289.5 119,-210.5 36,-210.5"/>
<text text-anchor="middle" x="77.5" y="-277.5" font-family="Helvetica,sans-Serif" font-size="10.00">Weapon</text>
<polyline fill="none" stroke="black" points="36,-270.5 119,-270.5 "/>
<text text-anchor="start" x="44" y="-258.5" font-family="Helvetica,sans-Serif" font-size="10.00">+ PowerDrain</text>
<text text-anchor="start" x="44" y="-247.5" font-family="Helvetica,sans-Serif" font-size="10.00">+ Name</text>
<text text-anchor="start" x="44" y="-236.5" font-family="Helvetica,sans-Serif" font-size="10.00">+ Damage</text>
<polyline fill="none" stroke="black" points="36,-229.5 119,-229.5 "/>
<text text-anchor="start" x="44" y="-217.5" font-family="Helvetica,sans-Serif" font-size="10.00">+ GetDamage()</text>
</a>
</g>
</g>
<!-- Node3&#45;&gt;Node2 -->
<g id="edge2" class="edge"><title>Node3&#45;&gt;Node2</title>
<path fill="none" stroke="midnightblue" d="M77.5,-200.163C77.5,-191.04 77.5,-181.806 77.5,-173.61"/>
<polygon fill="none" stroke="midnightblue" points="74.0001,-200.354 77.5,-210.354 81.0001,-200.354 74.0001,-200.354"/>
</g>
</g>
</svg>
