<?xml version="1.0" encoding="UTF-8" standalone="no"?>
<!DOCTYPE svg PUBLIC "-//W3C//DTD SVG 1.1//EN"
 "http://www.w3.org/Graphics/SVG/1.1/DTD/svg11.dtd">
<!-- Generated by graphviz version 2.38.0 (20140413.2041)
 -->
<!-- Title: Robowars.SkyNet.CreateRobot Pages: 1 -->
<svg width="582pt" height="235pt"
 viewBox="0.00 0.00 582.00 235.00" xmlns="http://www.w3.org/2000/svg" xmlns:xlink="http://www.w3.org/1999/xlink">
<g id="graph0" class="graph" transform="scale(1 1) rotate(0) translate(4 231)">
<title>Robowars.SkyNet.CreateRobot</title>
<polygon fill="white" stroke="none" points="-4,4 -4,-231 578,-231 578,4 -4,4"/>
<!-- Node1 -->
<g id="node1" class="node"><title>Node1</title>
<g id="a_node1"><a xlink:title="Creates weaponry for the robot.">
<polygon fill="#bfbfbf" stroke="black" points="0,-104 0,-123 152,-123 152,-104 0,-104"/>
<text text-anchor="middle" x="76" y="-111" font-family="Helvetica,sans-Serif" font-size="10.00">Robowars.SkyNet.CreateRobot</text>
</a>
</g>
</g>
<!-- Node2 -->
<g id="node2" class="node"><title>Node2</title>
<g id="a_node2"><a xlink:href="class_robowars_1_1_weapon_upgrade_specifier.html#acba4fea284b33a76ac4f2c5891a9e309" target="_top" xlink:title=" ">
<polygon fill="white" stroke="black" points="188,-196.5 188,-226.5 363,-226.5 363,-196.5 188,-196.5"/>
<text text-anchor="start" x="196" y="-214.5" font-family="Helvetica,sans-Serif" font-size="10.00">Robowars.WeaponUpgradeSpecifier.</text>
<text text-anchor="middle" x="275.5" y="-203.5" font-family="Helvetica,sans-Serif" font-size="10.00">Build</text>
</a>
</g>
</g>
<!-- Node1&#45;&gt;Node2 -->
<g id="edge1" class="edge"><title>Node1&#45;&gt;Node2</title>
<path fill="none" stroke="midnightblue" d="M88.5733,-123.051C107.983,-138.629 148.831,-169.568 188,-187.5 192.375,-189.503 196.953,-191.372 201.621,-193.11"/>
<polygon fill="midnightblue" stroke="midnightblue" points="200.7,-196.495 211.294,-196.495 203.012,-189.888 200.7,-196.495"/>
</g>
<!-- Node3 -->
<g id="node3" class="node"><title>Node3</title>
<g id="a_node3"><a xlink:href="class_robowars_1_1_weapon_upgrade_specifier.html#a29f230583580074b31ea2b8a4c97292f" target="_top" xlink:title=" ">
<polygon fill="white" stroke="black" points="188,-147.5 188,-177.5 363,-177.5 363,-147.5 188,-147.5"/>
<text text-anchor="start" x="196" y="-165.5" font-family="Helvetica,sans-Serif" font-size="10.00">Robowars.WeaponUpgradeSpecifier.</text>
<text text-anchor="middle" x="275.5" y="-154.5" font-family="Helvetica,sans-Serif" font-size="10.00">FromWeapon</text>
</a>
</g>
</g>
<!-- Node1&#45;&gt;Node3 -->
<g id="edge2" class="edge"><title>Node1&#45;&gt;Node3</title>
<path fill="none" stroke="midnightblue" d="M115.549,-123.064C140.662,-129.295 174.175,-137.609 203.954,-144.997"/>
<polygon fill="midnightblue" stroke="midnightblue" points="203.343,-148.452 213.892,-147.463 205.029,-141.658 203.343,-148.452"/>
</g>
<!-- Node5 -->
<g id="node5" class="node"><title>Node5</title>
<g id="a_node5"><a xlink:href="class_robowars_1_1_weapon_upgrade_specifier.html#a9ef1475b5fec4f8c3bda35944e5a544a" target="_top" xlink:title=" ">
<polygon fill="white" stroke="black" points="188,-98.5 188,-128.5 363,-128.5 363,-98.5 188,-98.5"/>
<text text-anchor="start" x="196" y="-116.5" font-family="Helvetica,sans-Serif" font-size="10.00">Robowars.WeaponUpgradeSpecifier.</text>
<text text-anchor="middle" x="275.5" y="-105.5" font-family="Helvetica,sans-Serif" font-size="10.00">Named</text>
</a>
</g>
</g>
<!-- Node1&#45;&gt;Node5 -->
<g id="edge4" class="edge"><title>Node1&#45;&gt;Node5</title>
<path fill="none" stroke="midnightblue" d="M152.23,-113.5C160.613,-113.5 169.237,-113.5 177.84,-113.5"/>
<polygon fill="midnightblue" stroke="midnightblue" points="177.913,-117 187.913,-113.5 177.913,-110 177.913,-117"/>
</g>
<!-- Node6 -->
<g id="node6" class="node"><title>Node6</title>
<g id="a_node6"><a xlink:href="class_robowars_1_1_weapon_upgrade_specifier.html#a38bba5835b9e41aeb5aa0455cee2cdba" target="_top" xlink:title=" ">
<polygon fill="white" stroke="black" points="188,-49.5 188,-79.5 363,-79.5 363,-49.5 188,-49.5"/>
<text text-anchor="start" x="196" y="-67.5" font-family="Helvetica,sans-Serif" font-size="10.00">Robowars.WeaponUpgradeSpecifier.</text>
<text text-anchor="middle" x="275.5" y="-56.5" font-family="Helvetica,sans-Serif" font-size="10.00">UpgradeByAmount</text>
</a>
</g>
</g>
<!-- Node1&#45;&gt;Node6 -->
<g id="edge5" class="edge"><title>Node1&#45;&gt;Node6</title>
<path fill="none" stroke="midnightblue" d="M115.549,-103.936C140.662,-97.7053 174.175,-89.3906 203.954,-82.0026"/>
<polygon fill="midnightblue" stroke="midnightblue" points="205.029,-85.3421 213.892,-79.537 203.343,-78.548 205.029,-85.3421"/>
</g>
<!-- Node7 -->
<g id="node7" class="node"><title>Node7</title>
<g id="a_node7"><a xlink:href="class_robowars_1_1_weapon_upgrade_specifier.html#ac2fb273aa6b882466716999a2c9cdf9e" target="_top" xlink:title=" ">
<polygon fill="white" stroke="black" points="188,-0.5 188,-30.5 363,-30.5 363,-0.5 188,-0.5"/>
<text text-anchor="start" x="196" y="-18.5" font-family="Helvetica,sans-Serif" font-size="10.00">Robowars.WeaponUpgradeSpecifier.</text>
<text text-anchor="middle" x="275.5" y="-7.5" font-family="Helvetica,sans-Serif" font-size="10.00">UpgradeByPercentage</text>
</a>
</g>
</g>
<!-- Node1&#45;&gt;Node7 -->
<g id="edge6" class="edge"><title>Node1&#45;&gt;Node7</title>
<path fill="none" stroke="midnightblue" d="M88.9345,-103.888C108.534,-88.5229 149.242,-58.3477 188,-40.5 193.058,-38.1707 198.384,-36.0055 203.805,-34.0039"/>
<polygon fill="midnightblue" stroke="midnightblue" points="205.338,-37.176 213.627,-30.5776 203.032,-30.5666 205.338,-37.176"/>
</g>
<!-- Node4 -->
<g id="node4" class="node"><title>Node4</title>
<g id="a_node4"><a xlink:href="class_robowars_1_1_weapon_upgrade_specifier.html#a9077265b0eae345e4b25d8d0ff45053b" target="_top" xlink:title=" ">
<polygon fill="white" stroke="black" points="399,-147.5 399,-177.5 574,-177.5 574,-147.5 399,-147.5"/>
<text text-anchor="start" x="407" y="-165.5" font-family="Helvetica,sans-Serif" font-size="10.00">Robowars.WeaponUpgradeSpecifier.</text>
<text text-anchor="middle" x="486.5" y="-154.5" font-family="Helvetica,sans-Serif" font-size="10.00">WeaponUpgradeSpecifier</text>
</a>
</g>
</g>
<!-- Node3&#45;&gt;Node4 -->
<g id="edge3" class="edge"><title>Node3&#45;&gt;Node4</title>
<path fill="none" stroke="midnightblue" d="M363.017,-162.5C371.492,-162.5 380.13,-162.5 388.698,-162.5"/>
<polygon fill="midnightblue" stroke="midnightblue" points="388.711,-166 398.711,-162.5 388.711,-159 388.711,-166"/>
</g>
</g>
</svg>
