<?xml version="1.0" encoding="UTF-8" standalone="no"?>
<!DOCTYPE svg PUBLIC "-//W3C//DTD SVG 1.1//EN"
 "http://www.w3.org/Graphics/SVG/1.1/DTD/svg11.dtd">
<!-- Generated by graphviz version 2.38.0 (20140413.2041)
 -->
<!-- Title: Robowars.Weapons.Weapon.GetDamage Pages: 1 -->
<svg width="396pt" height="88pt"
 viewBox="0.00 0.00 396.00 88.00" xmlns="http://www.w3.org/2000/svg" xmlns:xlink="http://www.w3.org/1999/xlink">
<g id="graph0" class="graph" transform="scale(1 1) rotate(0) translate(4 84)">
<title>Robowars.Weapons.Weapon.GetDamage</title>
<polygon fill="white" stroke="none" points="-4,4 -4,-84 392,-84 392,4 -4,4"/>
<!-- Node1 -->
<g id="node1" class="node"><title>Node1</title>
<g id="a_node1"><a xlink:title=" ">
<polygon fill="#bfbfbf" stroke="black" points="242,-24.5 242,-54.5 388,-54.5 388,-24.5 242,-24.5"/>
<text text-anchor="start" x="250" y="-42.5" font-family="Helvetica,sans-Serif" font-size="10.00">Robowars.Weapons.Weapon.</text>
<text text-anchor="middle" x="315" y="-31.5" font-family="Helvetica,sans-Serif" font-size="10.00">GetDamage</text>
</a>
</g>
</g>
<!-- Node2 -->
<g id="node2" class="node"><title>Node2</title>
<g id="a_node2"><a xlink:href="class_robowars_1_1_weapons_1_1_weapon_enhancement.html#a6f4c22e9a93633e44c3fb455c97bf834" target="_top" xlink:title=" ">
<polygon fill="white" stroke="black" points="0,-49.5 0,-79.5 206,-79.5 206,-49.5 0,-49.5"/>
<text text-anchor="start" x="8" y="-67.5" font-family="Helvetica,sans-Serif" font-size="10.00">Robowars.Weapons.WeaponEnhancement.</text>
<text text-anchor="middle" x="103" y="-56.5" font-family="Helvetica,sans-Serif" font-size="10.00">GetDamage</text>
</a>
</g>
</g>
<!-- Node1&#45;&gt;Node2 -->
<g id="edge1" class="edge"><title>Node1&#45;&gt;Node2</title>
<path fill="none" stroke="midnightblue" d="M231.619,-49.3072C223.235,-50.3053 214.65,-51.3274 206.09,-52.3464"/>
<polygon fill="midnightblue" stroke="midnightblue" points="232.214,-52.7613 241.73,-48.1036 231.386,-45.8103 232.214,-52.7613"/>
</g>
<!-- Node3 -->
<g id="node3" class="node"><title>Node3</title>
<g id="a_node3"><a xlink:href="class_robowars_1_1_weapons_1_1_fixed_damage_bonus_weapon.html#afaa373b3587bfedf62aadd172ccc1222" target="_top" xlink:title=" ">
<polygon fill="white" stroke="black" points="19.5,-0.5 19.5,-30.5 186.5,-30.5 186.5,-0.5 19.5,-0.5"/>
<text text-anchor="start" x="27.5" y="-18.5" font-family="Helvetica,sans-Serif" font-size="10.00">Robowars.Weapons.FixedDamage</text>
<text text-anchor="middle" x="103" y="-7.5" font-family="Helvetica,sans-Serif" font-size="10.00">BonusWeapon.GetDamage</text>
</a>
</g>
</g>
<!-- Node1&#45;&gt;Node3 -->
<g id="edge2" class="edge"><title>Node1&#45;&gt;Node3</title>
<path fill="none" stroke="midnightblue" d="M231.588,-30.0815C216.77,-28.388 201.323,-26.6226 186.503,-24.9289"/>
<polygon fill="midnightblue" stroke="midnightblue" points="231.397,-33.5824 241.73,-31.2406 232.192,-26.6276 231.397,-33.5824"/>
</g>
</g>
</svg>
