<?xml version="1.0" encoding="UTF-8" standalone="no"?>
<!DOCTYPE svg PUBLIC "-//W3C//DTD SVG 1.1//EN"
 "http://www.w3.org/Graphics/SVG/1.1/DTD/svg11.dtd">
<!-- Generated by graphviz version 2.38.0 (20140413.2041)
 -->
<!-- Title: Robowars.Contest.ShowMenu Pages: 1 -->
<svg width="681pt" height="127pt"
 viewBox="0.00 0.00 681.00 126.50" xmlns="http://www.w3.org/2000/svg" xmlns:xlink="http://www.w3.org/1999/xlink">
<g id="graph0" class="graph" transform="scale(1 1) rotate(0) translate(4 122.5)">
<title>Robowars.Contest.ShowMenu</title>
<polygon fill="white" stroke="none" points="-4,4 -4,-122.5 677,-122.5 677,4 -4,4"/>
<!-- Node1 -->
<g id="node1" class="node"><title>Node1</title>
<g id="a_node1"><a xlink:title="Shows a menu where the user can select a command to organize and initiate a fight">
<polygon fill="#bfbfbf" stroke="black" points="0,-44.5 0,-63.5 147,-63.5 147,-44.5 0,-44.5"/>
<text text-anchor="middle" x="73.5" y="-51.5" font-family="Helvetica,sans-Serif" font-size="10.00">Robowars.Contest.ShowMenu</text>
</a>
</g>
</g>
<!-- Node2 -->
<g id="node2" class="node"><title>Node2</title>
<g id="a_node2"><a xlink:href="class_robowars_1_1_robot_assembler.html#a33adb5edf364767e511a2ca2dbbb6bb3" target="_top" xlink:title="Creates a new robot.">
<polygon fill="white" stroke="black" points="190.5,-85 190.5,-115 327.5,-115 327.5,-85 190.5,-85"/>
<text text-anchor="start" x="198.5" y="-103" font-family="Helvetica,sans-Serif" font-size="10.00">Robowars.RobotAssembler.</text>
<text text-anchor="middle" x="259" y="-92" font-family="Helvetica,sans-Serif" font-size="10.00">AssembleRobot</text>
</a>
</g>
</g>
<!-- Node1&#45;&gt;Node2 -->
<g id="edge1" class="edge"><title>Node1&#45;&gt;Node2</title>
<path fill="none" stroke="midnightblue" d="M112.521,-63.5312C134.396,-69.0149 162.563,-76.0757 188.276,-82.5215"/>
<polygon fill="midnightblue" stroke="midnightblue" points="187.442,-85.9206 197.993,-84.9573 189.144,-79.1307 187.442,-85.9206"/>
</g>
<!-- Node4 -->
<g id="node4" class="node"><title>Node4</title>
<g id="a_node4"><a xlink:href="class_robowars_1_1_contest.html#aa78400fb2b86f1d4b6e963581fb0b3f1" target="_top" xlink:title=" ">
<polygon fill="white" stroke="black" points="198.5,-44.5 198.5,-63.5 319.5,-63.5 319.5,-44.5 198.5,-44.5"/>
<text text-anchor="middle" x="259" y="-51.5" font-family="Helvetica,sans-Serif" font-size="10.00">Robowars.Contest.Fight</text>
</a>
</g>
</g>
<!-- Node1&#45;&gt;Node4 -->
<g id="edge3" class="edge"><title>Node1&#45;&gt;Node4</title>
<path fill="none" stroke="midnightblue" d="M147.024,-54C160.595,-54 174.754,-54 188.239,-54"/>
<polygon fill="midnightblue" stroke="midnightblue" points="188.399,-57.5001 198.399,-54 188.399,-50.5001 188.399,-57.5001"/>
</g>
<!-- Node7 -->
<g id="node7" class="node"><title>Node7</title>
<g id="a_node7"><a xlink:href="class_robowars_1_1_contest.html#aab738c7bae8a47f70118f9a0517551c1" target="_top" xlink:title="Shows the status of the two contestants">
<polygon fill="white" stroke="black" points="183,-3.5 183,-22.5 335,-22.5 335,-3.5 183,-3.5"/>
<text text-anchor="middle" x="259" y="-10.5" font-family="Helvetica,sans-Serif" font-size="10.00">Robowars.Contest.ShowStatus</text>
</a>
</g>
</g>
<!-- Node1&#45;&gt;Node7 -->
<g id="edge6" class="edge"><title>Node1&#45;&gt;Node7</title>
<path fill="none" stroke="midnightblue" d="M117.06,-44.4907C143.368,-38.6126 177.337,-31.0228 205.334,-24.7673"/>
<polygon fill="midnightblue" stroke="midnightblue" points="206.357,-28.1251 215.354,-22.5286 204.831,-21.2935 206.357,-28.1251"/>
</g>
<!-- Node3 -->
<g id="node3" class="node"><title>Node3</title>
<g id="a_node3"><a xlink:href="class_robowars_1_1_robot_assembler.html#a74d4c946e230f19bc4117ef4835e658a" target="_top" xlink:title="Creates weaponry for the robot.">
<polygon fill="white" stroke="black" points="371,-88 371,-118 508,-118 508,-88 371,-88"/>
<text text-anchor="start" x="379" y="-106" font-family="Helvetica,sans-Serif" font-size="10.00">Robowars.RobotAssembler.</text>
<text text-anchor="middle" x="439.5" y="-95" font-family="Helvetica,sans-Serif" font-size="10.00">CreateRobot</text>
</a>
</g>
</g>
<!-- Node2&#45;&gt;Node3 -->
<g id="edge2" class="edge"><title>Node2&#45;&gt;Node3</title>
<path fill="none" stroke="midnightblue" d="M327.738,-101.138C338.536,-101.32 349.78,-101.509 360.787,-101.694"/>
<polygon fill="midnightblue" stroke="midnightblue" points="360.751,-105.194 370.809,-101.862 360.869,-98.1947 360.751,-105.194"/>
</g>
<!-- Node5 -->
<g id="node5" class="node"><title>Node5</title>
<g id="a_node5"><a xlink:href="class_robowars_1_1_robot.html#ae41ce01299fe98b573362be9c76172ee" target="_top" xlink:title=" ">
<polygon fill="white" stroke="black" points="374.5,-39 374.5,-69 504.5,-69 504.5,-39 374.5,-39"/>
<text text-anchor="start" x="382.5" y="-57" font-family="Helvetica,sans-Serif" font-size="10.00">Robowars.Robot.ActivateIf</text>
<text text-anchor="middle" x="439.5" y="-46" font-family="Helvetica,sans-Serif" font-size="10.00">Possible</text>
</a>
</g>
</g>
<!-- Node4&#45;&gt;Node5 -->
<g id="edge4" class="edge"><title>Node4&#45;&gt;Node5</title>
<path fill="none" stroke="midnightblue" d="M319.934,-54C334.171,-54 349.527,-54 364.314,-54"/>
<polygon fill="midnightblue" stroke="midnightblue" points="364.441,-57.5001 374.441,-54 364.44,-50.5001 364.441,-57.5001"/>
</g>
<!-- Node6 -->
<g id="node6" class="node"><title>Node6</title>
<g id="a_node6"><a xlink:href="class_robowars_1_1_robot_situation.html#a8082d02e94cff6610c98697d756bf719" target="_top" xlink:title=" ">
<polygon fill="white" stroke="black" points="544,-39 544,-69 673,-69 673,-39 544,-39"/>
<text text-anchor="start" x="552" y="-57" font-family="Helvetica,sans-Serif" font-size="10.00">Robowars.RobotSituation.</text>
<text text-anchor="middle" x="608.5" y="-46" font-family="Helvetica,sans-Serif" font-size="10.00">Ready</text>
</a>
</g>
</g>
<!-- Node5&#45;&gt;Node6 -->
<g id="edge5" class="edge"><title>Node5&#45;&gt;Node6</title>
<path fill="none" stroke="midnightblue" d="M504.589,-54C514.146,-54 524.063,-54 533.8,-54"/>
<polygon fill="midnightblue" stroke="midnightblue" points="533.858,-57.5001 543.858,-54 533.858,-50.5001 533.858,-57.5001"/>
</g>
<!-- Node8 -->
<g id="node8" class="node"><title>Node8</title>
<g id="a_node8"><a xlink:href="class_robowars_1_1_robot.html#a66c7bc63683961a40302828a4b477a28" target="_top" xlink:title="Writes the status of the robot to the console.">
<polygon fill="white" stroke="black" points="380,-0.5 380,-19.5 499,-19.5 499,-0.5 380,-0.5"/>
<text text-anchor="middle" x="439.5" y="-7.5" font-family="Helvetica,sans-Serif" font-size="10.00">Robowars.Robot.Report</text>
</a>
</g>
</g>
<!-- Node7&#45;&gt;Node8 -->
<g id="edge7" class="edge"><title>Node7&#45;&gt;Node8</title>
<path fill="none" stroke="midnightblue" d="M335.183,-11.7364C346.636,-11.5439 358.405,-11.3461 369.712,-11.1561"/>
<polygon fill="midnightblue" stroke="midnightblue" points="370.004,-14.6518 379.943,-10.9841 369.886,-7.65278 370.004,-14.6518"/>
</g>
</g>
</svg>
