<?xml version="1.0" encoding="UTF-8" standalone="no"?>
<!DOCTYPE svg PUBLIC "-//W3C//DTD SVG 1.1//EN"
 "http://www.w3.org/Graphics/SVG/1.1/DTD/svg11.dtd">
<!-- Generated by graphviz version 2.38.0 (20140413.2041)
 -->
<!-- Title: Robowars.Program.Main Pages: 1 -->
<svg width="840pt" height="127pt"
 viewBox="0.00 0.00 840.00 126.50" xmlns="http://www.w3.org/2000/svg" xmlns:xlink="http://www.w3.org/1999/xlink">
<g id="graph0" class="graph" transform="scale(1 1) rotate(0) translate(4 122.5)">
<title>Robowars.Program.Main</title>
<polygon fill="white" stroke="none" points="-4,4 -4,-122.5 836,-122.5 836,4 -4,4"/>
<!-- Node1 -->
<g id="node1" class="node"><title>Node1</title>
<g id="a_node1"><a xlink:title=" ">
<polygon fill="#bfbfbf" stroke="black" points="0,-44.5 0,-63.5 123,-63.5 123,-44.5 0,-44.5"/>
<text text-anchor="middle" x="61.5" y="-51.5" font-family="Helvetica,sans-Serif" font-size="10.00">Robowars.Program.Main</text>
</a>
</g>
</g>
<!-- Node2 -->
<g id="node2" class="node"><title>Node2</title>
<g id="a_node2"><a xlink:href="class_robowars_1_1_contest.html#abf6b758bc8ca3b0a5c8e82d95154014a" target="_top" xlink:title="Shows a menu where the user can select a command to organize and initiate a fight">
<polygon fill="white" stroke="black" points="159,-44.5 159,-63.5 306,-63.5 306,-44.5 159,-44.5"/>
<text text-anchor="middle" x="232.5" y="-51.5" font-family="Helvetica,sans-Serif" font-size="10.00">Robowars.Contest.ShowMenu</text>
</a>
</g>
</g>
<!-- Node1&#45;&gt;Node2 -->
<g id="edge1" class="edge"><title>Node1&#45;&gt;Node2</title>
<path fill="none" stroke="midnightblue" d="M123.036,-54C131.409,-54 140.124,-54 148.814,-54"/>
<polygon fill="midnightblue" stroke="midnightblue" points="148.981,-57.5001 158.981,-54 148.981,-50.5001 148.981,-57.5001"/>
</g>
<!-- Node3 -->
<g id="node3" class="node"><title>Node3</title>
<g id="a_node3"><a xlink:href="class_robowars_1_1_robot_assembler.html#a33adb5edf364767e511a2ca2dbbb6bb3" target="_top" xlink:title="Creates a new robot.">
<polygon fill="white" stroke="black" points="349.5,-85 349.5,-115 486.5,-115 486.5,-85 349.5,-85"/>
<text text-anchor="start" x="357.5" y="-103" font-family="Helvetica,sans-Serif" font-size="10.00">Robowars.RobotAssembler.</text>
<text text-anchor="middle" x="418" y="-92" font-family="Helvetica,sans-Serif" font-size="10.00">AssembleRobot</text>
</a>
</g>
</g>
<!-- Node2&#45;&gt;Node3 -->
<g id="edge2" class="edge"><title>Node2&#45;&gt;Node3</title>
<path fill="none" stroke="midnightblue" d="M271.521,-63.5312C293.396,-69.0149 321.563,-76.0757 347.276,-82.5215"/>
<polygon fill="midnightblue" stroke="midnightblue" points="346.442,-85.9206 356.993,-84.9573 348.144,-79.1307 346.442,-85.9206"/>
</g>
<!-- Node5 -->
<g id="node5" class="node"><title>Node5</title>
<g id="a_node5"><a xlink:href="class_robowars_1_1_contest.html#aa78400fb2b86f1d4b6e963581fb0b3f1" target="_top" xlink:title=" ">
<polygon fill="white" stroke="black" points="357.5,-44.5 357.5,-63.5 478.5,-63.5 478.5,-44.5 357.5,-44.5"/>
<text text-anchor="middle" x="418" y="-51.5" font-family="Helvetica,sans-Serif" font-size="10.00">Robowars.Contest.Fight</text>
</a>
</g>
</g>
<!-- Node2&#45;&gt;Node5 -->
<g id="edge4" class="edge"><title>Node2&#45;&gt;Node5</title>
<path fill="none" stroke="midnightblue" d="M306.024,-54C319.595,-54 333.754,-54 347.239,-54"/>
<polygon fill="midnightblue" stroke="midnightblue" points="347.399,-57.5001 357.399,-54 347.399,-50.5001 347.399,-57.5001"/>
</g>
<!-- Node8 -->
<g id="node8" class="node"><title>Node8</title>
<g id="a_node8"><a xlink:href="class_robowars_1_1_contest.html#aab738c7bae8a47f70118f9a0517551c1" target="_top" xlink:title="Shows the status of the two contestants">
<polygon fill="white" stroke="black" points="342,-3.5 342,-22.5 494,-22.5 494,-3.5 342,-3.5"/>
<text text-anchor="middle" x="418" y="-10.5" font-family="Helvetica,sans-Serif" font-size="10.00">Robowars.Contest.ShowStatus</text>
</a>
</g>
</g>
<!-- Node2&#45;&gt;Node8 -->
<g id="edge7" class="edge"><title>Node2&#45;&gt;Node8</title>
<path fill="none" stroke="midnightblue" d="M276.06,-44.4907C302.368,-38.6126 336.337,-31.0228 364.334,-24.7673"/>
<polygon fill="midnightblue" stroke="midnightblue" points="365.357,-28.1251 374.354,-22.5286 363.831,-21.2935 365.357,-28.1251"/>
</g>
<!-- Node4 -->
<g id="node4" class="node"><title>Node4</title>
<g id="a_node4"><a xlink:href="class_robowars_1_1_robot_assembler.html#a74d4c946e230f19bc4117ef4835e658a" target="_top" xlink:title="Creates weaponry for the robot.">
<polygon fill="white" stroke="black" points="530,-88 530,-118 667,-118 667,-88 530,-88"/>
<text text-anchor="start" x="538" y="-106" font-family="Helvetica,sans-Serif" font-size="10.00">Robowars.RobotAssembler.</text>
<text text-anchor="middle" x="598.5" y="-95" font-family="Helvetica,sans-Serif" font-size="10.00">CreateRobot</text>
</a>
</g>
</g>
<!-- Node3&#45;&gt;Node4 -->
<g id="edge3" class="edge"><title>Node3&#45;&gt;Node4</title>
<path fill="none" stroke="midnightblue" d="M486.738,-101.138C497.536,-101.32 508.78,-101.509 519.787,-101.694"/>
<polygon fill="midnightblue" stroke="midnightblue" points="519.751,-105.194 529.809,-101.862 519.869,-98.1947 519.751,-105.194"/>
</g>
<!-- Node6 -->
<g id="node6" class="node"><title>Node6</title>
<g id="a_node6"><a xlink:href="class_robowars_1_1_robot.html#ae41ce01299fe98b573362be9c76172ee" target="_top" xlink:title=" ">
<polygon fill="white" stroke="black" points="533.5,-39 533.5,-69 663.5,-69 663.5,-39 533.5,-39"/>
<text text-anchor="start" x="541.5" y="-57" font-family="Helvetica,sans-Serif" font-size="10.00">Robowars.Robot.ActivateIf</text>
<text text-anchor="middle" x="598.5" y="-46" font-family="Helvetica,sans-Serif" font-size="10.00">Possible</text>
</a>
</g>
</g>
<!-- Node5&#45;&gt;Node6 -->
<g id="edge5" class="edge"><title>Node5&#45;&gt;Node6</title>
<path fill="none" stroke="midnightblue" d="M478.934,-54C493.171,-54 508.527,-54 523.314,-54"/>
<polygon fill="midnightblue" stroke="midnightblue" points="523.441,-57.5001 533.441,-54 523.44,-50.5001 523.441,-57.5001"/>
</g>
<!-- Node7 -->
<g id="node7" class="node"><title>Node7</title>
<g id="a_node7"><a xlink:href="class_robowars_1_1_robot_situation.html#a8082d02e94cff6610c98697d756bf719" target="_top" xlink:title=" ">
<polygon fill="white" stroke="black" points="703,-39 703,-69 832,-69 832,-39 703,-39"/>
<text text-anchor="start" x="711" y="-57" font-family="Helvetica,sans-Serif" font-size="10.00">Robowars.RobotSituation.</text>
<text text-anchor="middle" x="767.5" y="-46" font-family="Helvetica,sans-Serif" font-size="10.00">Ready</text>
</a>
</g>
</g>
<!-- Node6&#45;&gt;Node7 -->
<g id="edge6" class="edge"><title>Node6&#45;&gt;Node7</title>
<path fill="none" stroke="midnightblue" d="M663.589,-54C673.146,-54 683.063,-54 692.8,-54"/>
<polygon fill="midnightblue" stroke="midnightblue" points="692.858,-57.5001 702.858,-54 692.858,-50.5001 692.858,-57.5001"/>
</g>
<!-- Node9 -->
<g id="node9" class="node"><title>Node9</title>
<g id="a_node9"><a xlink:href="class_robowars_1_1_robot.html#a66c7bc63683961a40302828a4b477a28" target="_top" xlink:title="Writes the status of the robot to the console.">
<polygon fill="white" stroke="black" points="539,-0.5 539,-19.5 658,-19.5 658,-0.5 539,-0.5"/>
<text text-anchor="middle" x="598.5" y="-7.5" font-family="Helvetica,sans-Serif" font-size="10.00">Robowars.Robot.Report</text>
</a>
</g>
</g>
<!-- Node8&#45;&gt;Node9 -->
<g id="edge8" class="edge"><title>Node8&#45;&gt;Node9</title>
<path fill="none" stroke="midnightblue" d="M494.183,-11.7364C505.636,-11.5439 517.405,-11.3461 528.712,-11.1561"/>
<polygon fill="midnightblue" stroke="midnightblue" points="529.004,-14.6518 538.943,-10.9841 528.886,-7.65278 529.004,-14.6518"/>
</g>
</g>
</svg>
