<?xml version="1.0" encoding="UTF-8" standalone="no"?>
<!DOCTYPE svg PUBLIC "-//W3C//DTD SVG 1.1//EN"
 "http://www.w3.org/Graphics/SVG/1.1/DTD/svg11.dtd">
<!-- Generated by graphviz version 2.38.0 (20140413.2041)
 -->
<!-- Title: Robowars.Weapons.FixedDamageBonusWeapon Pages: 1 -->
<svg width="175pt" height="309pt"
 viewBox="0.00 0.00 175.00 309.00" xmlns="http://www.w3.org/2000/svg" xmlns:xlink="http://www.w3.org/1999/xlink">
<g id="graph0" class="graph" transform="scale(1 1) rotate(0) translate(4 305)">
<title>Robowars.Weapons.FixedDamageBonusWeapon</title>
<polygon fill="white" stroke="none" points="-4,4 -4,-305 171,-305 171,4 -4,4"/>
<!-- Node1 -->
<g id="node1" class="node"><title>Node1</title>
<g id="a_node1"><a xlink:title=" ">
<polygon fill="#bfbfbf" stroke="black" points="0,-0.5 0,-90.5 167,-90.5 167,-0.5 0,-0.5"/>
<text text-anchor="start" x="8" y="-78.5" font-family="Helvetica,sans-Serif" font-size="10.00">Robowars.Weapons.FixedDamage</text>
<text text-anchor="middle" x="83.5" y="-67.5" font-family="Helvetica,sans-Serif" font-size="10.00">BonusWeapon</text>
<polyline fill="none" stroke="black" points="0,-60.5 167,-60.5 "/>
<text text-anchor="start" x="8" y="-48.5" font-family="Helvetica,sans-Serif" font-size="10.00">+ PowerDrain</text>
<text text-anchor="start" x="8" y="-37.5" font-family="Helvetica,sans-Serif" font-size="10.00">+ Bonus</text>
<polyline fill="none" stroke="black" points="0,-30.5 167,-30.5 "/>
<text text-anchor="start" x="8" y="-18.5" font-family="Helvetica,sans-Serif" font-size="10.00">+ FixedDamageBonusWeapon()</text>
<text text-anchor="start" x="8" y="-7.5" font-family="Helvetica,sans-Serif" font-size="10.00">+ GetDamage()</text>
</a>
</g>
</g>
<!-- Node2 -->
<g id="node2" class="node"><title>Node2</title>
<g id="a_node2"><a xlink:href="class_robowars_1_1_weapons_1_1_weapon_enhancement.html" target="_top" xlink:title="Represents an enchancement of a Weapon, by transparently wrapping the weapon while also implementing ...">
<polygon fill="white" stroke="black" points="27,-127.5 27,-184.5 140,-184.5 140,-127.5 27,-127.5"/>
<text text-anchor="middle" x="83.5" y="-172.5" font-family="Helvetica,sans-Serif" font-size="10.00">WeaponEnhancement</text>
<polyline fill="none" stroke="black" points="27,-165.5 140,-165.5 "/>
<text text-anchor="start" x="35" y="-153.5" font-family="Helvetica,sans-Serif" font-size="10.00">+ EnhancedWeapon</text>
<polyline fill="none" stroke="black" points="27,-146.5 140,-146.5 "/>
<text text-anchor="start" x="35" y="-134.5" font-family="Helvetica,sans-Serif" font-size="10.00">+ GetDamage()</text>
</a>
</g>
</g>
<!-- Node2&#45;&gt;Node1 -->
<g id="edge1" class="edge"><title>Node2&#45;&gt;Node1</title>
<path fill="none" stroke="midnightblue" d="M83.5,-117.214C83.5,-108.609 83.5,-99.3943 83.5,-90.5541"/>
<polygon fill="none" stroke="midnightblue" points="80.0001,-117.34 83.5,-127.34 87.0001,-117.34 80.0001,-117.34"/>
</g>
<!-- Node3 -->
<g id="node3" class="node"><title>Node3</title>
<g id="a_node3"><a xlink:href="class_robowars_1_1_weapons_1_1_weapon.html" target="_top" xlink:title="Defines a top level interface for a weapon.">
<polygon fill="white" stroke="black" points="42,-221.5 42,-300.5 125,-300.5 125,-221.5 42,-221.5"/>
<text text-anchor="middle" x="83.5" y="-288.5" font-family="Helvetica,sans-Serif" font-size="10.00">Weapon</text>
<polyline fill="none" stroke="black" points="42,-281.5 125,-281.5 "/>
<text text-anchor="start" x="50" y="-269.5" font-family="Helvetica,sans-Serif" font-size="10.00">+ PowerDrain</text>
<text text-anchor="start" x="50" y="-258.5" font-family="Helvetica,sans-Serif" font-size="10.00">+ Name</text>
<text text-anchor="start" x="50" y="-247.5" font-family="Helvetica,sans-Serif" font-size="10.00">+ Damage</text>
<polyline fill="none" stroke="black" points="42,-240.5 125,-240.5 "/>
<text text-anchor="start" x="50" y="-228.5" font-family="Helvetica,sans-Serif" font-size="10.00">+ GetDamage()</text>
</a>
</g>
</g>
<!-- Node3&#45;&gt;Node2 -->
<g id="edge2" class="edge"><title>Node3&#45;&gt;Node2</title>
<path fill="none" stroke="midnightblue" d="M83.5,-211.163C83.5,-202.04 83.5,-192.806 83.5,-184.61"/>
<polygon fill="none" stroke="midnightblue" points="80.0001,-211.354 83.5,-221.354 87.0001,-211.354 80.0001,-211.354"/>
</g>
</g>
</svg>
