<?xml version="1.0" encoding="UTF-8" standalone="no"?>
<!DOCTYPE svg PUBLIC "-//W3C//DTD SVG 1.1//EN"
 "http://www.w3.org/Graphics/SVG/1.1/DTD/svg11.dtd">
<!-- Generated by graphviz version 2.38.0 (20140413.2041)
 -->
<!-- Title: Robowars.WeaponUpgradeSpecifier.WeaponUpgradeSpecifier Pages: 1 -->
<svg width="582pt" height="39pt"
 viewBox="0.00 0.00 582.00 39.00" xmlns="http://www.w3.org/2000/svg" xmlns:xlink="http://www.w3.org/1999/xlink">
<g id="graph0" class="graph" transform="scale(1 1) rotate(0) translate(4 35)">
<title>Robowars.WeaponUpgradeSpecifier.WeaponUpgradeSpecifier</title>
<polygon fill="white" stroke="none" points="-4,4 -4,-35 578,-35 578,4 -4,4"/>
<!-- Node1 -->
<g id="node1" class="node"><title>Node1</title>
<g id="a_node1"><a xlink:title=" ">
<polygon fill="#bfbfbf" stroke="black" points="399,-0.5 399,-30.5 574,-30.5 574,-0.5 399,-0.5"/>
<text text-anchor="start" x="407" y="-18.5" font-family="Helvetica,sans-Serif" font-size="10.00">Robowars.WeaponUpgradeSpecifier.</text>
<text text-anchor="middle" x="486.5" y="-7.5" font-family="Helvetica,sans-Serif" font-size="10.00">WeaponUpgradeSpecifier</text>
</a>
</g>
</g>
<!-- Node2 -->
<g id="node2" class="node"><title>Node2</title>
<g id="a_node2"><a xlink:href="class_robowars_1_1_weapon_upgrade_specifier.html#a29f230583580074b31ea2b8a4c97292f" target="_top" xlink:title=" ">
<polygon fill="white" stroke="black" points="188,-0.5 188,-30.5 363,-30.5 363,-0.5 188,-0.5"/>
<text text-anchor="start" x="196" y="-18.5" font-family="Helvetica,sans-Serif" font-size="10.00">Robowars.WeaponUpgradeSpecifier.</text>
<text text-anchor="middle" x="275.5" y="-7.5" font-family="Helvetica,sans-Serif" font-size="10.00">FromWeapon</text>
</a>
</g>
</g>
<!-- Node1&#45;&gt;Node2 -->
<g id="edge1" class="edge"><title>Node1&#45;&gt;Node2</title>
<path fill="none" stroke="midnightblue" d="M388.973,-15.5C380.406,-15.5 371.768,-15.5 363.289,-15.5"/>
<polygon fill="midnightblue" stroke="midnightblue" points="388.983,-19.0001 398.983,-15.5 388.983,-12.0001 388.983,-19.0001"/>
</g>
<!-- Node3 -->
<g id="node3" class="node"><title>Node3</title>
<g id="a_node3"><a xlink:href="class_robowars_1_1_sky_net.html#a76aa41e68d9b4430628f687c63b32331" target="_top" xlink:title="Creates weaponry for the robot.">
<polygon fill="white" stroke="black" points="0,-6 0,-25 152,-25 152,-6 0,-6"/>
<text text-anchor="middle" x="76" y="-13" font-family="Helvetica,sans-Serif" font-size="10.00">Robowars.SkyNet.CreateRobot</text>
</a>
</g>
</g>
<!-- Node2&#45;&gt;Node3 -->
<g id="edge2" class="edge"><title>Node2&#45;&gt;Node3</title>
<path fill="none" stroke="midnightblue" d="M177.776,-15.5C169.153,-15.5 160.509,-15.5 152.107,-15.5"/>
<polygon fill="midnightblue" stroke="midnightblue" points="177.874,-19.0001 187.874,-15.5 177.874,-12.0001 177.874,-19.0001"/>
</g>
</g>
</svg>
