<?xml version="1.0" encoding="UTF-8" standalone="no"?>
<!DOCTYPE svg PUBLIC "-//W3C//DTD SVG 1.1//EN"
 "http://www.w3.org/Graphics/SVG/1.1/DTD/svg11.dtd">
<!-- Generated by graphviz version 2.38.0 (20140413.2041)
 -->
<!-- Title: Robowars.Robots.RobotSituation Pages: 1 -->
<svg width="446pt" height="397pt"
 viewBox="0.00 0.00 445.50 397.00" xmlns="http://www.w3.org/2000/svg" xmlns:xlink="http://www.w3.org/1999/xlink">
<g id="graph0" class="graph" transform="scale(1 1) rotate(0) translate(4 393)">
<title>Robowars.Robots.RobotSituation</title>
<polygon fill="white" stroke="none" points="-4,4 -4,-393 441.5,-393 441.5,4 -4,4"/>
<!-- Node1 -->
<g id="node1" class="node"><title>Node1</title>
<g id="a_node1"><a xlink:title="Represents a Situation a Robot can be in; Each method is a transition to a different RobotSituation,...">
<polygon fill="#bfbfbf" stroke="black" points="137.5,-254.5 137.5,-388.5 297.5,-388.5 297.5,-254.5 137.5,-254.5"/>
<text text-anchor="middle" x="217.5" y="-376.5" font-family="Helvetica,sans-Serif" font-size="10.00">Robowars.Robots.RobotSituation</text>
<polyline fill="none" stroke="black" points="137.5,-369.5 297.5,-369.5 "/>
<text text-anchor="start" x="145.5" y="-357.5" font-family="Helvetica,sans-Serif" font-size="10.00">+ Description</text>
<text text-anchor="start" x="145.5" y="-346.5" font-family="Helvetica,sans-Serif" font-size="10.00">+ Context</text>
<text text-anchor="start" x="145.5" y="-335.5" font-family="Helvetica,sans-Serif" font-size="10.00">+ Feedback</text>
<polyline fill="none" stroke="black" points="137.5,-328.5 297.5,-328.5 "/>
<text text-anchor="start" x="145.5" y="-316.5" font-family="Helvetica,sans-Serif" font-size="10.00">+ RobotSituation()</text>
<text text-anchor="start" x="145.5" y="-305.5" font-family="Helvetica,sans-Serif" font-size="10.00">+ Ready()</text>
<text text-anchor="start" x="145.5" y="-294.5" font-family="Helvetica,sans-Serif" font-size="10.00">+ Attack()</text>
<text text-anchor="start" x="145.5" y="-283.5" font-family="Helvetica,sans-Serif" font-size="10.00">+ Deactivate()</text>
<text text-anchor="start" x="145.5" y="-272.5" font-family="Helvetica,sans-Serif" font-size="10.00">+ TakeDamage()</text>
<text text-anchor="start" x="145.5" y="-261.5" font-family="Helvetica,sans-Serif" font-size="10.00"># Destroy()</text>
</a>
</g>
</g>
<!-- Node2 -->
<g id="node2" class="node"><title>Node2</title>
<g id="a_node2"><a xlink:href="class_robowars_1_1_robots_1_1_active.html" target="_top" xlink:title="Indicates that the Robot is Active and is ready to perform actions.">
<polygon fill="white" stroke="black" points="7.5,-116.5 7.5,-217.5 129.5,-217.5 129.5,-116.5 7.5,-116.5"/>
<text text-anchor="middle" x="68.5" y="-205.5" font-family="Helvetica,sans-Serif" font-size="10.00">Robowars.Robots.Active</text>
<polyline fill="none" stroke="black" points="7.5,-198.5 129.5,-198.5 "/>
<text text-anchor="middle" x="68.5" y="-186.5" font-family="Helvetica,sans-Serif" font-size="10.00"> </text>
<polyline fill="none" stroke="black" points="7.5,-179.5 129.5,-179.5 "/>
<text text-anchor="start" x="15.5" y="-167.5" font-family="Helvetica,sans-Serif" font-size="10.00">+ Active()</text>
<text text-anchor="start" x="15.5" y="-156.5" font-family="Helvetica,sans-Serif" font-size="10.00">+ Ready()</text>
<text text-anchor="start" x="15.5" y="-145.5" font-family="Helvetica,sans-Serif" font-size="10.00">+ Deactivate()</text>
<text text-anchor="start" x="15.5" y="-134.5" font-family="Helvetica,sans-Serif" font-size="10.00">+ Attack()</text>
<text text-anchor="start" x="15.5" y="-123.5" font-family="Helvetica,sans-Serif" font-size="10.00"># Destroy()</text>
</a>
</g>
</g>
<!-- Node1&#45;&gt;Node2 -->
<g id="edge1" class="edge"><title>Node1&#45;&gt;Node2</title>
<path fill="none" stroke="midnightblue" d="M145.885,-247.202C136.065,-237.153 126.179,-227.034 116.91,-217.547"/>
<polygon fill="none" stroke="midnightblue" points="143.521,-249.792 153.013,-254.498 148.528,-244.9 143.521,-249.792"/>
</g>
<!-- Node4 -->
<g id="node4" class="node"><title>Node4</title>
<g id="a_node4"><a xlink:href="class_robowars_1_1_robots_1_1_destroyed.html" target="_top" xlink:title="Indicates that the Robot has been Destroyed.">
<polygon fill="white" stroke="black" points="147.5,-116.5 147.5,-217.5 287.5,-217.5 287.5,-116.5 147.5,-116.5"/>
<text text-anchor="middle" x="217.5" y="-205.5" font-family="Helvetica,sans-Serif" font-size="10.00">Robowars.Robots.Destroyed</text>
<polyline fill="none" stroke="black" points="147.5,-198.5 287.5,-198.5 "/>
<text text-anchor="middle" x="217.5" y="-186.5" font-family="Helvetica,sans-Serif" font-size="10.00"> </text>
<polyline fill="none" stroke="black" points="147.5,-179.5 287.5,-179.5 "/>
<text text-anchor="start" x="155.5" y="-167.5" font-family="Helvetica,sans-Serif" font-size="10.00">+ Destroyed()</text>
<text text-anchor="start" x="155.5" y="-156.5" font-family="Helvetica,sans-Serif" font-size="10.00">+ Ready()</text>
<text text-anchor="start" x="155.5" y="-145.5" font-family="Helvetica,sans-Serif" font-size="10.00">+ Deactivate()</text>
<text text-anchor="start" x="155.5" y="-134.5" font-family="Helvetica,sans-Serif" font-size="10.00">+ Attack()</text>
<text text-anchor="start" x="155.5" y="-123.5" font-family="Helvetica,sans-Serif" font-size="10.00"># Destroy()</text>
</a>
</g>
</g>
<!-- Node1&#45;&gt;Node4 -->
<g id="edge3" class="edge"><title>Node1&#45;&gt;Node4</title>
<path fill="none" stroke="midnightblue" d="M217.5,-244.274C217.5,-235.194 217.5,-226.113 217.5,-217.547"/>
<polygon fill="none" stroke="midnightblue" points="214,-244.498 217.5,-254.498 221,-244.498 214,-244.498"/>
</g>
<!-- Node5 -->
<g id="node5" class="node"><title>Node5</title>
<g id="a_node5"><a xlink:href="class_robowars_1_1_robots_1_1_standby.html" target="_top" xlink:title="Indicates that the Robot is inactive, on Standby.">
<polygon fill="white" stroke="black" points="305.5,-116.5 305.5,-217.5 437.5,-217.5 437.5,-116.5 305.5,-116.5"/>
<text text-anchor="middle" x="371.5" y="-205.5" font-family="Helvetica,sans-Serif" font-size="10.00">Robowars.Robots.Standby</text>
<polyline fill="none" stroke="black" points="305.5,-198.5 437.5,-198.5 "/>
<text text-anchor="middle" x="371.5" y="-186.5" font-family="Helvetica,sans-Serif" font-size="10.00"> </text>
<polyline fill="none" stroke="black" points="305.5,-179.5 437.5,-179.5 "/>
<text text-anchor="start" x="313.5" y="-167.5" font-family="Helvetica,sans-Serif" font-size="10.00">+ Standby()</text>
<text text-anchor="start" x="313.5" y="-156.5" font-family="Helvetica,sans-Serif" font-size="10.00">+ Ready()</text>
<text text-anchor="start" x="313.5" y="-145.5" font-family="Helvetica,sans-Serif" font-size="10.00">+ Deactivate()</text>
<text text-anchor="start" x="313.5" y="-134.5" font-family="Helvetica,sans-Serif" font-size="10.00">+ Attack()</text>
<text text-anchor="start" x="313.5" y="-123.5" font-family="Helvetica,sans-Serif" font-size="10.00"># Destroy()</text>
</a>
</g>
</g>
<!-- Node1&#45;&gt;Node5 -->
<g id="edge4" class="edge"><title>Node1&#45;&gt;Node5</title>
<path fill="none" stroke="midnightblue" d="M291.519,-247.202C301.667,-237.153 311.885,-227.034 321.466,-217.547"/>
<polygon fill="none" stroke="midnightblue" points="288.794,-244.975 284.151,-254.498 293.719,-249.949 288.794,-244.975"/>
</g>
<!-- Node3 -->
<g id="node3" class="node"><title>Node3</title>
<g id="a_node3"><a xlink:href="class_robowars_1_1_robots_1_1_attacking.html" target="_top" xlink:title="Indicates that the Robot is currently Attacking.">
<polygon fill="white" stroke="black" points="0,-0.5 0,-79.5 137,-79.5 137,-0.5 0,-0.5"/>
<text text-anchor="middle" x="68.5" y="-67.5" font-family="Helvetica,sans-Serif" font-size="10.00">Robowars.Robots.Attacking</text>
<polyline fill="none" stroke="black" points="0,-60.5 137,-60.5 "/>
<text text-anchor="middle" x="68.5" y="-48.5" font-family="Helvetica,sans-Serif" font-size="10.00"> </text>
<polyline fill="none" stroke="black" points="0,-41.5 137,-41.5 "/>
<text text-anchor="start" x="8" y="-29.5" font-family="Helvetica,sans-Serif" font-size="10.00">+ Attacking()</text>
<text text-anchor="start" x="8" y="-18.5" font-family="Helvetica,sans-Serif" font-size="10.00">+ Ready()</text>
<text text-anchor="start" x="8" y="-7.5" font-family="Helvetica,sans-Serif" font-size="10.00">+ Attack()</text>
</a>
</g>
</g>
<!-- Node2&#45;&gt;Node3 -->
<g id="edge2" class="edge"><title>Node2&#45;&gt;Node3</title>
<path fill="none" stroke="midnightblue" d="M68.5,-106.186C68.5,-97.2207 68.5,-88.1815 68.5,-79.8082"/>
<polygon fill="none" stroke="midnightblue" points="65.0001,-106.237 68.5,-116.238 72.0001,-106.238 65.0001,-106.237"/>
</g>
</g>
</svg>
