<?xml version="1.0" encoding="UTF-8" standalone="no"?>
<!DOCTYPE svg PUBLIC "-//W3C//DTD SVG 1.1//EN"
 "http://www.w3.org/Graphics/SVG/1.1/DTD/svg11.dtd">
<!-- Generated by graphviz version 2.38.0 (20140413.2041)
 -->
<!-- Title: Robowars.RobotSituation Pages: 1 -->
<svg width="346pt" height="408pt"
 viewBox="0.00 0.00 346.00 408.00" xmlns="http://www.w3.org/2000/svg" xmlns:xlink="http://www.w3.org/1999/xlink">
<g id="graph0" class="graph" transform="scale(1 1) rotate(0) translate(4 404)">
<title>Robowars.RobotSituation</title>
<polygon fill="white" stroke="none" points="-4,4 -4,-404 342,-404 342,4 -4,4"/>
<!-- Node1 -->
<g id="node1" class="node"><title>Node1</title>
<g id="a_node1"><a xlink:title="Represents a Situation a robot can have; Each method is a transition to a different situation,...">
<polygon fill="#bfbfbf" stroke="black" points="105,-254.5 105,-399.5 231,-399.5 231,-254.5 105,-254.5"/>
<text text-anchor="middle" x="168" y="-387.5" font-family="Helvetica,sans-Serif" font-size="10.00">Robowars.RobotSituation</text>
<polyline fill="none" stroke="black" points="105,-380.5 231,-380.5 "/>
<text text-anchor="start" x="113" y="-368.5" font-family="Helvetica,sans-Serif" font-size="10.00">+ Description</text>
<text text-anchor="start" x="113" y="-357.5" font-family="Helvetica,sans-Serif" font-size="10.00">+ Context</text>
<text text-anchor="start" x="113" y="-346.5" font-family="Helvetica,sans-Serif" font-size="10.00">+ Feedback</text>
<polyline fill="none" stroke="black" points="105,-339.5 231,-339.5 "/>
<text text-anchor="start" x="113" y="-327.5" font-family="Helvetica,sans-Serif" font-size="10.00">+ RobotSituation()</text>
<text text-anchor="start" x="113" y="-316.5" font-family="Helvetica,sans-Serif" font-size="10.00">+ Ready()</text>
<text text-anchor="start" x="113" y="-305.5" font-family="Helvetica,sans-Serif" font-size="10.00">+ Attack()</text>
<text text-anchor="start" x="113" y="-294.5" font-family="Helvetica,sans-Serif" font-size="10.00">+ Deactivate()</text>
<text text-anchor="start" x="113" y="-283.5" font-family="Helvetica,sans-Serif" font-size="10.00">+ TakeDamage()</text>
<text text-anchor="start" x="113" y="-272.5" font-family="Helvetica,sans-Serif" font-size="10.00"># Destroy()</text>
<text text-anchor="start" x="113" y="-261.5" font-family="Helvetica,sans-Serif" font-size="10.00">&#45; RobotSituation()</text>
</a>
</g>
</g>
<!-- Node2 -->
<g id="node2" class="node"><title>Node2</title>
<g id="a_node2"><a xlink:href="class_robowars_1_1_active.html" target="_top" xlink:title=" ">
<polygon fill="white" stroke="black" points="7.5,-116.5 7.5,-217.5 96.5,-217.5 96.5,-116.5 7.5,-116.5"/>
<text text-anchor="middle" x="52" y="-205.5" font-family="Helvetica,sans-Serif" font-size="10.00">Robowars.Active</text>
<polyline fill="none" stroke="black" points="7.5,-198.5 96.5,-198.5 "/>
<text text-anchor="middle" x="52" y="-186.5" font-family="Helvetica,sans-Serif" font-size="10.00"> </text>
<polyline fill="none" stroke="black" points="7.5,-179.5 96.5,-179.5 "/>
<text text-anchor="start" x="15.5" y="-167.5" font-family="Helvetica,sans-Serif" font-size="10.00">+ Active()</text>
<text text-anchor="start" x="15.5" y="-156.5" font-family="Helvetica,sans-Serif" font-size="10.00">+ Ready()</text>
<text text-anchor="start" x="15.5" y="-145.5" font-family="Helvetica,sans-Serif" font-size="10.00">+ Deactivate()</text>
<text text-anchor="start" x="15.5" y="-134.5" font-family="Helvetica,sans-Serif" font-size="10.00">+ Attack()</text>
<text text-anchor="start" x="15.5" y="-123.5" font-family="Helvetica,sans-Serif" font-size="10.00"># Destroy()</text>
</a>
</g>
</g>
<!-- Node1&#45;&gt;Node2 -->
<g id="edge1" class="edge"><title>Node1&#45;&gt;Node2</title>
<path fill="none" stroke="midnightblue" d="M109.434,-246.23C102.288,-236.496 95.1536,-226.778 88.4644,-217.667"/>
<polygon fill="none" stroke="midnightblue" points="106.691,-248.407 115.43,-254.397 112.334,-244.264 106.691,-248.407"/>
</g>
<!-- Node4 -->
<g id="node4" class="node"><title>Node4</title>
<g id="a_node4"><a xlink:href="class_robowars_1_1_destroyed.html" target="_top" xlink:title=" ">
<polygon fill="white" stroke="black" points="114.5,-116.5 114.5,-217.5 221.5,-217.5 221.5,-116.5 114.5,-116.5"/>
<text text-anchor="middle" x="168" y="-205.5" font-family="Helvetica,sans-Serif" font-size="10.00">Robowars.Destroyed</text>
<polyline fill="none" stroke="black" points="114.5,-198.5 221.5,-198.5 "/>
<text text-anchor="middle" x="168" y="-186.5" font-family="Helvetica,sans-Serif" font-size="10.00"> </text>
<polyline fill="none" stroke="black" points="114.5,-179.5 221.5,-179.5 "/>
<text text-anchor="start" x="122.5" y="-167.5" font-family="Helvetica,sans-Serif" font-size="10.00">+ Destroyed()</text>
<text text-anchor="start" x="122.5" y="-156.5" font-family="Helvetica,sans-Serif" font-size="10.00">+ Ready()</text>
<text text-anchor="start" x="122.5" y="-145.5" font-family="Helvetica,sans-Serif" font-size="10.00">+ Deactivate()</text>
<text text-anchor="start" x="122.5" y="-134.5" font-family="Helvetica,sans-Serif" font-size="10.00">+ Attack()</text>
<text text-anchor="start" x="122.5" y="-123.5" font-family="Helvetica,sans-Serif" font-size="10.00"># Destroy()</text>
</a>
</g>
</g>
<!-- Node1&#45;&gt;Node4 -->
<g id="edge3" class="edge"><title>Node1&#45;&gt;Node4</title>
<path fill="none" stroke="midnightblue" d="M168,-244.186C168,-235.139 168,-226.14 168,-217.667"/>
<polygon fill="none" stroke="midnightblue" points="164.5,-244.397 168,-254.397 171.5,-244.397 164.5,-244.397"/>
</g>
<!-- Node5 -->
<g id="node5" class="node"><title>Node5</title>
<g id="a_node5"><a xlink:href="class_robowars_1_1_standby.html" target="_top" xlink:title=" ">
<polygon fill="white" stroke="black" points="240,-116.5 240,-217.5 338,-217.5 338,-116.5 240,-116.5"/>
<text text-anchor="middle" x="289" y="-205.5" font-family="Helvetica,sans-Serif" font-size="10.00">Robowars.Standby</text>
<polyline fill="none" stroke="black" points="240,-198.5 338,-198.5 "/>
<text text-anchor="middle" x="289" y="-186.5" font-family="Helvetica,sans-Serif" font-size="10.00"> </text>
<polyline fill="none" stroke="black" points="240,-179.5 338,-179.5 "/>
<text text-anchor="start" x="248" y="-167.5" font-family="Helvetica,sans-Serif" font-size="10.00">+ Standby()</text>
<text text-anchor="start" x="248" y="-156.5" font-family="Helvetica,sans-Serif" font-size="10.00">+ Ready()</text>
<text text-anchor="start" x="248" y="-145.5" font-family="Helvetica,sans-Serif" font-size="10.00">+ Deactivate()</text>
<text text-anchor="start" x="248" y="-134.5" font-family="Helvetica,sans-Serif" font-size="10.00">+ Attack()</text>
<text text-anchor="start" x="248" y="-123.5" font-family="Helvetica,sans-Serif" font-size="10.00"># Destroy()</text>
</a>
</g>
</g>
<!-- Node1&#45;&gt;Node5 -->
<g id="edge4" class="edge"><title>Node1&#45;&gt;Node5</title>
<path fill="none" stroke="midnightblue" d="M229.09,-246.23C236.544,-236.496 243.986,-226.778 250.964,-217.667"/>
<polygon fill="none" stroke="midnightblue" points="226.137,-244.329 222.836,-254.397 231.694,-248.585 226.137,-244.329"/>
</g>
<!-- Node3 -->
<g id="node3" class="node"><title>Node3</title>
<g id="a_node3"><a xlink:href="class_robowars_1_1_attacking.html" target="_top" xlink:title=" ">
<polygon fill="white" stroke="black" points="0,-0.5 0,-79.5 104,-79.5 104,-0.5 0,-0.5"/>
<text text-anchor="middle" x="52" y="-67.5" font-family="Helvetica,sans-Serif" font-size="10.00">Robowars.Attacking</text>
<polyline fill="none" stroke="black" points="0,-60.5 104,-60.5 "/>
<text text-anchor="middle" x="52" y="-48.5" font-family="Helvetica,sans-Serif" font-size="10.00"> </text>
<polyline fill="none" stroke="black" points="0,-41.5 104,-41.5 "/>
<text text-anchor="start" x="8" y="-29.5" font-family="Helvetica,sans-Serif" font-size="10.00">+ Attacking()</text>
<text text-anchor="start" x="8" y="-18.5" font-family="Helvetica,sans-Serif" font-size="10.00">+ Ready()</text>
<text text-anchor="start" x="8" y="-7.5" font-family="Helvetica,sans-Serif" font-size="10.00">+ Attack()</text>
</a>
</g>
</g>
<!-- Node2&#45;&gt;Node3 -->
<g id="edge2" class="edge"><title>Node2&#45;&gt;Node3</title>
<path fill="none" stroke="midnightblue" d="M52,-106.186C52,-97.2207 52,-88.1815 52,-79.8082"/>
<polygon fill="none" stroke="midnightblue" points="48.5001,-106.237 52,-116.238 55.5001,-106.238 48.5001,-106.237"/>
</g>
</g>
</svg>
