<?xml version="1.0" encoding="UTF-8" standalone="no"?>
<!DOCTYPE svg PUBLIC "-//W3C//DTD SVG 1.1//EN"
 "http://www.w3.org/Graphics/SVG/1.1/DTD/svg11.dtd">
<!-- Generated by graphviz version 2.38.0 (20140413.2041)
 -->
<!-- Title: Robowars.SkyNet Pages: 1 -->
<svg width="176pt" height="216pt"
 viewBox="0.00 0.00 176.00 216.00" xmlns="http://www.w3.org/2000/svg" xmlns:xlink="http://www.w3.org/1999/xlink">
<g id="graph0" class="graph" transform="scale(1 1) rotate(0) translate(4 212)">
<title>Robowars.SkyNet</title>
<polygon fill="white" stroke="none" points="-4,4 -4,-212 172,-212 172,4 -4,4"/>
<!-- Node1 -->
<g id="node1" class="node"><title>Node1</title>
<g id="a_node1"><a xlink:title="Creates terminator robots">
<polygon fill="#bfbfbf" stroke="black" points="0,-0.5 0,-90.5 101,-90.5 101,-0.5 0,-0.5"/>
<text text-anchor="middle" x="50.5" y="-78.5" font-family="Helvetica,sans-Serif" font-size="10.00">Robowars.SkyNet</text>
<polyline fill="none" stroke="black" points="0,-71.5 101,-71.5 "/>
<text text-anchor="start" x="8" y="-59.5" font-family="Helvetica,sans-Serif" font-size="10.00">+ Instance</text>
<text text-anchor="start" x="8" y="-48.5" font-family="Helvetica,sans-Serif" font-size="10.00">&#45; _mark</text>
<polyline fill="none" stroke="black" points="0,-41.5 101,-41.5 "/>
<text text-anchor="start" x="8" y="-29.5" font-family="Helvetica,sans-Serif" font-size="10.00"># CreateWeapons()</text>
<text text-anchor="start" x="8" y="-18.5" font-family="Helvetica,sans-Serif" font-size="10.00"># Name()</text>
<text text-anchor="start" x="8" y="-7.5" font-family="Helvetica,sans-Serif" font-size="10.00">&#45; SkyNet()</text>
</a>
</g>
</g>
<!-- Node1&#45;&gt;Node1 -->
<g id="edge2" class="edge"><title>Node1&#45;&gt;Node1</title>
<path fill="none" stroke="#404040" d="M101.284,-57.0422C111.607,-55.7849 119,-51.9375 119,-45.5 119,-41.9795 116.789,-39.2336 113.097,-37.2623"/>
<polygon fill="none" stroke="#404040" points="112.84,-37.1906 105.984,-39.4263 101.284,-33.9578 108.14,-31.7221 112.84,-37.1906"/>
<text text-anchor="middle" x="143.5" y="-43" font-family="Helvetica,sans-Serif" font-size="10.00"> &#45;_instance</text>
</g>
<!-- Node2 -->
<g id="node2" class="node"><title>Node2</title>
<g id="a_node2"><a xlink:href="class_robowars_1_1_robot_assembler.html" target="_top" xlink:title=" ">
<polygon fill="white" stroke="black" points="0,-128.5 0,-207.5 101,-207.5 101,-128.5 0,-128.5"/>
<text text-anchor="middle" x="50.5" y="-195.5" font-family="Helvetica,sans-Serif" font-size="10.00">RobotAssembler</text>
<polyline fill="none" stroke="black" points="0,-188.5 101,-188.5 "/>
<text text-anchor="middle" x="50.5" y="-176.5" font-family="Helvetica,sans-Serif" font-size="10.00"> </text>
<polyline fill="none" stroke="black" points="0,-169.5 101,-169.5 "/>
<text text-anchor="start" x="8" y="-157.5" font-family="Helvetica,sans-Serif" font-size="10.00">+ AssembleRobot()</text>
<text text-anchor="start" x="8" y="-146.5" font-family="Helvetica,sans-Serif" font-size="10.00"># Name()</text>
<text text-anchor="start" x="8" y="-135.5" font-family="Helvetica,sans-Serif" font-size="10.00"># CreateWeapons()</text>
</a>
</g>
</g>
<!-- Node2&#45;&gt;Node1 -->
<g id="edge1" class="edge"><title>Node2&#45;&gt;Node1</title>
<path fill="none" stroke="midnightblue" d="M50.5,-118.144C50.5,-109.053 50.5,-99.6021 50.5,-90.6615"/>
<polygon fill="none" stroke="midnightblue" points="47.0001,-118.21 50.5,-128.21 54.0001,-118.21 47.0001,-118.21"/>
</g>
</g>
</svg>
