<?xml version="1.0" encoding="UTF-8" standalone="no"?>
<!DOCTYPE svg PUBLIC "-//W3C//DTD SVG 1.1//EN"
 "http://www.w3.org/Graphics/SVG/1.1/DTD/svg11.dtd">
<!-- Generated by graphviz version 2.38.0 (20140413.2041)
 -->
<!-- Title: FixedDamageBonusWeapon.GetDamage Pages: 1 -->
<svg width="484pt" height="39pt"
 viewBox="0.00 0.00 484.00 39.00" xmlns="http://www.w3.org/2000/svg" xmlns:xlink="http://www.w3.org/1999/xlink">
<g id="graph0" class="graph" transform="scale(1 1) rotate(0) translate(4 35)">
<title>FixedDamageBonusWeapon.GetDamage</title>
<polygon fill="white" stroke="none" points="-4,4 -4,-35 480,-35 480,4 -4,4"/>
<!-- Node1 -->
<g id="node1" class="node"><title>Node1</title>
<g id="a_node1"><a xlink:title=" ">
<polygon fill="#bfbfbf" stroke="black" points="0,-0.5 0,-30.5 159,-30.5 159,-0.5 0,-0.5"/>
<text text-anchor="start" x="8" y="-18.5" font-family="Helvetica,sans-Serif" font-size="10.00">FixedDamageBonusWeapon.Get</text>
<text text-anchor="middle" x="79.5" y="-7.5" font-family="Helvetica,sans-Serif" font-size="10.00">Damage</text>
</a>
</g>
</g>
<!-- Node2 -->
<g id="node2" class="node"><title>Node2</title>
<g id="a_node2"><a xlink:href="class_weapon.html#ad704df53ef408c09160d55eb2ea5baf2" target="_top" xlink:title=" ">
<polygon fill="white" stroke="black" points="195,-6 195,-25 302,-25 302,-6 195,-6"/>
<text text-anchor="middle" x="248.5" y="-13" font-family="Helvetica,sans-Serif" font-size="10.00">Weapon.GetDamage</text>
</a>
</g>
</g>
<!-- Node1&#45;&gt;Node2 -->
<g id="edge1" class="edge"><title>Node1&#45;&gt;Node2</title>
<path fill="none" stroke="midnightblue" d="M159.11,-15.5C167.557,-15.5 176.07,-15.5 184.303,-15.5"/>
<polygon fill="midnightblue" stroke="midnightblue" points="184.556,-19.0001 194.556,-15.5 184.556,-12.0001 184.556,-19.0001"/>
</g>
<!-- Node3 -->
<g id="node3" class="node"><title>Node3</title>
<g id="a_node3"><a xlink:href="class_weapon_1_1_damage_rating.html#ac62558ba51c8e83148a3d38317f5d228" target="_top" xlink:title="Gets a new random damage between Min and Max.">
<polygon fill="white" stroke="black" points="338,-6 338,-25 476,-25 476,-6 338,-6"/>
<text text-anchor="middle" x="407" y="-13" font-family="Helvetica,sans-Serif" font-size="10.00">Weapon.DamageRating.Get</text>
</a>
</g>
</g>
<!-- Node2&#45;&gt;Node3 -->
<g id="edge2" class="edge"><title>Node2&#45;&gt;Node3</title>
<path fill="none" stroke="midnightblue" d="M302.048,-15.5C310.281,-15.5 318.941,-15.5 327.604,-15.5"/>
<polygon fill="midnightblue" stroke="midnightblue" points="327.749,-19.0001 337.749,-15.5 327.749,-12.0001 327.749,-19.0001"/>
</g>
</g>
</svg>
