<?xml version="1.0" encoding="UTF-8" standalone="no"?>
<!DOCTYPE svg PUBLIC "-//W3C//DTD SVG 1.1//EN"
 "http://www.w3.org/Graphics/SVG/1.1/DTD/svg11.dtd">
<!-- Generated by graphviz version 2.38.0 (20140413.2041)
 -->
<!-- Title: Robowars.Robot.Destroyed Pages: 1 -->
<svg width="143pt" height="292pt"
 viewBox="0.00 0.00 143.00 292.00" xmlns="http://www.w3.org/2000/svg" xmlns:xlink="http://www.w3.org/1999/xlink">
<g id="graph0" class="graph" transform="scale(1 1) rotate(0) translate(4 288)">
<title>Robowars.Robot.Destroyed</title>
<polygon fill="white" stroke="none" points="-4,4 -4,-288 139,-288 139,4 -4,4"/>
<!-- Node1 -->
<g id="node1" class="node"><title>Node1</title>
<g id="a_node1"><a xlink:title=" ">
<polygon fill="#bfbfbf" stroke="black" points="0,-0.5 0,-101.5 135,-101.5 135,-0.5 0,-0.5"/>
<text text-anchor="middle" x="67.5" y="-89.5" font-family="Helvetica,sans-Serif" font-size="10.00">Robowars.Robot.Destroyed</text>
<polyline fill="none" stroke="black" points="0,-82.5 135,-82.5 "/>
<text text-anchor="middle" x="67.5" y="-70.5" font-family="Helvetica,sans-Serif" font-size="10.00"> </text>
<polyline fill="none" stroke="black" points="0,-63.5 135,-63.5 "/>
<text text-anchor="start" x="8" y="-51.5" font-family="Helvetica,sans-Serif" font-size="10.00">+ Destroyed()</text>
<text text-anchor="start" x="8" y="-40.5" font-family="Helvetica,sans-Serif" font-size="10.00">+ Ready()</text>
<text text-anchor="start" x="8" y="-29.5" font-family="Helvetica,sans-Serif" font-size="10.00">+ Deactivate()</text>
<text text-anchor="start" x="8" y="-18.5" font-family="Helvetica,sans-Serif" font-size="10.00">+ Attack()</text>
<text text-anchor="start" x="8" y="-7.5" font-family="Helvetica,sans-Serif" font-size="10.00"># Destroy()</text>
</a>
</g>
</g>
<!-- Node2 -->
<g id="node2" class="node"><title>Node2</title>
<g id="a_node2"><a xlink:href="class_robowars_1_1_robot_1_1_robot_situation.html" target="_top" xlink:title="Represents a Situation a robot can have; Each method is a transition to a different situation,...">
<polygon fill="white" stroke="black" points="20,-138.5 20,-283.5 115,-283.5 115,-138.5 20,-138.5"/>
<text text-anchor="middle" x="67.5" y="-271.5" font-family="Helvetica,sans-Serif" font-size="10.00">RobotSituation</text>
<polyline fill="none" stroke="black" points="20,-264.5 115,-264.5 "/>
<text text-anchor="start" x="28" y="-252.5" font-family="Helvetica,sans-Serif" font-size="10.00">+ Description</text>
<text text-anchor="start" x="28" y="-241.5" font-family="Helvetica,sans-Serif" font-size="10.00">+ Context</text>
<text text-anchor="start" x="28" y="-230.5" font-family="Helvetica,sans-Serif" font-size="10.00">+ Feedback</text>
<polyline fill="none" stroke="black" points="20,-223.5 115,-223.5 "/>
<text text-anchor="start" x="28" y="-211.5" font-family="Helvetica,sans-Serif" font-size="10.00">+ RobotSituation()</text>
<text text-anchor="start" x="28" y="-200.5" font-family="Helvetica,sans-Serif" font-size="10.00">+ Ready()</text>
<text text-anchor="start" x="28" y="-189.5" font-family="Helvetica,sans-Serif" font-size="10.00">+ Attack()</text>
<text text-anchor="start" x="28" y="-178.5" font-family="Helvetica,sans-Serif" font-size="10.00">+ Deactivate()</text>
<text text-anchor="start" x="28" y="-167.5" font-family="Helvetica,sans-Serif" font-size="10.00">+ TakeDamage()</text>
<text text-anchor="start" x="28" y="-156.5" font-family="Helvetica,sans-Serif" font-size="10.00"># Destroy()</text>
<text text-anchor="start" x="28" y="-145.5" font-family="Helvetica,sans-Serif" font-size="10.00">&#45; RobotSituation()</text>
</a>
</g>
</g>
<!-- Node2&#45;&gt;Node1 -->
<g id="edge1" class="edge"><title>Node2&#45;&gt;Node1</title>
<path fill="none" stroke="midnightblue" d="M67.5,-128.186C67.5,-119.139 67.5,-110.14 67.5,-101.667"/>
<polygon fill="none" stroke="midnightblue" points="64.0001,-128.397 67.5,-138.397 71.0001,-128.397 64.0001,-128.397"/>
</g>
</g>
</svg>
