<?xml version="1.0" encoding="UTF-8" standalone="no"?>
<!DOCTYPE svg PUBLIC "-//W3C//DTD SVG 1.1//EN"
 "http://www.w3.org/Graphics/SVG/1.1/DTD/svg11.dtd">
<!-- Generated by graphviz version 2.38.0 (20140413.2041)
 -->
<!-- Title: Robowars.Contest Pages: 1 -->
<svg width="304pt" height="332pt"
 viewBox="0.00 0.00 303.50 332.00" xmlns="http://www.w3.org/2000/svg" xmlns:xlink="http://www.w3.org/1999/xlink">
<g id="graph0" class="graph" transform="scale(1 1) rotate(0) translate(4 328)">
<title>Robowars.Contest</title>
<polygon fill="white" stroke="none" points="-4,4 -4,-328 299.5,-328 299.5,4 -4,4"/>
<!-- Node1 -->
<g id="node1" class="node"><title>Node1</title>
<g id="a_node1"><a xlink:title="Contains all the information required to organize the Robowars contest">
<polygon fill="#bfbfbf" stroke="black" points="85,-0.5 85,-90.5 181,-90.5 181,-0.5 85,-0.5"/>
<text text-anchor="middle" x="133" y="-78.5" font-family="Helvetica,sans-Serif" font-size="10.00">Robowars.Contest</text>
<polyline fill="none" stroke="black" points="85,-71.5 181,-71.5 "/>
<text text-anchor="start" x="93" y="-59.5" font-family="Helvetica,sans-Serif" font-size="10.00">+ Contestant1</text>
<text text-anchor="start" x="93" y="-48.5" font-family="Helvetica,sans-Serif" font-size="10.00">+ Contestant2</text>
<polyline fill="none" stroke="black" points="85,-41.5 181,-41.5 "/>
<text text-anchor="start" x="93" y="-29.5" font-family="Helvetica,sans-Serif" font-size="10.00">+ ShowStatus()</text>
<text text-anchor="start" x="93" y="-18.5" font-family="Helvetica,sans-Serif" font-size="10.00">+ ShowMenu()</text>
<text text-anchor="start" x="93" y="-7.5" font-family="Helvetica,sans-Serif" font-size="10.00">+ Fight()</text>
</a>
</g>
</g>
<!-- Node2 -->
<g id="node2" class="node"><title>Node2</title>
<g id="a_node2"><a xlink:href="class_robowars_1_1_robot_assembler.html" target="_top" xlink:title="Represents logic regarding how specific robots may be produced.">
<polygon fill="white" stroke="black" points="0,-149.5 0,-217.5 134,-217.5 134,-149.5 0,-149.5"/>
<text text-anchor="middle" x="67" y="-205.5" font-family="Helvetica,sans-Serif" font-size="10.00">Robowars.RobotAssembler</text>
<polyline fill="none" stroke="black" points="0,-198.5 134,-198.5 "/>
<text text-anchor="middle" x="67" y="-186.5" font-family="Helvetica,sans-Serif" font-size="10.00"> </text>
<polyline fill="none" stroke="black" points="0,-179.5 134,-179.5 "/>
<text text-anchor="start" x="8" y="-167.5" font-family="Helvetica,sans-Serif" font-size="10.00">+ AssembleRobot()</text>
<text text-anchor="start" x="8" y="-156.5" font-family="Helvetica,sans-Serif" font-size="10.00"># CreateRobot()</text>
</a>
</g>
</g>
<!-- Node2&#45;&gt;Node1 -->
<g id="edge1" class="edge"><title>Node2&#45;&gt;Node1</title>
<path fill="none" stroke="#404040" d="M76.9519,-149.278C81.2633,-136.427 86.7587,-121.768 93,-109 94.265,-106.412 95.6141,-103.8 97.0231,-101.186"/>
<polygon fill="none" stroke="#404040" points="97.1649,-100.936 96.6489,-93.7438 103.09,-90.5011 103.606,-97.6937 97.1649,-100.936"/>
<text text-anchor="middle" x="135" y="-123" font-family="Helvetica,sans-Serif" font-size="10.00"> +MiningFacility</text>
<text text-anchor="middle" x="135" y="-112" font-family="Helvetica,sans-Serif" font-size="10.00">+TerminatorFacility</text>
</g>
<!-- Node3 -->
<g id="node3" class="node"><title>Node3</title>
<g id="a_node3"><a xlink:href="class_robowars_1_1_mining_robot_maker.html" target="_top" xlink:title="Creates friendly mining robots">
<polygon fill="white" stroke="black" points="152.5,-155 152.5,-212 295.5,-212 295.5,-155 152.5,-155"/>
<text text-anchor="middle" x="224" y="-200" font-family="Helvetica,sans-Serif" font-size="10.00">Robowars.MiningRobotMaker</text>
<polyline fill="none" stroke="black" points="152.5,-193 295.5,-193 "/>
<text text-anchor="middle" x="224" y="-181" font-family="Helvetica,sans-Serif" font-size="10.00"> </text>
<polyline fill="none" stroke="black" points="152.5,-174 295.5,-174 "/>
<text text-anchor="start" x="160.5" y="-162" font-family="Helvetica,sans-Serif" font-size="10.00"># CreateRobot()</text>
</a>
</g>
</g>
<!-- Node3&#45;&gt;Node1 -->
<g id="edge2" class="edge"><title>Node3&#45;&gt;Node1</title>
<path fill="none" stroke="#404040" d="M206.656,-154.738C197.907,-140.899 187.045,-123.965 177,-109 175.19,-106.304 173.325,-103.553 171.43,-100.781"/>
<polygon fill="none" stroke="#404040" points="171.304,-100.597 164.605,-97.9276 164.493,-90.7173 171.192,-93.387 171.304,-100.597"/>
<text text-anchor="middle" x="236.5" y="-117.5" font-family="Helvetica,sans-Serif" font-size="10.00"> &#45;_miningRobotMaker</text>
</g>
<!-- Node4 -->
<g id="node4" class="node"><title>Node4</title>
<g id="a_node4"><a xlink:href="class_robowars_1_1_robot_assembler.html" target="_top" xlink:title="Represents logic regarding how specific robots may be produced.">
<polygon fill="white" stroke="black" points="173.5,-255.5 173.5,-323.5 274.5,-323.5 274.5,-255.5 173.5,-255.5"/>
<text text-anchor="middle" x="224" y="-311.5" font-family="Helvetica,sans-Serif" font-size="10.00">RobotAssembler</text>
<polyline fill="none" stroke="black" points="173.5,-304.5 274.5,-304.5 "/>
<text text-anchor="middle" x="224" y="-292.5" font-family="Helvetica,sans-Serif" font-size="10.00"> </text>
<polyline fill="none" stroke="black" points="173.5,-285.5 274.5,-285.5 "/>
<text text-anchor="start" x="181.5" y="-273.5" font-family="Helvetica,sans-Serif" font-size="10.00">+ AssembleRobot()</text>
<text text-anchor="start" x="181.5" y="-262.5" font-family="Helvetica,sans-Serif" font-size="10.00"># CreateRobot()</text>
</a>
</g>
</g>
<!-- Node4&#45;&gt;Node3 -->
<g id="edge3" class="edge"><title>Node4&#45;&gt;Node3</title>
<path fill="none" stroke="midnightblue" d="M224,-245.247C224,-234.054 224,-222.304 224,-212.154"/>
<polygon fill="none" stroke="midnightblue" points="220.5,-245.308 224,-255.308 227.5,-245.308 220.5,-245.308"/>
</g>
</g>
</svg>
