<?xml version="1.0" encoding="UTF-8" standalone="no"?>
<!DOCTYPE svg PUBLIC "-//W3C//DTD SVG 1.1//EN"
 "http://www.w3.org/Graphics/SVG/1.1/DTD/svg11.dtd">
<!-- Generated by graphviz version 2.38.0 (20140413.2041)
 -->
<!-- Title: Robowars.Program.Main Pages: 1 -->
<svg width="895pt" height="166pt"
 viewBox="0.00 0.00 895.00 165.50" xmlns="http://www.w3.org/2000/svg" xmlns:xlink="http://www.w3.org/1999/xlink">
<g id="graph0" class="graph" transform="scale(1 1) rotate(0) translate(4 161.5)">
<title>Robowars.Program.Main</title>
<polygon fill="white" stroke="none" points="-4,4 -4,-161.5 891,-161.5 891,4 -4,4"/>
<!-- Node1 -->
<g id="node1" class="node"><title>Node1</title>
<g id="a_node1"><a xlink:title=" ">
<polygon fill="#bfbfbf" stroke="black" points="0,-44.5 0,-63.5 123,-63.5 123,-44.5 0,-44.5"/>
<text text-anchor="middle" x="61.5" y="-51.5" font-family="Helvetica,sans-Serif" font-size="10.00">Robowars.Program.Main</text>
</a>
</g>
</g>
<!-- Node2 -->
<g id="node2" class="node"><title>Node2</title>
<g id="a_node2"><a xlink:href="class_robowars_1_1_contest.html#abf6b758bc8ca3b0a5c8e82d95154014a" target="_top" xlink:title="Shows a menu where the user can select a command to organize and initiate a fight">
<polygon fill="white" stroke="black" points="159,-44.5 159,-63.5 306,-63.5 306,-44.5 159,-44.5"/>
<text text-anchor="middle" x="232.5" y="-51.5" font-family="Helvetica,sans-Serif" font-size="10.00">Robowars.Contest.ShowMenu</text>
</a>
</g>
</g>
<!-- Node1&#45;&gt;Node2 -->
<g id="edge1" class="edge"><title>Node1&#45;&gt;Node2</title>
<path fill="none" stroke="midnightblue" d="M123.036,-54C131.409,-54 140.124,-54 148.814,-54"/>
<polygon fill="midnightblue" stroke="midnightblue" points="148.981,-57.5001 158.981,-54 148.981,-50.5001 148.981,-57.5001"/>
</g>
<!-- Node3 -->
<g id="node3" class="node"><title>Node3</title>
<g id="a_node3"><a xlink:href="class_robowars_1_1_robot_assembler.html#a33adb5edf364767e511a2ca2dbbb6bb3" target="_top" xlink:title="Creates a new robot.">
<polygon fill="white" stroke="black" points="349.5,-83 349.5,-113 486.5,-113 486.5,-83 349.5,-83"/>
<text text-anchor="start" x="357.5" y="-101" font-family="Helvetica,sans-Serif" font-size="10.00">Robowars.RobotAssembler.</text>
<text text-anchor="middle" x="418" y="-90" font-family="Helvetica,sans-Serif" font-size="10.00">AssembleRobot</text>
</a>
</g>
</g>
<!-- Node2&#45;&gt;Node3 -->
<g id="edge2" class="edge"><title>Node2&#45;&gt;Node3</title>
<path fill="none" stroke="midnightblue" d="M273.317,-63.5473C294.069,-68.5233 320.106,-74.7666 344.296,-80.5669"/>
<polygon fill="midnightblue" stroke="midnightblue" points="343.63,-84.0064 354.171,-82.9346 345.262,-77.1993 343.63,-84.0064"/>
</g>
<!-- Node6 -->
<g id="node6" class="node"><title>Node6</title>
<g id="a_node6"><a xlink:href="class_robowars_1_1_contest.html#aa78400fb2b86f1d4b6e963581fb0b3f1" target="_top" xlink:title=" ">
<polygon fill="white" stroke="black" points="357.5,-44.5 357.5,-63.5 478.5,-63.5 478.5,-44.5 357.5,-44.5"/>
<text text-anchor="middle" x="418" y="-51.5" font-family="Helvetica,sans-Serif" font-size="10.00">Robowars.Contest.Fight</text>
</a>
</g>
</g>
<!-- Node2&#45;&gt;Node6 -->
<g id="edge5" class="edge"><title>Node2&#45;&gt;Node6</title>
<path fill="none" stroke="midnightblue" d="M306.024,-54C319.595,-54 333.754,-54 347.239,-54"/>
<polygon fill="midnightblue" stroke="midnightblue" points="347.399,-57.5001 357.399,-54 347.399,-50.5001 347.399,-57.5001"/>
</g>
<!-- Node9 -->
<g id="node9" class="node"><title>Node9</title>
<g id="a_node9"><a xlink:href="class_robowars_1_1_contest.html#aab738c7bae8a47f70118f9a0517551c1" target="_top" xlink:title="Shows the status of the two contestants">
<polygon fill="white" stroke="black" points="342,-3.5 342,-22.5 494,-22.5 494,-3.5 342,-3.5"/>
<text text-anchor="middle" x="418" y="-10.5" font-family="Helvetica,sans-Serif" font-size="10.00">Robowars.Contest.ShowStatus</text>
</a>
</g>
</g>
<!-- Node2&#45;&gt;Node9 -->
<g id="edge8" class="edge"><title>Node2&#45;&gt;Node9</title>
<path fill="none" stroke="midnightblue" d="M276.06,-44.4907C302.368,-38.6126 336.337,-31.0228 364.334,-24.7673"/>
<polygon fill="midnightblue" stroke="midnightblue" points="365.357,-28.1251 374.354,-22.5286 363.831,-21.2935 365.357,-28.1251"/>
</g>
<!-- Node4 -->
<g id="node4" class="node"><title>Node4</title>
<g id="a_node4"><a xlink:href="class_robowars_1_1_robot_assembler.html#aad9c5cff1aab535f762950f7a031d51f" target="_top" xlink:title="Creates weaponry for the robot.">
<polygon fill="white" stroke="black" points="543,-127 543,-157 680,-157 680,-127 543,-127"/>
<text text-anchor="start" x="551" y="-145" font-family="Helvetica,sans-Serif" font-size="10.00">Robowars.RobotAssembler.</text>
<text text-anchor="middle" x="611.5" y="-134" font-family="Helvetica,sans-Serif" font-size="10.00">CreateWeapons</text>
</a>
</g>
</g>
<!-- Node3&#45;&gt;Node4 -->
<g id="edge3" class="edge"><title>Node3&#45;&gt;Node4</title>
<path fill="none" stroke="midnightblue" d="M484.368,-113.019C500.762,-116.786 518.482,-120.857 535.312,-124.724"/>
<polygon fill="midnightblue" stroke="midnightblue" points="534.572,-128.146 545.102,-126.974 536.14,-121.323 534.572,-128.146"/>
</g>
<!-- Node5 -->
<g id="node5" class="node"><title>Node5</title>
<g id="a_node5"><a xlink:href="class_robowars_1_1_robot_assembler.html#a0a90cc5b9ffa5c85e299159feb8f2ff4" target="_top" xlink:title="Returns the name for a newly created robot.">
<polygon fill="white" stroke="black" points="530,-88.5 530,-107.5 693,-107.5 693,-88.5 530,-88.5"/>
<text text-anchor="middle" x="611.5" y="-95.5" font-family="Helvetica,sans-Serif" font-size="10.00">Robowars.RobotAssembler.Name</text>
</a>
</g>
</g>
<!-- Node3&#45;&gt;Node5 -->
<g id="edge4" class="edge"><title>Node3&#45;&gt;Node5</title>
<path fill="none" stroke="midnightblue" d="M486.516,-98C497.234,-98 508.47,-98 519.618,-98"/>
<polygon fill="midnightblue" stroke="midnightblue" points="519.814,-101.5 529.814,-98 519.814,-94.5001 519.814,-101.5"/>
</g>
<!-- Node7 -->
<g id="node7" class="node"><title>Node7</title>
<g id="a_node7"><a xlink:href="class_robowars_1_1_robot.html#ae41ce01299fe98b573362be9c76172ee" target="_top" xlink:title=" ">
<polygon fill="white" stroke="black" points="546.5,-39 546.5,-69 676.5,-69 676.5,-39 546.5,-39"/>
<text text-anchor="start" x="554.5" y="-57" font-family="Helvetica,sans-Serif" font-size="10.00">Robowars.Robot.ActivateIf</text>
<text text-anchor="middle" x="611.5" y="-46" font-family="Helvetica,sans-Serif" font-size="10.00">Possible</text>
</a>
</g>
</g>
<!-- Node6&#45;&gt;Node7 -->
<g id="edge6" class="edge"><title>Node6&#45;&gt;Node7</title>
<path fill="none" stroke="midnightblue" d="M478.542,-54C496.784,-54 517.081,-54 536.18,-54"/>
<polygon fill="midnightblue" stroke="midnightblue" points="536.342,-57.5001 546.342,-54 536.342,-50.5001 536.342,-57.5001"/>
</g>
<!-- Node8 -->
<g id="node8" class="node"><title>Node8</title>
<g id="a_node8"><a xlink:href="class_robowars_1_1_robot_1_1_robot_situation.html#a432be630bd8891af2e1afd4bac43793c" target="_top" xlink:title=" ">
<polygon fill="white" stroke="black" points="729,-39 729,-69 887,-69 887,-39 729,-39"/>
<text text-anchor="start" x="737" y="-57" font-family="Helvetica,sans-Serif" font-size="10.00">Robowars.Robot.RobotSituation.</text>
<text text-anchor="middle" x="808" y="-46" font-family="Helvetica,sans-Serif" font-size="10.00">Ready</text>
</a>
</g>
</g>
<!-- Node7&#45;&gt;Node8 -->
<g id="edge7" class="edge"><title>Node7&#45;&gt;Node8</title>
<path fill="none" stroke="midnightblue" d="M676.726,-54C690.171,-54 704.571,-54 718.717,-54"/>
<polygon fill="midnightblue" stroke="midnightblue" points="718.954,-57.5001 728.954,-54 718.954,-50.5001 718.954,-57.5001"/>
</g>
<!-- Node10 -->
<g id="node10" class="node"><title>Node10</title>
<g id="a_node10"><a xlink:href="class_robowars_1_1_robot.html#a8f6dfbc39f615d923e0357c52c75599d" target="_top" xlink:title=" ">
<polygon fill="white" stroke="black" points="552,-0.5 552,-19.5 671,-19.5 671,-0.5 552,-0.5"/>
<text text-anchor="middle" x="611.5" y="-7.5" font-family="Helvetica,sans-Serif" font-size="10.00">Robowars.Robot.Report</text>
</a>
</g>
</g>
<!-- Node9&#45;&gt;Node10 -->
<g id="edge9" class="edge"><title>Node9&#45;&gt;Node10</title>
<path fill="none" stroke="midnightblue" d="M494.136,-11.8229C509.866,-11.5765 526.375,-11.3179 541.855,-11.0754"/>
<polygon fill="midnightblue" stroke="midnightblue" points="541.916,-14.575 551.859,-10.9187 541.806,-7.57582 541.916,-14.575"/>
</g>
</g>
</svg>
