<?xml version="1.0" encoding="UTF-8" standalone="no"?>
<!DOCTYPE svg PUBLIC "-//W3C//DTD SVG 1.1//EN"
 "http://www.w3.org/Graphics/SVG/1.1/DTD/svg11.dtd">
<!-- Generated by graphviz version 2.38.0 (20140413.2041)
 -->
<!-- Title: Robowars.Robot.Attack Pages: 1 -->
<svg width="641pt" height="132pt"
 viewBox="0.00 0.00 641.00 132.00" xmlns="http://www.w3.org/2000/svg" xmlns:xlink="http://www.w3.org/1999/xlink">
<g id="graph0" class="graph" transform="scale(1 1) rotate(0) translate(4 128)">
<title>Robowars.Robot.Attack</title>
<polygon fill="white" stroke="none" points="-4,4 -4,-128 637,-128 637,4 -4,4"/>
<!-- Node1 -->
<g id="node1" class="node"><title>Node1</title>
<g id="a_node1"><a xlink:title="Robot attacks the other robot with a random weapon, if the situation allows.">
<polygon fill="#bfbfbf" stroke="black" points="0,-50 0,-69 119,-69 119,-50 0,-50"/>
<text text-anchor="middle" x="59.5" y="-57" font-family="Helvetica,sans-Serif" font-size="10.00">Robowars.Robot.Attack</text>
</a>
</g>
</g>
<!-- Node2 -->
<g id="node2" class="node"><title>Node2</title>
<g id="a_node2"><a xlink:href="class_robowars_1_1_robot_situation.html#aa328a18c2d4420ecb19e165ffedf3a02" target="_top" xlink:title=" ">
<polygon fill="white" stroke="black" points="164.5,-93.5 164.5,-123.5 293.5,-123.5 293.5,-93.5 164.5,-93.5"/>
<text text-anchor="start" x="172.5" y="-111.5" font-family="Helvetica,sans-Serif" font-size="10.00">Robowars.RobotSituation.</text>
<text text-anchor="middle" x="229" y="-100.5" font-family="Helvetica,sans-Serif" font-size="10.00">Attack</text>
</a>
</g>
</g>
<!-- Node1&#45;&gt;Node2 -->
<g id="edge1" class="edge"><title>Node1&#45;&gt;Node2</title>
<path fill="none" stroke="midnightblue" d="M93.1933,-69.064C114.122,-75.1863 141.928,-83.3208 166.849,-90.6111"/>
<polygon fill="midnightblue" stroke="midnightblue" points="166.018,-94.0145 176.598,-93.463 167.983,-87.2961 166.018,-94.0145"/>
</g>
<!-- Node3 -->
<g id="node3" class="node"><title>Node3</title>
<g id="a_node3"><a xlink:href="class_robowars_1_1_robot_situation.html#a0d950df88072b5d676cad290c764f0fb" target="_top" xlink:title=" ">
<polygon fill="white" stroke="black" points="164.5,-44.5 164.5,-74.5 293.5,-74.5 293.5,-44.5 164.5,-44.5"/>
<text text-anchor="start" x="172.5" y="-62.5" font-family="Helvetica,sans-Serif" font-size="10.00">Robowars.RobotSituation.</text>
<text text-anchor="middle" x="229" y="-51.5" font-family="Helvetica,sans-Serif" font-size="10.00">Deactivate</text>
</a>
</g>
</g>
<!-- Node1&#45;&gt;Node3 -->
<g id="edge2" class="edge"><title>Node1&#45;&gt;Node3</title>
<path fill="none" stroke="midnightblue" d="M119.083,-59.5C130.393,-59.5 142.378,-59.5 154.102,-59.5"/>
<polygon fill="midnightblue" stroke="midnightblue" points="154.313,-63.0001 164.313,-59.5 154.313,-56.0001 154.313,-63.0001"/>
</g>
<!-- Node4 -->
<g id="node4" class="node"><title>Node4</title>
<g id="a_node4"><a xlink:href="class_robowars_1_1_robot.html#a9cbd51f30a41c882ad9fd152a13646e9" target="_top" xlink:title=" ">
<polygon fill="white" stroke="black" points="155,-6 155,-25 303,-25 303,-6 155,-6"/>
<text text-anchor="middle" x="229" y="-13" font-family="Helvetica,sans-Serif" font-size="10.00">Robowars.Robot.TakeDamage</text>
</a>
</g>
</g>
<!-- Node1&#45;&gt;Node4 -->
<g id="edge3" class="edge"><title>Node1&#45;&gt;Node4</title>
<path fill="none" stroke="midnightblue" d="M96.845,-49.9527C121.758,-43.4084 155.015,-34.6722 181.806,-27.6346"/>
<polygon fill="midnightblue" stroke="midnightblue" points="182.943,-30.9546 191.726,-25.0287 181.165,-24.1843 182.943,-30.9546"/>
</g>
<!-- Node5 -->
<g id="node5" class="node"><title>Node5</title>
<g id="a_node5"><a xlink:href="class_robowars_1_1_robot_situation.html#a8ac2050f72285d2b8db5f58259af3d74" target="_top" xlink:title=" ">
<polygon fill="white" stroke="black" points="339,-0.5 339,-30.5 468,-30.5 468,-0.5 339,-0.5"/>
<text text-anchor="start" x="347" y="-18.5" font-family="Helvetica,sans-Serif" font-size="10.00">Robowars.RobotSituation.</text>
<text text-anchor="middle" x="403.5" y="-7.5" font-family="Helvetica,sans-Serif" font-size="10.00">TakeDamage</text>
</a>
</g>
</g>
<!-- Node4&#45;&gt;Node5 -->
<g id="edge4" class="edge"><title>Node4&#45;&gt;Node5</title>
<path fill="none" stroke="midnightblue" d="M303.156,-15.5C311.577,-15.5 320.169,-15.5 328.6,-15.5"/>
<polygon fill="midnightblue" stroke="midnightblue" points="328.782,-19.0001 338.782,-15.5 328.782,-12.0001 328.782,-19.0001"/>
</g>
<!-- Node6 -->
<g id="node6" class="node"><title>Node6</title>
<g id="a_node6"><a xlink:href="class_robowars_1_1_robot_situation.html#aa702ed730d928697a087a37a99ef28be" target="_top" xlink:title=" ">
<polygon fill="white" stroke="black" points="504,-0.5 504,-30.5 633,-30.5 633,-0.5 504,-0.5"/>
<text text-anchor="start" x="512" y="-18.5" font-family="Helvetica,sans-Serif" font-size="10.00">Robowars.RobotSituation.</text>
<text text-anchor="middle" x="568.5" y="-7.5" font-family="Helvetica,sans-Serif" font-size="10.00">Destroy</text>
</a>
</g>
</g>
<!-- Node5&#45;&gt;Node6 -->
<g id="edge5" class="edge"><title>Node5&#45;&gt;Node6</title>
<path fill="none" stroke="midnightblue" d="M468.454,-15.5C476.761,-15.5 485.322,-15.5 493.772,-15.5"/>
<polygon fill="midnightblue" stroke="midnightblue" points="493.998,-19.0001 503.998,-15.5 493.998,-12.0001 493.998,-19.0001"/>
</g>
</g>
</svg>
