<?xml version="1.0" encoding="UTF-8" standalone="no"?>
<!DOCTYPE svg PUBLIC "-//W3C//DTD SVG 1.1//EN"
 "http://www.w3.org/Graphics/SVG/1.1/DTD/svg11.dtd">
<!-- Generated by graphviz version 2.38.0 (20140413.2041)
 -->
<!-- Title: SkyNet Pages: 1 -->
<svg width="168pt" height="194pt"
 viewBox="0.00 0.00 168.00 194.00" xmlns="http://www.w3.org/2000/svg" xmlns:xlink="http://www.w3.org/1999/xlink">
<g id="graph0" class="graph" transform="scale(1 1) rotate(0) translate(4 190)">
<title>SkyNet</title>
<polygon fill="white" stroke="none" points="-4,4 -4,-190 164,-190 164,4 -4,4"/>
<!-- Node1 -->
<g id="node1" class="node"><title>Node1</title>
<g id="a_node1"><a xlink:title="Creates terminator robots">
<polygon fill="#bfbfbf" stroke="black" points="8,-0.5 8,-79.5 93,-79.5 93,-0.5 8,-0.5"/>
<text text-anchor="middle" x="50.5" y="-67.5" font-family="Helvetica,sans-Serif" font-size="10.00">SkyNet</text>
<polyline fill="none" stroke="black" points="8,-60.5 93,-60.5 "/>
<text text-anchor="start" x="16" y="-48.5" font-family="Helvetica,sans-Serif" font-size="10.00">+ Instance</text>
<text text-anchor="start" x="16" y="-37.5" font-family="Helvetica,sans-Serif" font-size="10.00">&#45; _mark</text>
<polyline fill="none" stroke="black" points="8,-30.5 93,-30.5 "/>
<text text-anchor="start" x="16" y="-18.5" font-family="Helvetica,sans-Serif" font-size="10.00"># CreateRobot()</text>
<text text-anchor="start" x="16" y="-7.5" font-family="Helvetica,sans-Serif" font-size="10.00">&#45; SkyNet()</text>
</a>
</g>
</g>
<!-- Node1&#45;&gt;Node1 -->
<g id="edge2" class="edge"><title>Node1&#45;&gt;Node1</title>
<path fill="none" stroke="#404040" d="M93.1834,-50.6832C103.417,-49.8482 111,-46.2871 111,-40 111,-36.5617 108.732,-33.9388 105.003,-32.1311"/>
<polygon fill="none" stroke="#404040" points="104.857,-32.0963 98.0937,-34.5978 93.1834,-29.3168 99.9467,-26.8154 104.857,-32.0963"/>
<text text-anchor="middle" x="135.5" y="-37.5" font-family="Helvetica,sans-Serif" font-size="10.00"> &#45;_instance</text>
</g>
<!-- Node2 -->
<g id="node2" class="node"><title>Node2</title>
<g id="a_node2"><a xlink:href="class_robot_assembler.html" target="_top" xlink:title="Represents logic regarding how specific robots may be produced.">
<polygon fill="white" stroke="black" points="0,-117.5 0,-185.5 101,-185.5 101,-117.5 0,-117.5"/>
<text text-anchor="middle" x="50.5" y="-173.5" font-family="Helvetica,sans-Serif" font-size="10.00">RobotAssembler</text>
<polyline fill="none" stroke="black" points="0,-166.5 101,-166.5 "/>
<text text-anchor="middle" x="50.5" y="-154.5" font-family="Helvetica,sans-Serif" font-size="10.00"> </text>
<polyline fill="none" stroke="black" points="0,-147.5 101,-147.5 "/>
<text text-anchor="start" x="8" y="-135.5" font-family="Helvetica,sans-Serif" font-size="10.00">+ AssembleRobot()</text>
<text text-anchor="start" x="8" y="-124.5" font-family="Helvetica,sans-Serif" font-size="10.00"># CreateRobot()</text>
</a>
</g>
</g>
<!-- Node2&#45;&gt;Node1 -->
<g id="edge1" class="edge"><title>Node2&#45;&gt;Node1</title>
<path fill="none" stroke="midnightblue" d="M50.5,-107.339C50.5,-98.2542 50.5,-88.7235 50.5,-79.8103"/>
<polygon fill="none" stroke="midnightblue" points="47.0001,-107.349 50.5,-117.349 54.0001,-107.349 47.0001,-107.349"/>
</g>
</g>
</svg>
