<?xml version="1.0" encoding="UTF-8" standalone="no"?>
<!DOCTYPE svg PUBLIC "-//W3C//DTD SVG 1.1//EN"
 "http://www.w3.org/Graphics/SVG/1.1/DTD/svg11.dtd">
<!-- Generated by graphviz version 2.38.0 (20140413.2041)
 -->
<!-- Title: Weapon.DamageRating.Get Pages: 1 -->
<svg width="492pt" height="78pt"
 viewBox="0.00 0.00 492.00 77.50" xmlns="http://www.w3.org/2000/svg" xmlns:xlink="http://www.w3.org/1999/xlink">
<g id="graph0" class="graph" transform="scale(1 1) rotate(0) translate(4 73.5)">
<title>Weapon.DamageRating.Get</title>
<polygon fill="white" stroke="none" points="-4,4 -4,-73.5 488,-73.5 488,4 -4,4"/>
<!-- Node1 -->
<g id="node1" class="node"><title>Node1</title>
<g id="a_node1"><a xlink:title="Gets a new random damage between Min and Max.">
<polygon fill="#bfbfbf" stroke="black" points="346,-28 346,-47 484,-47 484,-28 346,-28"/>
<text text-anchor="middle" x="415" y="-35" font-family="Helvetica,sans-Serif" font-size="10.00">Weapon.DamageRating.Get</text>
</a>
</g>
</g>
<!-- Node2 -->
<g id="node2" class="node"><title>Node2</title>
<g id="a_node2"><a xlink:href="class_weapon.html#ad704df53ef408c09160d55eb2ea5baf2" target="_top" xlink:title=" ">
<polygon fill="white" stroke="black" points="203,-28 203,-47 310,-47 310,-28 203,-28"/>
<text text-anchor="middle" x="256.5" y="-35" font-family="Helvetica,sans-Serif" font-size="10.00">Weapon.GetDamage</text>
</a>
</g>
</g>
<!-- Node1&#45;&gt;Node2 -->
<g id="edge1" class="edge"><title>Node1&#45;&gt;Node2</title>
<path fill="none" stroke="midnightblue" d="M335.754,-37.5C327.166,-37.5 318.577,-37.5 310.402,-37.5"/>
<polygon fill="midnightblue" stroke="midnightblue" points="335.812,-41.0001 345.812,-37.5 335.812,-34.0001 335.812,-41.0001"/>
</g>
<!-- Node3 -->
<g id="node3" class="node"><title>Node3</title>
<g id="a_node3"><a xlink:href="class_weapon_enhancement.html#a05d50c87819bda93c3a041181e993dd0" target="_top" xlink:title=" ">
<polygon fill="white" stroke="black" points="0,-50 0,-69 167,-69 167,-50 0,-50"/>
<text text-anchor="middle" x="83.5" y="-57" font-family="Helvetica,sans-Serif" font-size="10.00">WeaponEnhancement.GetDamage</text>
</a>
</g>
</g>
<!-- Node2&#45;&gt;Node3 -->
<g id="edge2" class="edge"><title>Node2&#45;&gt;Node3</title>
<path fill="none" stroke="midnightblue" d="M192.727,-45.576C181.563,-47.0123 169.842,-48.5203 158.403,-49.992"/>
<polygon fill="midnightblue" stroke="midnightblue" points="193.327,-49.0277 202.799,-44.2802 192.434,-42.085 193.327,-49.0277"/>
</g>
<!-- Node4 -->
<g id="node4" class="node"><title>Node4</title>
<g id="a_node4"><a xlink:href="class_fixed_damage_bonus_weapon.html#a7ad975c598955733f4278e90538329db" target="_top" xlink:title=" ">
<polygon fill="white" stroke="black" points="4,-0.5 4,-30.5 163,-30.5 163,-0.5 4,-0.5"/>
<text text-anchor="start" x="12" y="-18.5" font-family="Helvetica,sans-Serif" font-size="10.00">FixedDamageBonusWeapon.Get</text>
<text text-anchor="middle" x="83.5" y="-7.5" font-family="Helvetica,sans-Serif" font-size="10.00">Damage</text>
</a>
</g>
</g>
<!-- Node2&#45;&gt;Node4 -->
<g id="edge3" class="edge"><title>Node2&#45;&gt;Node4</title>
<path fill="none" stroke="midnightblue" d="M192.579,-29.4049C182.99,-28.1712 172.992,-26.885 163.118,-25.6146"/>
<polygon fill="midnightblue" stroke="midnightblue" points="192.434,-32.915 202.799,-30.7198 193.327,-25.9723 192.434,-32.915"/>
</g>
</g>
</svg>
