<?xml version="1.0" encoding="UTF-8" standalone="no"?>
<!DOCTYPE svg PUBLIC "-//W3C//DTD SVG 1.1//EN"
 "http://www.w3.org/Graphics/SVG/1.1/DTD/svg11.dtd">
<!-- Generated by graphviz version 2.38.0 (20140413.2041)
 -->
<!-- Title: Robowars.Weapons.WeaponEnhancement Pages: 1 -->
<svg width="211pt" height="182pt"
 viewBox="0.00 0.00 211.00 182.00" xmlns="http://www.w3.org/2000/svg" xmlns:xlink="http://www.w3.org/1999/xlink">
<g id="graph0" class="graph" transform="scale(1 1) rotate(0) translate(4 178)">
<title>Robowars.Weapons.WeaponEnhancement</title>
<polygon fill="white" stroke="none" points="-4,4 -4,-178 207,-178 207,4 -4,4"/>
<!-- Node1 -->
<g id="node1" class="node"><title>Node1</title>
<g id="a_node1"><a xlink:title="Represents an enchancement of a Weapon, by transparently wrapping the weapon while also implementing ...">
<polygon fill="#bfbfbf" stroke="black" points="0,-0.5 0,-57.5 203,-57.5 203,-0.5 0,-0.5"/>
<text text-anchor="middle" x="101.5" y="-45.5" font-family="Helvetica,sans-Serif" font-size="10.00">Robowars.Weapons.WeaponEnhancement</text>
<polyline fill="none" stroke="black" points="0,-38.5 203,-38.5 "/>
<text text-anchor="start" x="8" y="-26.5" font-family="Helvetica,sans-Serif" font-size="10.00">+ EnhancedWeapon</text>
<polyline fill="none" stroke="black" points="0,-19.5 203,-19.5 "/>
<text text-anchor="start" x="8" y="-7.5" font-family="Helvetica,sans-Serif" font-size="10.00">+ GetDamage()</text>
</a>
</g>
</g>
<!-- Node2 -->
<g id="node2" class="node"><title>Node2</title>
<g id="a_node2"><a xlink:href="class_robowars_1_1_weapons_1_1_weapon.html" target="_top" xlink:title="Defines a top level interface for a weapon.">
<polygon fill="white" stroke="black" points="60,-94.5 60,-173.5 143,-173.5 143,-94.5 60,-94.5"/>
<text text-anchor="middle" x="101.5" y="-161.5" font-family="Helvetica,sans-Serif" font-size="10.00">Weapon</text>
<polyline fill="none" stroke="black" points="60,-154.5 143,-154.5 "/>
<text text-anchor="start" x="68" y="-142.5" font-family="Helvetica,sans-Serif" font-size="10.00">+ PowerDrain</text>
<text text-anchor="start" x="68" y="-131.5" font-family="Helvetica,sans-Serif" font-size="10.00">+ Name</text>
<text text-anchor="start" x="68" y="-120.5" font-family="Helvetica,sans-Serif" font-size="10.00">+ Damage</text>
<polyline fill="none" stroke="black" points="60,-113.5 143,-113.5 "/>
<text text-anchor="start" x="68" y="-101.5" font-family="Helvetica,sans-Serif" font-size="10.00">+ GetDamage()</text>
</a>
</g>
</g>
<!-- Node2&#45;&gt;Node1 -->
<g id="edge1" class="edge"><title>Node2&#45;&gt;Node1</title>
<path fill="none" stroke="midnightblue" d="M101.5,-84.1628C101.5,-75.0404 101.5,-65.8063 101.5,-57.6095"/>
<polygon fill="none" stroke="midnightblue" points="98.0001,-84.3535 101.5,-94.3536 105,-84.3536 98.0001,-84.3535"/>
</g>
</g>
</svg>
