<?xml version="1.0" encoding="UTF-8" standalone="no"?>
<!DOCTYPE svg PUBLIC "-//W3C//DTD SVG 1.1//EN"
 "http://www.w3.org/Graphics/SVG/1.1/DTD/svg11.dtd">
<!-- Generated by graphviz version 2.38.0 (20140413.2041)
 -->
<!-- Title: SkyNet Pages: 1 -->
<svg width="109pt" height="204pt"
 viewBox="0.00 0.00 109.00 204.00" xmlns="http://www.w3.org/2000/svg" xmlns:xlink="http://www.w3.org/1999/xlink">
<g id="graph0" class="graph" transform="scale(1 1) rotate(0) translate(4 200)">
<title>SkyNet</title>
<polygon fill="white" stroke="none" points="-4,4 -4,-200 105,-200 105,4 -4,4"/>
<!-- Node1 -->
<g id="node1" class="node"><title>Node1</title>
<g id="a_node1"><a xlink:title="Creates terminator robots">
<polygon fill="#bfbfbf" stroke="black" points="8,-0.5 8,-90.5 93,-90.5 93,-0.5 8,-0.5"/>
<text text-anchor="middle" x="50.5" y="-78.5" font-family="Helvetica,sans-Serif" font-size="10.00">SkyNet</text>
<polyline fill="none" stroke="black" points="8,-71.5 93,-71.5 "/>
<text text-anchor="start" x="16" y="-59.5" font-family="Helvetica,sans-Serif" font-size="10.00">+ Instance</text>
<text text-anchor="start" x="16" y="-48.5" font-family="Helvetica,sans-Serif" font-size="10.00">&#45; _mark</text>
<text text-anchor="start" x="16" y="-37.5" font-family="Helvetica,sans-Serif" font-size="10.00">&#45; _instance</text>
<polyline fill="none" stroke="black" points="8,-30.5 93,-30.5 "/>
<text text-anchor="start" x="16" y="-18.5" font-family="Helvetica,sans-Serif" font-size="10.00"># CreateRobot()</text>
<text text-anchor="start" x="16" y="-7.5" font-family="Helvetica,sans-Serif" font-size="10.00">&#45; SkyNet()</text>
</a>
</g>
</g>
<!-- Node2 -->
<g id="node2" class="node"><title>Node2</title>
<g id="a_node2"><a xlink:href="class_robot_assembler.html" target="_top" xlink:title="Represents logic regarding how specific robots may be produced.">
<polygon fill="white" stroke="black" points="0,-127.5 0,-195.5 101,-195.5 101,-127.5 0,-127.5"/>
<text text-anchor="middle" x="50.5" y="-183.5" font-family="Helvetica,sans-Serif" font-size="10.00">RobotAssembler</text>
<polyline fill="none" stroke="black" points="0,-176.5 101,-176.5 "/>
<text text-anchor="middle" x="50.5" y="-164.5" font-family="Helvetica,sans-Serif" font-size="10.00"> </text>
<polyline fill="none" stroke="black" points="0,-157.5 101,-157.5 "/>
<text text-anchor="start" x="8" y="-145.5" font-family="Helvetica,sans-Serif" font-size="10.00">+ AssembleRobot()</text>
<text text-anchor="start" x="8" y="-134.5" font-family="Helvetica,sans-Serif" font-size="10.00"># CreateRobot()</text>
</a>
</g>
</g>
<!-- Node2&#45;&gt;Node1 -->
<g id="edge1" class="edge"><title>Node2&#45;&gt;Node1</title>
<path fill="none" stroke="midnightblue" d="M50.5,-116.972C50.5,-108.346 50.5,-99.2838 50.5,-90.6378"/>
<polygon fill="none" stroke="midnightblue" points="47.0001,-117.22 50.5,-127.22 54.0001,-117.22 47.0001,-117.22"/>
</g>
</g>
</svg>
