<?xml version="1.0" encoding="UTF-8" standalone="no"?>
<!DOCTYPE svg PUBLIC "-//W3C//DTD SVG 1.1//EN"
 "http://www.w3.org/Graphics/SVG/1.1/DTD/svg11.dtd">
<!-- Generated by graphviz version 2.38.0 (20140413.2041)
 -->
<!-- Title: Robowars.Weapons.Weapon Pages: 1 -->
<svg width="606pt" height="309pt"
 viewBox="0.00 0.00 606.00 309.00" xmlns="http://www.w3.org/2000/svg" xmlns:xlink="http://www.w3.org/1999/xlink">
<g id="graph0" class="graph" transform="scale(1 1) rotate(0) translate(4 305)">
<title>Robowars.Weapons.Weapon</title>
<polygon fill="white" stroke="none" points="-4,4 -4,-305 602,-305 602,4 -4,4"/>
<!-- Node1 -->
<g id="node1" class="node"><title>Node1</title>
<g id="a_node1"><a xlink:title="Defines a top level interface for a weapon.">
<polygon fill="#bfbfbf" stroke="black" points="155,-221.5 155,-300.5 298,-300.5 298,-221.5 155,-221.5"/>
<text text-anchor="middle" x="226.5" y="-288.5" font-family="Helvetica,sans-Serif" font-size="10.00">Robowars.Weapons.Weapon</text>
<polyline fill="none" stroke="black" points="155,-281.5 298,-281.5 "/>
<text text-anchor="start" x="163" y="-269.5" font-family="Helvetica,sans-Serif" font-size="10.00">+ PowerDrain</text>
<text text-anchor="start" x="163" y="-258.5" font-family="Helvetica,sans-Serif" font-size="10.00">+ Name</text>
<text text-anchor="start" x="163" y="-247.5" font-family="Helvetica,sans-Serif" font-size="10.00">+ Damage</text>
<polyline fill="none" stroke="black" points="155,-240.5 298,-240.5 "/>
<text text-anchor="start" x="163" y="-228.5" font-family="Helvetica,sans-Serif" font-size="10.00">+ GetDamage()</text>
</a>
</g>
</g>
<!-- Node2 -->
<g id="node2" class="node"><title>Node2</title>
<g id="a_node2"><a xlink:href="class_robowars_1_1_weapons_1_1_hammer.html" target="_top" xlink:title=" ">
<polygon fill="white" stroke="black" points="0,-127.5 0,-184.5 143,-184.5 143,-127.5 0,-127.5"/>
<text text-anchor="middle" x="71.5" y="-172.5" font-family="Helvetica,sans-Serif" font-size="10.00">Robowars.Weapons.Hammer</text>
<polyline fill="none" stroke="black" points="0,-165.5 143,-165.5 "/>
<text text-anchor="start" x="8" y="-153.5" font-family="Helvetica,sans-Serif" font-size="10.00">+ PowerDrain</text>
<polyline fill="none" stroke="black" points="0,-146.5 143,-146.5 "/>
<text text-anchor="start" x="8" y="-134.5" font-family="Helvetica,sans-Serif" font-size="10.00">+ Hammer()</text>
</a>
</g>
</g>
<!-- Node1&#45;&gt;Node2 -->
<g id="edge1" class="edge"><title>Node1&#45;&gt;Node2</title>
<path fill="none" stroke="midnightblue" d="M159.629,-215.563C143.802,-205.046 127.373,-194.128 113.048,-184.61"/>
<polygon fill="none" stroke="midnightblue" points="158.077,-218.734 168.343,-221.354 161.951,-212.904 158.077,-218.734"/>
</g>
<!-- Node3 -->
<g id="node3" class="node"><title>Node3</title>
<g id="a_node3"><a xlink:href="class_robowars_1_1_weapons_1_1_laser.html" target="_top" xlink:title=" ">
<polygon fill="white" stroke="black" points="161,-127.5 161,-184.5 292,-184.5 292,-127.5 161,-127.5"/>
<text text-anchor="middle" x="226.5" y="-172.5" font-family="Helvetica,sans-Serif" font-size="10.00">Robowars.Weapons.Laser</text>
<polyline fill="none" stroke="black" points="161,-165.5 292,-165.5 "/>
<text text-anchor="start" x="169" y="-153.5" font-family="Helvetica,sans-Serif" font-size="10.00">+ PowerDrain</text>
<polyline fill="none" stroke="black" points="161,-146.5 292,-146.5 "/>
<text text-anchor="start" x="169" y="-134.5" font-family="Helvetica,sans-Serif" font-size="10.00">+ Laser()</text>
</a>
</g>
</g>
<!-- Node1&#45;&gt;Node3 -->
<g id="edge2" class="edge"><title>Node1&#45;&gt;Node3</title>
<path fill="none" stroke="midnightblue" d="M226.5,-211.163C226.5,-202.04 226.5,-192.806 226.5,-184.61"/>
<polygon fill="none" stroke="midnightblue" points="223,-211.354 226.5,-221.354 230,-211.354 223,-211.354"/>
</g>
<!-- Node4 -->
<g id="node4" class="node"><title>Node4</title>
<g id="a_node4"><a xlink:href="class_robowars_1_1_weapons_1_1_weapon_enhancement.html" target="_top" xlink:title="Represents an enchancement of a Weapon, by transparently wrapping the weapon while also implementing ...">
<polygon fill="white" stroke="black" points="310,-127.5 310,-184.5 513,-184.5 513,-127.5 310,-127.5"/>
<text text-anchor="middle" x="411.5" y="-172.5" font-family="Helvetica,sans-Serif" font-size="10.00">Robowars.Weapons.WeaponEnhancement</text>
<polyline fill="none" stroke="black" points="310,-165.5 513,-165.5 "/>
<text text-anchor="start" x="318" y="-153.5" font-family="Helvetica,sans-Serif" font-size="10.00">+ EnhancedWeapon</text>
<polyline fill="none" stroke="black" points="310,-146.5 513,-146.5 "/>
<text text-anchor="start" x="318" y="-134.5" font-family="Helvetica,sans-Serif" font-size="10.00">+ GetDamage()</text>
</a>
</g>
</g>
<!-- Node1&#45;&gt;Node4 -->
<g id="edge3" class="edge"><title>Node1&#45;&gt;Node4</title>
<path fill="none" stroke="midnightblue" d="M304.741,-216.439C324.112,-205.654 344.338,-194.393 361.91,-184.61"/>
<polygon fill="none" stroke="midnightblue" points="302.948,-213.431 295.914,-221.354 306.353,-219.547 302.948,-213.431"/>
</g>
<!-- Node5 -->
<g id="node5" class="node"><title>Node5</title>
<g id="a_node5"><a xlink:href="class_robowars_1_1_weapons_1_1_fixed_damage_bonus_weapon.html" target="_top" xlink:title=" ">
<polygon fill="white" stroke="black" points="232,-0.5 232,-90.5 399,-90.5 399,-0.5 232,-0.5"/>
<text text-anchor="start" x="240" y="-78.5" font-family="Helvetica,sans-Serif" font-size="10.00">Robowars.Weapons.FixedDamage</text>
<text text-anchor="middle" x="315.5" y="-67.5" font-family="Helvetica,sans-Serif" font-size="10.00">BonusWeapon</text>
<polyline fill="none" stroke="black" points="232,-60.5 399,-60.5 "/>
<text text-anchor="start" x="240" y="-48.5" font-family="Helvetica,sans-Serif" font-size="10.00">+ PowerDrain</text>
<text text-anchor="start" x="240" y="-37.5" font-family="Helvetica,sans-Serif" font-size="10.00">+ Bonus</text>
<polyline fill="none" stroke="black" points="232,-30.5 399,-30.5 "/>
<text text-anchor="start" x="240" y="-18.5" font-family="Helvetica,sans-Serif" font-size="10.00">+ FixedDamageBonusWeapon()</text>
<text text-anchor="start" x="240" y="-7.5" font-family="Helvetica,sans-Serif" font-size="10.00">+ GetDamage()</text>
</a>
</g>
</g>
<!-- Node4&#45;&gt;Node5 -->
<g id="edge4" class="edge"><title>Node4&#45;&gt;Node5</title>
<path fill="none" stroke="midnightblue" d="M380.309,-119.748C372.07,-110.435 363.074,-100.269 354.479,-90.5541"/>
<polygon fill="none" stroke="midnightblue" points="377.779,-122.17 387.027,-127.34 383.022,-117.532 377.779,-122.17"/>
</g>
<!-- Node6 -->
<g id="node6" class="node"><title>Node6</title>
<g id="a_node6"><a xlink:href="class_robowars_1_1_weapons_1_1_percentage_bonus_damage_weapon.html" target="_top" xlink:title=" ">
<polygon fill="white" stroke="black" points="417,-0.5 417,-90.5 598,-90.5 598,-0.5 417,-0.5"/>
<text text-anchor="start" x="425" y="-78.5" font-family="Helvetica,sans-Serif" font-size="10.00">Robowars.Weapons.Percentage</text>
<text text-anchor="middle" x="507.5" y="-67.5" font-family="Helvetica,sans-Serif" font-size="10.00">BonusDamageWeapon</text>
<polyline fill="none" stroke="black" points="417,-60.5 598,-60.5 "/>
<text text-anchor="start" x="425" y="-48.5" font-family="Helvetica,sans-Serif" font-size="10.00">+ PowerDrain</text>
<text text-anchor="start" x="425" y="-37.5" font-family="Helvetica,sans-Serif" font-size="10.00">+ BonusFactor</text>
<polyline fill="none" stroke="black" points="417,-30.5 598,-30.5 "/>
<text text-anchor="start" x="425" y="-18.5" font-family="Helvetica,sans-Serif" font-size="10.00">+ PercentageBonusDamageWeapon()</text>
<text text-anchor="start" x="425" y="-7.5" font-family="Helvetica,sans-Serif" font-size="10.00">+ GetDamage()</text>
</a>
</g>
</g>
<!-- Node4&#45;&gt;Node6 -->
<g id="edge5" class="edge"><title>Node4&#45;&gt;Node6</title>
<path fill="none" stroke="midnightblue" d="M442.691,-119.748C450.93,-110.435 459.926,-100.269 468.521,-90.5541"/>
<polygon fill="none" stroke="midnightblue" points="439.978,-117.532 435.973,-127.34 445.221,-122.17 439.978,-117.532"/>
</g>
</g>
</svg>
