<?xml version="1.0" encoding="UTF-8" standalone="no"?>
<!DOCTYPE svg PUBLIC "-//W3C//DTD SVG 1.1//EN"
 "http://www.w3.org/Graphics/SVG/1.1/DTD/svg11.dtd">
<!-- Generated by graphviz version 2.38.0 (20140413.2041)
 -->
<!-- Title: Robowars.Robots.RobotSituation.TakeDamage Pages: 1 -->
<svg width="542pt" height="39pt"
 viewBox="0.00 0.00 542.00 39.00" xmlns="http://www.w3.org/2000/svg" xmlns:xlink="http://www.w3.org/1999/xlink">
<g id="graph0" class="graph" transform="scale(1 1) rotate(0) translate(4 35)">
<title>Robowars.Robots.RobotSituation.TakeDamage</title>
<polygon fill="white" stroke="none" points="-4,4 -4,-35 538,-35 538,4 -4,4"/>
<!-- Node1 -->
<g id="node1" class="node"><title>Node1</title>
<g id="a_node1"><a xlink:title="Handles the logic for a Robot taking damage, and transitions the Situation to Destroyed when appropri...">
<polygon fill="#bfbfbf" stroke="black" points="371,-0.5 371,-30.5 534,-30.5 534,-0.5 371,-0.5"/>
<text text-anchor="start" x="379" y="-18.5" font-family="Helvetica,sans-Serif" font-size="10.00">Robowars.Robots.RobotSituation.</text>
<text text-anchor="middle" x="452.5" y="-7.5" font-family="Helvetica,sans-Serif" font-size="10.00">TakeDamage</text>
</a>
</g>
</g>
<!-- Node2 -->
<g id="node2" class="node"><title>Node2</title>
<g id="a_node2"><a xlink:href="class_robowars_1_1_robots_1_1_robot.html#a1527aa8d6f7658939d31ac9e674d747f" target="_top" xlink:title="Instructs the robot to take damage for a certain reason">
<polygon fill="white" stroke="black" points="189,-0.5 189,-30.5 335,-30.5 335,-0.5 189,-0.5"/>
<text text-anchor="start" x="197" y="-18.5" font-family="Helvetica,sans-Serif" font-size="10.00">Robowars.Robots.Robot.Take</text>
<text text-anchor="middle" x="262" y="-7.5" font-family="Helvetica,sans-Serif" font-size="10.00">Damage</text>
</a>
</g>
</g>
<!-- Node1&#45;&gt;Node2 -->
<g id="edge1" class="edge"><title>Node1&#45;&gt;Node2</title>
<path fill="none" stroke="midnightblue" d="M360.738,-15.5C352.19,-15.5 343.604,-15.5 335.261,-15.5"/>
<polygon fill="midnightblue" stroke="midnightblue" points="360.739,-19.0001 370.739,-15.5 360.739,-12.0001 360.739,-19.0001"/>
</g>
<!-- Node3 -->
<g id="node3" class="node"><title>Node3</title>
<g id="a_node3"><a xlink:href="class_robowars_1_1_robots_1_1_robot.html#aea9bad5a8c9a34fd7a04772c79b1d136" target="_top" xlink:title="Robot attacks the other robot with a random weapon, if the situation allows.">
<polygon fill="white" stroke="black" points="0,-6 0,-25 153,-25 153,-6 0,-6"/>
<text text-anchor="middle" x="76.5" y="-13" font-family="Helvetica,sans-Serif" font-size="10.00">Robowars.Robots.Robot.Attack</text>
</a>
</g>
</g>
<!-- Node2&#45;&gt;Node3 -->
<g id="edge2" class="edge"><title>Node2&#45;&gt;Node3</title>
<path fill="none" stroke="midnightblue" d="M178.471,-15.5C169.994,-15.5 161.411,-15.5 153.015,-15.5"/>
<polygon fill="midnightblue" stroke="midnightblue" points="178.739,-19.0001 188.739,-15.5 178.739,-12.0001 178.739,-19.0001"/>
</g>
</g>
</svg>
