<?xml version="1.0" encoding="UTF-8" standalone="no"?>
<!DOCTYPE svg PUBLIC "-//W3C//DTD SVG 1.1//EN"
 "http://www.w3.org/Graphics/SVG/1.1/DTD/svg11.dtd">
<!-- Generated by graphviz version 2.38.0 (20140413.2041)
 -->
<!-- Title: Robowars.RobotAssembler Pages: 1 -->
<svg width="264pt" height="171pt"
 viewBox="0.00 0.00 264.00 171.00" xmlns="http://www.w3.org/2000/svg" xmlns:xlink="http://www.w3.org/1999/xlink">
<g id="graph0" class="graph" transform="scale(1 1) rotate(0) translate(4 167)">
<title>Robowars.RobotAssembler</title>
<polygon fill="white" stroke="none" points="-4,4 -4,-167 260,-167 260,4 -4,4"/>
<!-- Node1 -->
<g id="node1" class="node"><title>Node1</title>
<g id="a_node1"><a xlink:title="Represents logic regarding how specific robots may be produced.">
<polygon fill="#bfbfbf" stroke="black" points="72.5,-94.5 72.5,-162.5 206.5,-162.5 206.5,-94.5 72.5,-94.5"/>
<text text-anchor="middle" x="139.5" y="-150.5" font-family="Helvetica,sans-Serif" font-size="10.00">Robowars.RobotAssembler</text>
<polyline fill="none" stroke="black" points="72.5,-143.5 206.5,-143.5 "/>
<text text-anchor="middle" x="139.5" y="-131.5" font-family="Helvetica,sans-Serif" font-size="10.00"> </text>
<polyline fill="none" stroke="black" points="72.5,-124.5 206.5,-124.5 "/>
<text text-anchor="start" x="80.5" y="-112.5" font-family="Helvetica,sans-Serif" font-size="10.00">+ AssembleRobot()</text>
<text text-anchor="start" x="80.5" y="-101.5" font-family="Helvetica,sans-Serif" font-size="10.00"># CreateRobot()</text>
</a>
</g>
</g>
<!-- Node2 -->
<g id="node2" class="node"><title>Node2</title>
<g id="a_node2"><a xlink:href="class_robowars_1_1_mining_robot_maker.html" target="_top" xlink:title="Creates friendly mining robots">
<polygon fill="white" stroke="black" points="0,-0.5 0,-57.5 143,-57.5 143,-0.5 0,-0.5"/>
<text text-anchor="middle" x="71.5" y="-45.5" font-family="Helvetica,sans-Serif" font-size="10.00">Robowars.MiningRobotMaker</text>
<polyline fill="none" stroke="black" points="0,-38.5 143,-38.5 "/>
<text text-anchor="middle" x="71.5" y="-26.5" font-family="Helvetica,sans-Serif" font-size="10.00"> </text>
<polyline fill="none" stroke="black" points="0,-19.5 143,-19.5 "/>
<text text-anchor="start" x="8" y="-7.5" font-family="Helvetica,sans-Serif" font-size="10.00"># CreateRobot()</text>
</a>
</g>
</g>
<!-- Node1&#45;&gt;Node2 -->
<g id="edge1" class="edge"><title>Node1&#45;&gt;Node2</title>
<path fill="none" stroke="midnightblue" d="M110.697,-86.2017C104.007,-76.6099 97.0428,-66.6238 90.8723,-57.7765"/>
<polygon fill="none" stroke="midnightblue" points="107.887,-88.2909 116.478,-94.4909 113.629,-84.2866 107.887,-88.2909"/>
</g>
<!-- Node3 -->
<g id="node3" class="node"><title>Node3</title>
<g id="a_node3"><a xlink:href="class_robowars_1_1_sky_net.html" target="_top" xlink:title="Creates terminator robots">
<polygon fill="white" stroke="black" points="161,-0.5 161,-57.5 256,-57.5 256,-0.5 161,-0.5"/>
<text text-anchor="middle" x="208.5" y="-45.5" font-family="Helvetica,sans-Serif" font-size="10.00">Robowars.SkyNet</text>
<polyline fill="none" stroke="black" points="161,-38.5 256,-38.5 "/>
<text text-anchor="start" x="169" y="-26.5" font-family="Helvetica,sans-Serif" font-size="10.00">+ Instance</text>
<polyline fill="none" stroke="black" points="161,-19.5 256,-19.5 "/>
<text text-anchor="start" x="169" y="-7.5" font-family="Helvetica,sans-Serif" font-size="10.00"># CreateRobot()</text>
</a>
</g>
</g>
<!-- Node1&#45;&gt;Node3 -->
<g id="edge2" class="edge"><title>Node1&#45;&gt;Node3</title>
<path fill="none" stroke="midnightblue" d="M168.726,-86.2017C175.515,-76.6099 182.582,-66.6238 188.843,-57.7765"/>
<polygon fill="none" stroke="midnightblue" points="165.78,-84.3064 162.86,-94.4909 171.494,-88.3501 165.78,-84.3064"/>
</g>
</g>
</svg>
