<?xml version="1.0" encoding="UTF-8" standalone="no"?>
<!DOCTYPE svg PUBLIC "-//W3C//DTD SVG 1.1//EN"
 "http://www.w3.org/Graphics/SVG/1.1/DTD/svg11.dtd">
<!-- Generated by graphviz version 2.38.0 (20140413.2041)
 -->
<!-- Title: Robowars.Contest.ShowMenu Pages: 1 -->
<svg width="516pt" height="116pt"
 viewBox="0.00 0.00 516.00 115.50" xmlns="http://www.w3.org/2000/svg" xmlns:xlink="http://www.w3.org/1999/xlink">
<g id="graph0" class="graph" transform="scale(1 1) rotate(0) translate(4 111.5)">
<title>Robowars.Contest.ShowMenu</title>
<polygon fill="white" stroke="none" points="-4,4 -4,-111.5 512,-111.5 512,4 -4,4"/>
<!-- Node1 -->
<g id="node1" class="node"><title>Node1</title>
<g id="a_node1"><a xlink:title="Shows a menu where the user can select a command to organize and initiate a fight">
<polygon fill="#bfbfbf" stroke="black" points="0,-38.5 0,-57.5 147,-57.5 147,-38.5 0,-38.5"/>
<text text-anchor="middle" x="73.5" y="-45.5" font-family="Helvetica,sans-Serif" font-size="10.00">Robowars.Contest.ShowMenu</text>
</a>
</g>
</g>
<!-- Node2 -->
<g id="node2" class="node"><title>Node2</title>
<g id="a_node2"><a xlink:href="class_robowars_1_1_robot_assembler.html#a53fc240dea50d69ec224d125ae371689" target="_top" xlink:title="Creates a new robot.">
<polygon fill="white" stroke="black" points="190.5,-77 190.5,-107 327.5,-107 327.5,-77 190.5,-77"/>
<text text-anchor="start" x="198.5" y="-95" font-family="Helvetica,sans-Serif" font-size="10.00">Robowars.RobotAssembler.</text>
<text text-anchor="middle" x="259" y="-84" font-family="Helvetica,sans-Serif" font-size="10.00">AssembleRobot</text>
</a>
</g>
</g>
<!-- Node1&#45;&gt;Node2 -->
<g id="edge1" class="edge"><title>Node1&#45;&gt;Node2</title>
<path fill="none" stroke="midnightblue" d="M114.317,-57.5473C135.069,-62.5233 161.106,-68.7666 185.296,-74.5669"/>
<polygon fill="midnightblue" stroke="midnightblue" points="184.63,-78.0064 195.171,-76.9346 186.262,-71.1993 184.63,-78.0064"/>
</g>
<!-- Node4 -->
<g id="node4" class="node"><title>Node4</title>
<g id="a_node4"><a xlink:href="class_robowars_1_1_contest.html#aa78400fb2b86f1d4b6e963581fb0b3f1" target="_top" xlink:title="Logic that implements everything a fight between two robots involves">
<polygon fill="white" stroke="black" points="198.5,-38.5 198.5,-57.5 319.5,-57.5 319.5,-38.5 198.5,-38.5"/>
<text text-anchor="middle" x="259" y="-45.5" font-family="Helvetica,sans-Serif" font-size="10.00">Robowars.Contest.Fight</text>
</a>
</g>
</g>
<!-- Node1&#45;&gt;Node4 -->
<g id="edge3" class="edge"><title>Node1&#45;&gt;Node4</title>
<path fill="none" stroke="midnightblue" d="M147.024,-48C160.595,-48 174.754,-48 188.239,-48"/>
<polygon fill="midnightblue" stroke="midnightblue" points="188.399,-51.5001 198.399,-48 188.399,-44.5001 188.399,-51.5001"/>
</g>
<!-- Node5 -->
<g id="node5" class="node"><title>Node5</title>
<g id="a_node5"><a xlink:href="class_robowars_1_1_contest.html#aab738c7bae8a47f70118f9a0517551c1" target="_top" xlink:title="Shows the status of the two contestants">
<polygon fill="white" stroke="black" points="183,-0.5 183,-19.5 335,-19.5 335,-0.5 183,-0.5"/>
<text text-anchor="middle" x="259" y="-7.5" font-family="Helvetica,sans-Serif" font-size="10.00">Robowars.Contest.ShowStatus</text>
</a>
</g>
</g>
<!-- Node1&#45;&gt;Node5 -->
<g id="edge4" class="edge"><title>Node1&#45;&gt;Node5</title>
<path fill="none" stroke="midnightblue" d="M120.805,-38.411C145.456,-33.3061 175.963,-26.9887 201.945,-21.6082"/>
<polygon fill="midnightblue" stroke="midnightblue" points="202.946,-24.9752 212.028,-19.5201 201.526,-18.1207 202.946,-24.9752"/>
</g>
<!-- Node3 -->
<g id="node3" class="node"><title>Node3</title>
<g id="a_node3"><a xlink:href="class_robowars_1_1_robot_assembler.html#a6fdd6be263421e9d7fac55c5743de93f" target="_top" xlink:title="Creates weaponry for the robot.">
<polygon fill="white" stroke="black" points="371,-77 371,-107 508,-107 508,-77 371,-77"/>
<text text-anchor="start" x="379" y="-95" font-family="Helvetica,sans-Serif" font-size="10.00">Robowars.RobotAssembler.</text>
<text text-anchor="middle" x="439.5" y="-84" font-family="Helvetica,sans-Serif" font-size="10.00">CreateRobot</text>
</a>
</g>
</g>
<!-- Node2&#45;&gt;Node3 -->
<g id="edge2" class="edge"><title>Node2&#45;&gt;Node3</title>
<path fill="none" stroke="midnightblue" d="M327.738,-92C338.536,-92 349.78,-92 360.787,-92"/>
<polygon fill="midnightblue" stroke="midnightblue" points="360.809,-95.5001 370.809,-92 360.808,-88.5001 360.809,-95.5001"/>
</g>
</g>
</svg>
