<?xml version="1.0" encoding="UTF-8" standalone="no"?>
<!DOCTYPE svg PUBLIC "-//W3C//DTD SVG 1.1//EN"
 "http://www.w3.org/Graphics/SVG/1.1/DTD/svg11.dtd">
<!-- Generated by graphviz version 2.38.0 (20140413.2041)
 -->
<!-- Title: Robowars.WeaponEnhancement Pages: 1 -->
<svg width="362pt" height="309pt"
 viewBox="0.00 0.00 362.00 309.00" xmlns="http://www.w3.org/2000/svg" xmlns:xlink="http://www.w3.org/1999/xlink">
<g id="graph0" class="graph" transform="scale(1 1) rotate(0) translate(4 305)">
<title>Robowars.WeaponEnhancement</title>
<polygon fill="white" stroke="none" points="-4,4 -4,-305 358,-305 358,4 -4,4"/>
<!-- Node1 -->
<g id="node1" class="node"><title>Node1</title>
<g id="a_node1"><a xlink:title=" ">
<polygon fill="#bfbfbf" stroke="black" points="91.5,-127.5 91.5,-184.5 249.5,-184.5 249.5,-127.5 91.5,-127.5"/>
<text text-anchor="middle" x="170.5" y="-172.5" font-family="Helvetica,sans-Serif" font-size="10.00">Robowars.WeaponEnhancement</text>
<polyline fill="none" stroke="black" points="91.5,-165.5 249.5,-165.5 "/>
<text text-anchor="start" x="99.5" y="-153.5" font-family="Helvetica,sans-Serif" font-size="10.00">+ EnhancedWeapon</text>
<polyline fill="none" stroke="black" points="91.5,-146.5 249.5,-146.5 "/>
<text text-anchor="start" x="99.5" y="-134.5" font-family="Helvetica,sans-Serif" font-size="10.00">+ GetDamage()</text>
</a>
</g>
</g>
<!-- Node3 -->
<g id="node3" class="node"><title>Node3</title>
<g id="a_node3"><a xlink:href="class_robowars_1_1_fixed_damage_bonus_weapon.html" target="_top" xlink:title=" ">
<polygon fill="white" stroke="black" points="0,-0.5 0,-90.5 155,-90.5 155,-0.5 0,-0.5"/>
<text text-anchor="start" x="8" y="-78.5" font-family="Helvetica,sans-Serif" font-size="10.00">Robowars.FixedDamageBonus</text>
<text text-anchor="middle" x="77.5" y="-67.5" font-family="Helvetica,sans-Serif" font-size="10.00">Weapon</text>
<polyline fill="none" stroke="black" points="0,-60.5 155,-60.5 "/>
<text text-anchor="start" x="8" y="-48.5" font-family="Helvetica,sans-Serif" font-size="10.00">+ PowerDrain</text>
<text text-anchor="start" x="8" y="-37.5" font-family="Helvetica,sans-Serif" font-size="10.00">+ Bonus</text>
<polyline fill="none" stroke="black" points="0,-30.5 155,-30.5 "/>
<text text-anchor="start" x="8" y="-18.5" font-family="Helvetica,sans-Serif" font-size="10.00">+ FixedDamageBonusWeapon()</text>
<text text-anchor="start" x="8" y="-7.5" font-family="Helvetica,sans-Serif" font-size="10.00">+ GetDamage()</text>
</a>
</g>
</g>
<!-- Node1&#45;&gt;Node3 -->
<g id="edge2" class="edge"><title>Node1&#45;&gt;Node3</title>
<path fill="none" stroke="midnightblue" d="M140.044,-119.468C132.128,-110.232 123.504,-100.171 115.261,-90.5541"/>
<polygon fill="none" stroke="midnightblue" points="137.626,-122.025 146.792,-127.34 142.941,-117.47 137.626,-122.025"/>
</g>
<!-- Node4 -->
<g id="node4" class="node"><title>Node4</title>
<g id="a_node4"><a xlink:href="class_robowars_1_1_percentage_bonus_damage_weapon.html" target="_top" xlink:title=" ">
<polygon fill="white" stroke="black" points="173,-0.5 173,-90.5 354,-90.5 354,-0.5 173,-0.5"/>
<text text-anchor="start" x="181" y="-78.5" font-family="Helvetica,sans-Serif" font-size="10.00">Robowars.PercentageBonus</text>
<text text-anchor="middle" x="263.5" y="-67.5" font-family="Helvetica,sans-Serif" font-size="10.00">DamageWeapon</text>
<polyline fill="none" stroke="black" points="173,-60.5 354,-60.5 "/>
<text text-anchor="start" x="181" y="-48.5" font-family="Helvetica,sans-Serif" font-size="10.00">+ PowerDrain</text>
<text text-anchor="start" x="181" y="-37.5" font-family="Helvetica,sans-Serif" font-size="10.00">+ BonusFactor</text>
<polyline fill="none" stroke="black" points="173,-30.5 354,-30.5 "/>
<text text-anchor="start" x="181" y="-18.5" font-family="Helvetica,sans-Serif" font-size="10.00">+ PercentageBonusDamageWeapon()</text>
<text text-anchor="start" x="181" y="-7.5" font-family="Helvetica,sans-Serif" font-size="10.00">+ GetDamage()</text>
</a>
</g>
</g>
<!-- Node1&#45;&gt;Node4 -->
<g id="edge3" class="edge"><title>Node1&#45;&gt;Node4</title>
<path fill="none" stroke="midnightblue" d="M200.956,-119.468C208.872,-110.232 217.496,-100.171 225.739,-90.5541"/>
<polygon fill="none" stroke="midnightblue" points="198.059,-117.47 194.208,-127.34 203.374,-122.025 198.059,-117.47"/>
</g>
<!-- Node2 -->
<g id="node2" class="node"><title>Node2</title>
<g id="a_node2"><a xlink:href="class_robowars_1_1_weapon.html" target="_top" xlink:title=" ">
<polygon fill="white" stroke="black" points="129,-221.5 129,-300.5 212,-300.5 212,-221.5 129,-221.5"/>
<text text-anchor="middle" x="170.5" y="-288.5" font-family="Helvetica,sans-Serif" font-size="10.00">Weapon</text>
<polyline fill="none" stroke="black" points="129,-281.5 212,-281.5 "/>
<text text-anchor="start" x="137" y="-269.5" font-family="Helvetica,sans-Serif" font-size="10.00">+ PowerDrain</text>
<text text-anchor="start" x="137" y="-258.5" font-family="Helvetica,sans-Serif" font-size="10.00">+ Name</text>
<text text-anchor="start" x="137" y="-247.5" font-family="Helvetica,sans-Serif" font-size="10.00">+ Damage</text>
<polyline fill="none" stroke="black" points="129,-240.5 212,-240.5 "/>
<text text-anchor="start" x="137" y="-228.5" font-family="Helvetica,sans-Serif" font-size="10.00">+ GetDamage()</text>
</a>
</g>
</g>
<!-- Node2&#45;&gt;Node1 -->
<g id="edge1" class="edge"><title>Node2&#45;&gt;Node1</title>
<path fill="none" stroke="midnightblue" d="M170.5,-211.163C170.5,-202.04 170.5,-192.806 170.5,-184.61"/>
<polygon fill="none" stroke="midnightblue" points="167,-211.354 170.5,-221.354 174,-211.354 167,-211.354"/>
</g>
</g>
</svg>
