<?xml version="1.0" encoding="UTF-8" standalone="no"?>
<!DOCTYPE svg PUBLIC "-//W3C//DTD SVG 1.1//EN"
 "http://www.w3.org/Graphics/SVG/1.1/DTD/svg11.dtd">
<!-- Generated by graphviz version 2.38.0 (20140413.2041)
 -->
<!-- Title: Robowars.SkyNet.CreateWeapons Pages: 1 -->
<!--zoomable 235 -->
<svg id="main" version="1.1" xmlns="http://www.w3.org/2000/svg" xmlns:xlink="http://www.w3.org/1999/xlink" xml:space="preserve" onload="init(evt)">
<style type="text/css"><![CDATA[
.edge:hover path { stroke: red; }
.edge:hover polygon { stroke: red; fill: red; }
]]></style>
<script type="text/javascript"><![CDATA[
var edges = document.getElementsByTagName('g');
if (edges && edges.length) {
  for (var i=0;i<edges.length;i++) {
    if (edges[i].id.substr(0,4)=='edge') {
      edges[i].setAttribute('class','edge');
    }
  }
}
]]></script>
        <defs>
                <circle id="rim" cx="0" cy="0" r="7"/>
                <circle id="rim2" cx="0" cy="0" r="3.5"/>
                <g id="zoomPlus">
                        <use xlink:href="#rim" fill="#404040">
                                <set attributeName="fill" to="#808080" begin="zoomplus.mouseover" end="zoomplus.mouseout"/>
                        </use>
                        <path d="M-4,0h8M0,-4v8" fill="none" stroke="white" stroke-width="1.5" pointer-events="none"/>
                </g>
                <g id="zoomMin">
                        <use xlink:href="#rim" fill="#404040">
                                <set attributeName="fill" to="#808080" begin="zoomminus.mouseover" end="zoomminus.mouseout"/>
                        </use>
                        <path d="M-4,0h8" fill="none" stroke="white" stroke-width="1.5" pointer-events="none"/>
                </g>
                <g id="dirArrow">
                        <path fill="none" stroke="white" stroke-width="1.5" d="M0,-3.0v7 M-2.5,-0.5L0,-3.0L2.5,-0.5"/>
                </g>
               <g id="resetDef">
                       <use xlink:href="#rim2" fill="#404040">
                               <set attributeName="fill" to="#808080" begin="reset.mouseover" end="reset.mouseout"/>
                       </use>
               </g>
        </defs>

<script type="text/javascript">
var viewWidth = 597;
var viewHeight = 235;
var sectionId = 'dynsection-2';
</script>
<script xlink:href="svgpan.js"/>
<svg id="graph" class="graph">
<g id="viewport">
<title>Robowars.SkyNet.CreateWeapons</title>
<polygon fill="white" stroke="none" points="-4,4 -4,-231 593,-231 593,4 -4,4"/>
<!-- Node1 -->
<g id="node1" class="node"><title>Node1</title>
<g id="a_node1"><a xlink:title="Creates weaponry for the robot.">
<polygon fill="#bfbfbf" stroke="black" points="0,-104 0,-123 167,-123 167,-104 0,-104"/>
<text text-anchor="middle" x="83.5" y="-111" font-family="Helvetica,sans-Serif" font-size="10.00">Robowars.SkyNet.CreateWeapons</text>
</a>
</g>
</g>
<!-- Node2 -->
<g id="node2" class="node"><title>Node2</title>
<g id="a_node2"><a xlink:href="class_robowars_1_1_weapon_upgrade_specifier.html#acba4fea284b33a76ac4f2c5891a9e309" target="_top" xlink:title=" ">
<polygon fill="white" stroke="black" points="203,-196.5 203,-226.5 378,-226.5 378,-196.5 203,-196.5"/>
<text text-anchor="start" x="211" y="-214.5" font-family="Helvetica,sans-Serif" font-size="10.00">Robowars.WeaponUpgradeSpecifier.</text>
<text text-anchor="middle" x="290.5" y="-203.5" font-family="Helvetica,sans-Serif" font-size="10.00">Build</text>
</a>
</g>
</g>
<!-- Node1&#45;&gt;Node2 -->
<g id="edge1" class="edge"><title>Node1&#45;&gt;Node2</title>
<path fill="none" stroke="midnightblue" d="M97.311,-123.249C118.333,-138.832 161.927,-169.432 203,-187.5 207.607,-189.527 212.429,-191.424 217.337,-193.193"/>
<polygon fill="midnightblue" stroke="midnightblue" points="216.255,-196.522 226.85,-196.434 218.513,-189.896 216.255,-196.522"/>
</g>
<!-- Node3 -->
<g id="node3" class="node"><title>Node3</title>
<g id="a_node3"><a xlink:href="class_robowars_1_1_weapon_upgrade_specifier.html#a29f230583580074b31ea2b8a4c97292f" target="_top" xlink:title=" ">
<polygon fill="white" stroke="black" points="203,-147.5 203,-177.5 378,-177.5 378,-147.5 203,-147.5"/>
<text text-anchor="start" x="211" y="-165.5" font-family="Helvetica,sans-Serif" font-size="10.00">Robowars.WeaponUpgradeSpecifier.</text>
<text text-anchor="middle" x="290.5" y="-154.5" font-family="Helvetica,sans-Serif" font-size="10.00">FromWeapon</text>
</a>
</g>
</g>
<!-- Node1&#45;&gt;Node3 -->
<g id="edge2" class="edge"><title>Node1&#45;&gt;Node3</title>
<path fill="none" stroke="midnightblue" d="M124.513,-123.064C150.693,-129.322 185.668,-137.682 216.678,-145.094"/>
<polygon fill="midnightblue" stroke="midnightblue" points="216.051,-148.542 226.59,-147.463 217.678,-141.734 216.051,-148.542"/>
</g>
<!-- Node5 -->
<g id="node5" class="node"><title>Node5</title>
<g id="a_node5"><a xlink:href="class_robowars_1_1_weapon_upgrade_specifier.html#a9ef1475b5fec4f8c3bda35944e5a544a" target="_top" xlink:title=" ">
<polygon fill="white" stroke="black" points="203,-98.5 203,-128.5 378,-128.5 378,-98.5 203,-98.5"/>
<text text-anchor="start" x="211" y="-116.5" font-family="Helvetica,sans-Serif" font-size="10.00">Robowars.WeaponUpgradeSpecifier.</text>
<text text-anchor="middle" x="290.5" y="-105.5" font-family="Helvetica,sans-Serif" font-size="10.00">Named</text>
</a>
</g>
</g>
<!-- Node1&#45;&gt;Node5 -->
<g id="edge4" class="edge"><title>Node1&#45;&gt;Node5</title>
<path fill="none" stroke="midnightblue" d="M167.29,-113.5C175.586,-113.5 184.06,-113.5 192.484,-113.5"/>
<polygon fill="midnightblue" stroke="midnightblue" points="192.721,-117 202.721,-113.5 192.721,-110 192.721,-117"/>
</g>
<!-- Node6 -->
<g id="node6" class="node"><title>Node6</title>
<g id="a_node6"><a xlink:href="class_robowars_1_1_weapon_upgrade_specifier.html#a38bba5835b9e41aeb5aa0455cee2cdba" target="_top" xlink:title=" ">
<polygon fill="white" stroke="black" points="203,-49.5 203,-79.5 378,-79.5 378,-49.5 203,-49.5"/>
<text text-anchor="start" x="211" y="-67.5" font-family="Helvetica,sans-Serif" font-size="10.00">Robowars.WeaponUpgradeSpecifier.</text>
<text text-anchor="middle" x="290.5" y="-56.5" font-family="Helvetica,sans-Serif" font-size="10.00">UpgradeByAmount</text>
</a>
</g>
</g>
<!-- Node1&#45;&gt;Node6 -->
<g id="edge5" class="edge"><title>Node1&#45;&gt;Node6</title>
<path fill="none" stroke="midnightblue" d="M124.513,-103.936C150.693,-97.6782 185.668,-89.3183 216.678,-81.9063"/>
<polygon fill="midnightblue" stroke="midnightblue" points="217.678,-85.2659 226.59,-79.537 216.051,-78.4577 217.678,-85.2659"/>
</g>
<!-- Node7 -->
<g id="node7" class="node"><title>Node7</title>
<g id="a_node7"><a xlink:href="class_robowars_1_1_weapon_upgrade_specifier.html#ac2fb273aa6b882466716999a2c9cdf9e" target="_top" xlink:title=" ">
<polygon fill="white" stroke="black" points="203,-0.5 203,-30.5 378,-30.5 378,-0.5 203,-0.5"/>
<text text-anchor="start" x="211" y="-18.5" font-family="Helvetica,sans-Serif" font-size="10.00">Robowars.WeaponUpgradeSpecifier.</text>
<text text-anchor="middle" x="290.5" y="-7.5" font-family="Helvetica,sans-Serif" font-size="10.00">UpgradeByPercentage</text>
</a>
</g>
</g>
<!-- Node1&#45;&gt;Node7 -->
<g id="edge6" class="edge"><title>Node1&#45;&gt;Node7</title>
<path fill="none" stroke="midnightblue" d="M97.3564,-103.945C118.442,-88.6597 162.124,-58.5945 203,-40.5 208.311,-38.1489 213.903,-35.9537 219.582,-33.9186"/>
<polygon fill="midnightblue" stroke="midnightblue" points="220.85,-37.184 229.187,-30.6455 218.592,-30.5581 220.85,-37.184"/>
</g>
<!-- Node4 -->
<g id="node4" class="node"><title>Node4</title>
<g id="a_node4"><a xlink:href="class_robowars_1_1_weapon_upgrade_specifier.html#a9077265b0eae345e4b25d8d0ff45053b" target="_top" xlink:title=" ">
<polygon fill="white" stroke="black" points="414,-147.5 414,-177.5 589,-177.5 589,-147.5 414,-147.5"/>
<text text-anchor="start" x="422" y="-165.5" font-family="Helvetica,sans-Serif" font-size="10.00">Robowars.WeaponUpgradeSpecifier.</text>
<text text-anchor="middle" x="501.5" y="-154.5" font-family="Helvetica,sans-Serif" font-size="10.00">WeaponUpgradeSpecifier</text>
</a>
</g>
</g>
<!-- Node3&#45;&gt;Node4 -->
<g id="edge3" class="edge"><title>Node3&#45;&gt;Node4</title>
<path fill="none" stroke="midnightblue" d="M378.017,-162.5C386.492,-162.5 395.13,-162.5 403.698,-162.5"/>
<polygon fill="midnightblue" stroke="midnightblue" points="403.711,-166 413.711,-162.5 403.711,-159 403.711,-166"/>
</g>
</g>
</svg>
        <g id="navigator" transform="translate(0 0)" fill="#404254">
                <rect fill="#f2f5e9" fill-opacity="0.5" stroke="#606060" stroke-width=".5" x="0" y="0" width="60" height="60"/>
                <use id="zoomplus" xlink:href="#zoomPlus" x="17" y="9" onmousedown="handleZoom(evt,'in')"/>
                <use id="zoomminus" xlink:href="#zoomMin" x="42" y="9" onmousedown="handleZoom(evt,'out')"/>
                <use id="reset" xlink:href="#resetDef" x="30" y="36" onmousedown="handleReset()"/>
                <g id="arrowUp" xlink:href="#dirArrow" transform="translate(30 24)" onmousedown="handlePan(0,-1)">
                  <use xlink:href="#rim" fill="#404040">
                        <set attributeName="fill" to="#808080" begin="arrowUp.mouseover" end="arrowUp.mouseout"/>
                  </use>
                  <path fill="none" stroke="white" stroke-width="1.5" d="M0,-3.0v7 M-2.5,-0.5L0,-3.0L2.5,-0.5"/>
                </g>
                <g id="arrowRight" xlink:href="#dirArrow" transform="rotate(90) translate(36 -43)" onmousedown="handlePan(1,0)">
                  <use xlink:href="#rim" fill="#404040">
                        <set attributeName="fill" to="#808080" begin="arrowRight.mouseover" end="arrowRight.mouseout"/>
                  </use>
                  <path fill="none" stroke="white" stroke-width="1.5" d="M0,-3.0v7 M-2.5,-0.5L0,-3.0L2.5,-0.5"/>
                </g>
                <g id="arrowDown" xlink:href="#dirArrow" transform="rotate(180) translate(-30 -48)" onmousedown="handlePan(0,1)">
                  <use xlink:href="#rim" fill="#404040">
                        <set attributeName="fill" to="#808080" begin="arrowDown.mouseover" end="arrowDown.mouseout"/>
                  </use>
                  <path fill="none" stroke="white" stroke-width="1.5" d="M0,-3.0v7 M-2.5,-0.5L0,-3.0L2.5,-0.5"/>
                </g>
                <g id="arrowLeft" xlink:href="#dirArrow" transform="rotate(270) translate(-36 17)" onmousedown="handlePan(-1,0)">
                  <use xlink:href="#rim" fill="#404040">
                        <set attributeName="fill" to="#808080" begin="arrowLeft.mouseover" end="arrowLeft.mouseout"/>
                  </use>
                  <path fill="none" stroke="white" stroke-width="1.5" d="M0,-3.0v7 M-2.5,-0.5L0,-3.0L2.5,-0.5"/>
                </g>
        </g>
        <svg viewBox="0 0 15 15" width="100%" height="30px" preserveAspectRatio="xMaxYMin meet">
         <g id="arrow_out" transform="scale(0.3 0.3)">
          <a xlink:href="class_robowars_1_1_sky_net_ade22c7f2ef5b04b241d485a7dcc44312_cgraph_org.svg" target="_base">
           <rect id="button" ry="5" rx="5" y="6" x="6" height="38" width="38"
                fill="#f2f5e9" fill-opacity="0.5" stroke="#606060" stroke-width="1.0"/>
           <path id="arrow"
             d="M 11.500037,31.436501 C 11.940474,20.09759 22.043105,11.32322 32.158766,21.979434 L 37.068811,17.246167 C 37.068811,17.246167 37.088388,32 37.088388,32 L 22.160133,31.978069 C 22.160133,31.978069 26.997745,27.140456 26.997745,27.140456 C 18.528582,18.264221 13.291696,25.230495 11.500037,31.436501 z"
             style="fill:#404040;"/>
          </a>
         </g>
        </svg>
</svg>
