<?xml version="1.0" encoding="UTF-8" standalone="no"?>
<!DOCTYPE svg PUBLIC "-//W3C//DTD SVG 1.1//EN"
 "http://www.w3.org/Graphics/SVG/1.1/DTD/svg11.dtd">
<!-- Generated by graphviz version 2.38.0 (20140413.2041)
 -->
<!-- Title: Robowars.Robots.Destroyed Pages: 1 -->
<svg width="148pt" height="281pt"
 viewBox="0.00 0.00 148.00 281.00" xmlns="http://www.w3.org/2000/svg" xmlns:xlink="http://www.w3.org/1999/xlink">
<g id="graph0" class="graph" transform="scale(1 1) rotate(0) translate(4 277)">
<title>Robowars.Robots.Destroyed</title>
<polygon fill="white" stroke="none" points="-4,4 -4,-277 144,-277 144,4 -4,4"/>
<!-- Node1 -->
<g id="node1" class="node"><title>Node1</title>
<g id="a_node1"><a xlink:title="Indicates that the Robot has been Destroyed.">
<polygon fill="#bfbfbf" stroke="black" points="0,-0.5 0,-101.5 140,-101.5 140,-0.5 0,-0.5"/>
<text text-anchor="middle" x="70" y="-89.5" font-family="Helvetica,sans-Serif" font-size="10.00">Robowars.Robots.Destroyed</text>
<polyline fill="none" stroke="black" points="0,-82.5 140,-82.5 "/>
<text text-anchor="middle" x="70" y="-70.5" font-family="Helvetica,sans-Serif" font-size="10.00"> </text>
<polyline fill="none" stroke="black" points="0,-63.5 140,-63.5 "/>
<text text-anchor="start" x="8" y="-51.5" font-family="Helvetica,sans-Serif" font-size="10.00">+ Destroyed()</text>
<text text-anchor="start" x="8" y="-40.5" font-family="Helvetica,sans-Serif" font-size="10.00">+ Ready()</text>
<text text-anchor="start" x="8" y="-29.5" font-family="Helvetica,sans-Serif" font-size="10.00">+ Deactivate()</text>
<text text-anchor="start" x="8" y="-18.5" font-family="Helvetica,sans-Serif" font-size="10.00">+ Attack()</text>
<text text-anchor="start" x="8" y="-7.5" font-family="Helvetica,sans-Serif" font-size="10.00"># Destroy()</text>
</a>
</g>
</g>
<!-- Node2 -->
<g id="node2" class="node"><title>Node2</title>
<g id="a_node2"><a xlink:href="class_robowars_1_1_robots_1_1_robot_situation.html" target="_top" xlink:title="Represents a Situation a Robot can be in; Each method is a transition to a different RobotSituation,...">
<polygon fill="white" stroke="black" points="22.5,-138.5 22.5,-272.5 117.5,-272.5 117.5,-138.5 22.5,-138.5"/>
<text text-anchor="middle" x="70" y="-260.5" font-family="Helvetica,sans-Serif" font-size="10.00">RobotSituation</text>
<polyline fill="none" stroke="black" points="22.5,-253.5 117.5,-253.5 "/>
<text text-anchor="start" x="30.5" y="-241.5" font-family="Helvetica,sans-Serif" font-size="10.00">+ Description</text>
<text text-anchor="start" x="30.5" y="-230.5" font-family="Helvetica,sans-Serif" font-size="10.00">+ Context</text>
<text text-anchor="start" x="30.5" y="-219.5" font-family="Helvetica,sans-Serif" font-size="10.00">+ Feedback</text>
<polyline fill="none" stroke="black" points="22.5,-212.5 117.5,-212.5 "/>
<text text-anchor="start" x="30.5" y="-200.5" font-family="Helvetica,sans-Serif" font-size="10.00">+ RobotSituation()</text>
<text text-anchor="start" x="30.5" y="-189.5" font-family="Helvetica,sans-Serif" font-size="10.00">+ Ready()</text>
<text text-anchor="start" x="30.5" y="-178.5" font-family="Helvetica,sans-Serif" font-size="10.00">+ Attack()</text>
<text text-anchor="start" x="30.5" y="-167.5" font-family="Helvetica,sans-Serif" font-size="10.00">+ Deactivate()</text>
<text text-anchor="start" x="30.5" y="-156.5" font-family="Helvetica,sans-Serif" font-size="10.00">+ TakeDamage()</text>
<text text-anchor="start" x="30.5" y="-145.5" font-family="Helvetica,sans-Serif" font-size="10.00"># Destroy()</text>
</a>
</g>
</g>
<!-- Node2&#45;&gt;Node1 -->
<g id="edge1" class="edge"><title>Node2&#45;&gt;Node1</title>
<path fill="none" stroke="midnightblue" d="M70,-128.274C70,-119.194 70,-110.113 70,-101.547"/>
<polygon fill="none" stroke="midnightblue" points="66.5001,-128.498 70,-138.498 73.5001,-128.498 66.5001,-128.498"/>
</g>
</g>
</svg>
