<?xml version="1.0" encoding="UTF-8" standalone="no"?>
<!DOCTYPE svg PUBLIC "-//W3C//DTD SVG 1.1//EN"
 "http://www.w3.org/Graphics/SVG/1.1/DTD/svg11.dtd">
<!-- Generated by graphviz version 2.38.0 (20140413.2041)
 -->
<!-- Title: Robowars.SkyNet Pages: 1 -->
<svg width="170pt" height="172pt"
 viewBox="0.00 0.00 170.00 172.00" xmlns="http://www.w3.org/2000/svg" xmlns:xlink="http://www.w3.org/1999/xlink">
<g id="graph0" class="graph" transform="scale(1 1) rotate(0) translate(4 168)">
<title>Robowars.SkyNet</title>
<polygon fill="white" stroke="none" points="-4,4 -4,-168 166,-168 166,4 -4,4"/>
<!-- Node1 -->
<g id="node1" class="node"><title>Node1</title>
<g id="a_node1"><a xlink:title="Creates terminator robots">
<polygon fill="#bfbfbf" stroke="black" points="3,-0.5 3,-57.5 98,-57.5 98,-0.5 3,-0.5"/>
<text text-anchor="middle" x="50.5" y="-45.5" font-family="Helvetica,sans-Serif" font-size="10.00">Robowars.SkyNet</text>
<polyline fill="none" stroke="black" points="3,-38.5 98,-38.5 "/>
<text text-anchor="middle" x="50.5" y="-26.5" font-family="Helvetica,sans-Serif" font-size="10.00"> </text>
<polyline fill="none" stroke="black" points="3,-19.5 98,-19.5 "/>
<text text-anchor="start" x="11" y="-7.5" font-family="Helvetica,sans-Serif" font-size="10.00"># CreateRobot()</text>
</a>
</g>
</g>
<!-- Node1&#45;&gt;Node1 -->
<g id="edge2" class="edge"><title>Node1&#45;&gt;Node1</title>
<path fill="none" stroke="#404040" d="M98.1902,-37.3702C108.513,-36.5518 116,-33.7617 116,-29 116,-26.3959 113.761,-24.3815 110.043,-22.9568"/>
<polygon fill="none" stroke="#404040" points="109.965,-22.9416 103.307,-25.7108 98.1902,-20.6298 104.848,-17.8606 109.965,-22.9416"/>
<text text-anchor="middle" x="139" y="-26.5" font-family="Helvetica,sans-Serif" font-size="10.00"> +Instance</text>
</g>
<!-- Node2 -->
<g id="node2" class="node"><title>Node2</title>
<g id="a_node2"><a xlink:href="class_robowars_1_1_robot_assembler.html" target="_top" xlink:title="Represents logic regarding how specific robots may be produced.">
<polygon fill="white" stroke="black" points="0,-95.5 0,-163.5 101,-163.5 101,-95.5 0,-95.5"/>
<text text-anchor="middle" x="50.5" y="-151.5" font-family="Helvetica,sans-Serif" font-size="10.00">RobotAssembler</text>
<polyline fill="none" stroke="black" points="0,-144.5 101,-144.5 "/>
<text text-anchor="middle" x="50.5" y="-132.5" font-family="Helvetica,sans-Serif" font-size="10.00"> </text>
<polyline fill="none" stroke="black" points="0,-125.5 101,-125.5 "/>
<text text-anchor="start" x="8" y="-113.5" font-family="Helvetica,sans-Serif" font-size="10.00">+ AssembleRobot()</text>
<text text-anchor="start" x="8" y="-102.5" font-family="Helvetica,sans-Serif" font-size="10.00"># CreateRobot()</text>
</a>
</g>
</g>
<!-- Node2&#45;&gt;Node1 -->
<g id="edge1" class="edge"><title>Node2&#45;&gt;Node1</title>
<path fill="none" stroke="midnightblue" d="M50.5,-85.3754C50.5,-75.9404 50.5,-66.2008 50.5,-57.5708"/>
<polygon fill="none" stroke="midnightblue" points="47.0001,-85.4269 50.5,-95.4269 54.0001,-85.4269 47.0001,-85.4269"/>
</g>
</g>
</svg>
