<?xml version="1.0" encoding="UTF-8" standalone="no"?>
<!DOCTYPE svg PUBLIC "-//W3C//DTD SVG 1.1//EN"
 "http://www.w3.org/Graphics/SVG/1.1/DTD/svg11.dtd">
<!-- Generated by graphviz version 2.38.0 (20140413.2041)
 -->
<!-- Title: SkyNet.CreateRobot Pages: 1 -->
<!--zoomable 215 -->
<svg id="main" version="1.1" xmlns="http://www.w3.org/2000/svg" xmlns:xlink="http://www.w3.org/1999/xlink" xml:space="preserve" onload="init(evt)">
<style type="text/css"><![CDATA[
.edge:hover path { stroke: red; }
.edge:hover polygon { stroke: red; fill: red; }
]]></style>
<script type="text/javascript"><![CDATA[
var edges = document.getElementsByTagName('g');
if (edges && edges.length) {
  for (var i=0;i<edges.length;i++) {
    if (edges[i].id.substr(0,4)=='edge') {
      edges[i].setAttribute('class','edge');
    }
  }
}
]]></script>
        <defs>
                <circle id="rim" cx="0" cy="0" r="7"/>
                <circle id="rim2" cx="0" cy="0" r="3.5"/>
                <g id="zoomPlus">
                        <use xlink:href="#rim" fill="#404040">
                                <set attributeName="fill" to="#808080" begin="zoomplus.mouseover" end="zoomplus.mouseout"/>
                        </use>
                        <path d="M-4,0h8M0,-4v8" fill="none" stroke="white" stroke-width="1.5" pointer-events="none"/>
                </g>
                <g id="zoomMin">
                        <use xlink:href="#rim" fill="#404040">
                                <set attributeName="fill" to="#808080" begin="zoomminus.mouseover" end="zoomminus.mouseout"/>
                        </use>
                        <path d="M-4,0h8" fill="none" stroke="white" stroke-width="1.5" pointer-events="none"/>
                </g>
                <g id="dirArrow">
                        <path fill="none" stroke="white" stroke-width="1.5" d="M0,-3.0v7 M-2.5,-0.5L0,-3.0L2.5,-0.5"/>
                </g>
               <g id="resetDef">
                       <use xlink:href="#rim2" fill="#404040">
                               <set attributeName="fill" to="#808080" begin="reset.mouseover" end="reset.mouseout"/>
                       </use>
               </g>
        </defs>

<script type="text/javascript">
var viewWidth = 516;
var viewHeight = 215;
var sectionId = 'dynsection-2';
</script>
<script xlink:href="svgpan.js"/>
<svg id="graph" class="graph">
<g id="viewport">
<title>SkyNet.CreateRobot</title>
<polygon fill="white" stroke="none" points="-4,4 -4,-210.5 512,-210.5 512,4 -4,4"/>
<!-- Node1 -->
<g id="node1" class="node"><title>Node1</title>
<g id="a_node1"><a xlink:title="Creates weaponry for the robot.">
<polygon fill="#bfbfbf" stroke="black" points="0,-99 0,-118 106,-118 106,-99 0,-99"/>
<text text-anchor="middle" x="53" y="-106" font-family="Helvetica,sans-Serif" font-size="10.00">SkyNet.CreateRobot</text>
</a>
</g>
</g>
<!-- Node2 -->
<g id="node2" class="node"><title>Node2</title>
<g id="a_node2"><a xlink:href="class_weapon_upgrade_specifier.html#a2194cf48b47b9e9ad1d51bb14e17cdc4" target="_top" xlink:title=" ">
<polygon fill="white" stroke="black" points="149,-187 149,-206 300,-206 300,-187 149,-187"/>
<text text-anchor="middle" x="224.5" y="-194" font-family="Helvetica,sans-Serif" font-size="10.00">WeaponUpgradeSpecifier.Build</text>
</a>
</g>
</g>
<!-- Node1&#45;&gt;Node2 -->
<g id="edge1" class="edge"><title>Node1&#45;&gt;Node2</title>
<path fill="none" stroke="midnightblue" d="M63.3231,-118.14C78.4196,-133.169 109.788,-162.059 142,-177.5 146.995,-179.894 152.31,-181.997 157.738,-183.842"/>
<polygon fill="midnightblue" stroke="midnightblue" points="157,-187.277 167.588,-186.891 159.07,-180.59 157,-187.277"/>
</g>
<!-- Node3 -->
<g id="node3" class="node"><title>Node3</title>
<g id="a_node3"><a xlink:href="class_weapon_upgrade_specifier.html#aecda1fcbf2ba7c0d0215e4c5f66959cb" target="_top" xlink:title=" ">
<polygon fill="white" stroke="black" points="148.5,-137.5 148.5,-167.5 300.5,-167.5 300.5,-137.5 148.5,-137.5"/>
<text text-anchor="start" x="156.5" y="-155.5" font-family="Helvetica,sans-Serif" font-size="10.00">WeaponUpgradeSpecifier.From</text>
<text text-anchor="middle" x="224.5" y="-144.5" font-family="Helvetica,sans-Serif" font-size="10.00">Weapon</text>
</a>
</g>
</g>
<!-- Node1&#45;&gt;Node3 -->
<g id="edge2" class="edge"><title>Node1&#45;&gt;Node3</title>
<path fill="none" stroke="midnightblue" d="M90.779,-118.047C109.777,-122.979 133.572,-129.156 155.747,-134.912"/>
<polygon fill="midnightblue" stroke="midnightblue" points="154.905,-138.31 165.464,-137.435 156.664,-131.534 154.905,-138.31"/>
</g>
<!-- Node5 -->
<g id="node5" class="node"><title>Node5</title>
<g id="a_node5"><a xlink:href="class_weapon_upgrade_specifier.html#a31d8e4b749e4940b492d1b751b98a718" target="_top" xlink:title=" ">
<polygon fill="white" stroke="black" points="144.5,-99 144.5,-118 304.5,-118 304.5,-99 144.5,-99"/>
<text text-anchor="middle" x="224.5" y="-106" font-family="Helvetica,sans-Serif" font-size="10.00">WeaponUpgradeSpecifier.Named</text>
</a>
</g>
</g>
<!-- Node1&#45;&gt;Node5 -->
<g id="edge4" class="edge"><title>Node1&#45;&gt;Node5</title>
<path fill="none" stroke="midnightblue" d="M106.239,-108.5C115.191,-108.5 124.713,-108.5 134.312,-108.5"/>
<polygon fill="midnightblue" stroke="midnightblue" points="134.321,-112 144.321,-108.5 134.321,-105 134.321,-112"/>
</g>
<!-- Node6 -->
<g id="node6" class="node"><title>Node6</title>
<g id="a_node6"><a xlink:href="class_weapon_upgrade_specifier.html#a412896609656cc57abc8bf7803051f95" target="_top" xlink:title=" ">
<polygon fill="white" stroke="black" points="142,-49.5 142,-79.5 307,-79.5 307,-49.5 142,-49.5"/>
<text text-anchor="start" x="150" y="-67.5" font-family="Helvetica,sans-Serif" font-size="10.00">WeaponUpgradeSpecifier.Upgrade</text>
<text text-anchor="middle" x="224.5" y="-56.5" font-family="Helvetica,sans-Serif" font-size="10.00">ByAmount</text>
</a>
</g>
</g>
<!-- Node1&#45;&gt;Node6 -->
<g id="edge5" class="edge"><title>Node1&#45;&gt;Node6</title>
<path fill="none" stroke="midnightblue" d="M90.779,-98.9527C109.777,-94.0209 133.572,-87.8442 155.747,-82.0879"/>
<polygon fill="midnightblue" stroke="midnightblue" points="156.664,-85.4658 165.464,-79.5654 154.905,-78.6903 156.664,-85.4658"/>
</g>
<!-- Node7 -->
<g id="node7" class="node"><title>Node7</title>
<g id="a_node7"><a xlink:href="class_weapon_upgrade_specifier.html#a5df18477c8eed2038290bcee75209aa7" target="_top" xlink:title=" ">
<polygon fill="white" stroke="black" points="142,-0.5 142,-30.5 307,-30.5 307,-0.5 142,-0.5"/>
<text text-anchor="start" x="150" y="-18.5" font-family="Helvetica,sans-Serif" font-size="10.00">WeaponUpgradeSpecifier.Upgrade</text>
<text text-anchor="middle" x="224.5" y="-7.5" font-family="Helvetica,sans-Serif" font-size="10.00">ByPercentage</text>
</a>
</g>
</g>
<!-- Node1&#45;&gt;Node7 -->
<g id="edge6" class="edge"><title>Node1&#45;&gt;Node7</title>
<path fill="none" stroke="midnightblue" d="M63.9859,-98.7893C79.4816,-84.2102 110.795,-56.657 142,-40.5 146.292,-38.2778 150.815,-36.2157 155.441,-34.309"/>
<polygon fill="midnightblue" stroke="midnightblue" points="156.964,-37.4729 165.038,-30.6122 154.448,-30.9407 156.964,-37.4729"/>
</g>
<!-- Node4 -->
<g id="node4" class="node"><title>Node4</title>
<g id="a_node4"><a xlink:href="class_weapon_upgrade_specifier.html#a9c91ad46b6dfef17fad81202789d8bc2" target="_top" xlink:title=" ">
<polygon fill="white" stroke="black" points="343,-137.5 343,-167.5 508,-167.5 508,-137.5 343,-137.5"/>
<text text-anchor="start" x="351" y="-155.5" font-family="Helvetica,sans-Serif" font-size="10.00">WeaponUpgradeSpecifier.Weapon</text>
<text text-anchor="middle" x="425.5" y="-144.5" font-family="Helvetica,sans-Serif" font-size="10.00">UpgradeSpecifier</text>
</a>
</g>
</g>
<!-- Node3&#45;&gt;Node4 -->
<g id="edge3" class="edge"><title>Node3&#45;&gt;Node4</title>
<path fill="none" stroke="midnightblue" d="M300.733,-152.5C311.159,-152.5 321.964,-152.5 332.65,-152.5"/>
<polygon fill="midnightblue" stroke="midnightblue" points="332.844,-156 342.844,-152.5 332.843,-149 332.844,-156"/>
</g>
</g>
</svg>
        <g id="navigator" transform="translate(0 0)" fill="#404254">
                <rect fill="#f2f5e9" fill-opacity="0.5" stroke="#606060" stroke-width=".5" x="0" y="0" width="60" height="60"/>
                <use id="zoomplus" xlink:href="#zoomPlus" x="17" y="9" onmousedown="handleZoom(evt,'in')"/>
                <use id="zoomminus" xlink:href="#zoomMin" x="42" y="9" onmousedown="handleZoom(evt,'out')"/>
                <use id="reset" xlink:href="#resetDef" x="30" y="36" onmousedown="handleReset()"/>
                <g id="arrowUp" xlink:href="#dirArrow" transform="translate(30 24)" onmousedown="handlePan(0,-1)">
                  <use xlink:href="#rim" fill="#404040">
                        <set attributeName="fill" to="#808080" begin="arrowUp.mouseover" end="arrowUp.mouseout"/>
                  </use>
                  <path fill="none" stroke="white" stroke-width="1.5" d="M0,-3.0v7 M-2.5,-0.5L0,-3.0L2.5,-0.5"/>
                </g>
                <g id="arrowRight" xlink:href="#dirArrow" transform="rotate(90) translate(36 -43)" onmousedown="handlePan(1,0)">
                  <use xlink:href="#rim" fill="#404040">
                        <set attributeName="fill" to="#808080" begin="arrowRight.mouseover" end="arrowRight.mouseout"/>
                  </use>
                  <path fill="none" stroke="white" stroke-width="1.5" d="M0,-3.0v7 M-2.5,-0.5L0,-3.0L2.5,-0.5"/>
                </g>
                <g id="arrowDown" xlink:href="#dirArrow" transform="rotate(180) translate(-30 -48)" onmousedown="handlePan(0,1)">
                  <use xlink:href="#rim" fill="#404040">
                        <set attributeName="fill" to="#808080" begin="arrowDown.mouseover" end="arrowDown.mouseout"/>
                  </use>
                  <path fill="none" stroke="white" stroke-width="1.5" d="M0,-3.0v7 M-2.5,-0.5L0,-3.0L2.5,-0.5"/>
                </g>
                <g id="arrowLeft" xlink:href="#dirArrow" transform="rotate(270) translate(-36 17)" onmousedown="handlePan(-1,0)">
                  <use xlink:href="#rim" fill="#404040">
                        <set attributeName="fill" to="#808080" begin="arrowLeft.mouseover" end="arrowLeft.mouseout"/>
                  </use>
                  <path fill="none" stroke="white" stroke-width="1.5" d="M0,-3.0v7 M-2.5,-0.5L0,-3.0L2.5,-0.5"/>
                </g>
        </g>
        <svg viewBox="0 0 15 15" width="100%" height="30px" preserveAspectRatio="xMaxYMin meet">
         <g id="arrow_out" transform="scale(0.3 0.3)">
          <a xlink:href="class_sky_net_aad35e4c2d375c3d99061020609b10cc2_cgraph_org.svg" target="_base">
           <rect id="button" ry="5" rx="5" y="6" x="6" height="38" width="38"
                fill="#f2f5e9" fill-opacity="0.5" stroke="#606060" stroke-width="1.0"/>
           <path id="arrow"
             d="M 11.500037,31.436501 C 11.940474,20.09759 22.043105,11.32322 32.158766,21.979434 L 37.068811,17.246167 C 37.068811,17.246167 37.088388,32 37.088388,32 L 22.160133,31.978069 C 22.160133,31.978069 26.997745,27.140456 26.997745,27.140456 C 18.528582,18.264221 13.291696,25.230495 11.500037,31.436501 z"
             style="fill:#404040;"/>
          </a>
         </g>
        </svg>
</svg>
