<?xml version="1.0" encoding="UTF-8" standalone="no"?>
<!DOCTYPE svg PUBLIC "-//W3C//DTD SVG 1.1//EN"
 "http://www.w3.org/Graphics/SVG/1.1/DTD/svg11.dtd">
<!-- Generated by graphviz version 2.38.0 (20140413.2041)
 -->
<!-- Title: Robowars.Robot Pages: 1 -->
<svg width="220pt" height="314pt"
 viewBox="0.00 0.00 220.00 314.00" xmlns="http://www.w3.org/2000/svg" xmlns:xlink="http://www.w3.org/1999/xlink">
<g id="graph0" class="graph" transform="scale(1 1) rotate(0) translate(4 310)">
<title>Robowars.Robot</title>
<polygon fill="white" stroke="none" points="-4,4 -4,-310 216,-310 216,4 -4,4"/>
<!-- Node1 -->
<g id="node1" class="node"><title>Node1</title>
<g id="a_node1"><a xlink:title=" ">
<polygon fill="#bfbfbf" stroke="black" points="46,-116.5 46,-305.5 154,-305.5 154,-116.5 46,-116.5"/>
<text text-anchor="middle" x="100" y="-293.5" font-family="Helvetica,sans-Serif" font-size="10.00">Robowars.Robot</text>
<polyline fill="none" stroke="black" points="46,-286.5 154,-286.5 "/>
<text text-anchor="start" x="54" y="-274.5" font-family="Helvetica,sans-Serif" font-size="10.00">+ IsDestroyed</text>
<text text-anchor="start" x="54" y="-263.5" font-family="Helvetica,sans-Serif" font-size="10.00">+ IsActive</text>
<text text-anchor="start" x="54" y="-252.5" font-family="Helvetica,sans-Serif" font-size="10.00">+ IsStandby</text>
<text text-anchor="start" x="54" y="-241.5" font-family="Helvetica,sans-Serif" font-size="10.00">+ IsMoving</text>
<text text-anchor="start" x="54" y="-230.5" font-family="Helvetica,sans-Serif" font-size="10.00">+ Situation</text>
<text text-anchor="start" x="54" y="-219.5" font-family="Helvetica,sans-Serif" font-size="10.00">+ Name</text>
<text text-anchor="start" x="54" y="-208.5" font-family="Helvetica,sans-Serif" font-size="10.00">+ PowerLevel</text>
<text text-anchor="start" x="54" y="-197.5" font-family="Helvetica,sans-Serif" font-size="10.00">+ Weapons</text>
<text text-anchor="start" x="54" y="-186.5" font-family="Helvetica,sans-Serif" font-size="10.00">&#45; _weapons</text>
<polyline fill="none" stroke="black" points="46,-179.5 154,-179.5 "/>
<text text-anchor="start" x="54" y="-167.5" font-family="Helvetica,sans-Serif" font-size="10.00">+ TakeDamage()</text>
<text text-anchor="start" x="54" y="-156.5" font-family="Helvetica,sans-Serif" font-size="10.00">+ Report()</text>
<text text-anchor="start" x="54" y="-145.5" font-family="Helvetica,sans-Serif" font-size="10.00">+ Attack()</text>
<text text-anchor="start" x="54" y="-134.5" font-family="Helvetica,sans-Serif" font-size="10.00">+ ActivateIfPossible()</text>
<text text-anchor="start" x="54" y="-123.5" font-family="Helvetica,sans-Serif" font-size="10.00">~ Robot()</text>
</a>
</g>
</g>
<!-- Node2 -->
<g id="node2" class="node"><title>Node2</title>
<g id="a_node2"><a xlink:href="class_robowars_1_1_miner.html" target="_top" xlink:title=" ">
<polygon fill="white" stroke="black" points="0,-0.5 0,-79.5 86,-79.5 86,-0.5 0,-0.5"/>
<text text-anchor="middle" x="43" y="-67.5" font-family="Helvetica,sans-Serif" font-size="10.00">Robowars.Miner</text>
<polyline fill="none" stroke="black" points="0,-60.5 86,-60.5 "/>
<text text-anchor="start" x="8" y="-48.5" font-family="Helvetica,sans-Serif" font-size="10.00">+ Color</text>
<text text-anchor="start" x="8" y="-37.5" font-family="Helvetica,sans-Serif" font-size="10.00">+ day</text>
<polyline fill="none" stroke="black" points="0,-30.5 86,-30.5 "/>
<text text-anchor="start" x="8" y="-18.5" font-family="Helvetica,sans-Serif" font-size="10.00">+ Report()</text>
<text text-anchor="start" x="8" y="-7.5" font-family="Helvetica,sans-Serif" font-size="10.00">~ Miner()</text>
</a>
</g>
</g>
<!-- Node1&#45;&gt;Node2 -->
<g id="edge1" class="edge"><title>Node1&#45;&gt;Node2</title>
<path fill="none" stroke="midnightblue" d="M65.1288,-106.61C61.9555,-97.2013 58.8932,-88.1219 56.1105,-79.8714"/>
<polygon fill="none" stroke="midnightblue" points="61.8206,-107.753 68.333,-116.11 68.4535,-105.516 61.8206,-107.753"/>
</g>
<!-- Node3 -->
<g id="node3" class="node"><title>Node3</title>
<g id="a_node3"><a xlink:href="class_robowars_1_1_terminator.html" target="_top" xlink:title=" ">
<polygon fill="white" stroke="black" points="104,-6 104,-74 212,-74 212,-6 104,-6"/>
<text text-anchor="middle" x="158" y="-62" font-family="Helvetica,sans-Serif" font-size="10.00">Robowars.Terminator</text>
<polyline fill="none" stroke="black" points="104,-55 212,-55 "/>
<text text-anchor="start" x="112" y="-43" font-family="Helvetica,sans-Serif" font-size="10.00">+ Mark</text>
<polyline fill="none" stroke="black" points="104,-36 212,-36 "/>
<text text-anchor="start" x="112" y="-24" font-family="Helvetica,sans-Serif" font-size="10.00">+ Report()</text>
<text text-anchor="start" x="112" y="-13" font-family="Helvetica,sans-Serif" font-size="10.00">~ Terminator()</text>
</a>
</g>
</g>
<!-- Node1&#45;&gt;Node3 -->
<g id="edge2" class="edge"><title>Node1&#45;&gt;Node3</title>
<path fill="none" stroke="midnightblue" d="M135.584,-106.316C139.545,-94.7737 143.333,-83.7355 146.631,-74.126"/>
<polygon fill="none" stroke="midnightblue" points="132.158,-105.515 132.223,-116.11 138.779,-107.788 132.158,-105.515"/>
</g>
</g>
</svg>
