<?xml version="1.0" encoding="UTF-8" standalone="no"?>
<!DOCTYPE svg PUBLIC "-//W3C//DTD SVG 1.1//EN"
 "http://www.w3.org/Graphics/SVG/1.1/DTD/svg11.dtd">
<!-- Generated by graphviz version 2.38.0 (20140413.2041)
 -->
<!-- Title: Robowars.Robot.RobotSituation Pages: 1 -->
<svg width="431pt" height="408pt"
 viewBox="0.00 0.00 430.50 408.00" xmlns="http://www.w3.org/2000/svg" xmlns:xlink="http://www.w3.org/1999/xlink">
<g id="graph0" class="graph" transform="scale(1 1) rotate(0) translate(4 404)">
<title>Robowars.Robot.RobotSituation</title>
<polygon fill="white" stroke="none" points="-4,4 -4,-404 426.5,-404 426.5,4 -4,4"/>
<!-- Node1 -->
<g id="node1" class="node"><title>Node1</title>
<g id="a_node1"><a xlink:title="Represents a Situation a robot can have; Each method is a transition to a different situation,...">
<polygon fill="#bfbfbf" stroke="black" points="132.5,-254.5 132.5,-399.5 287.5,-399.5 287.5,-254.5 132.5,-254.5"/>
<text text-anchor="middle" x="210" y="-387.5" font-family="Helvetica,sans-Serif" font-size="10.00">Robowars.Robot.RobotSituation</text>
<polyline fill="none" stroke="black" points="132.5,-380.5 287.5,-380.5 "/>
<text text-anchor="start" x="140.5" y="-368.5" font-family="Helvetica,sans-Serif" font-size="10.00">+ Description</text>
<text text-anchor="start" x="140.5" y="-357.5" font-family="Helvetica,sans-Serif" font-size="10.00">+ Context</text>
<text text-anchor="start" x="140.5" y="-346.5" font-family="Helvetica,sans-Serif" font-size="10.00">+ Feedback</text>
<polyline fill="none" stroke="black" points="132.5,-339.5 287.5,-339.5 "/>
<text text-anchor="start" x="140.5" y="-327.5" font-family="Helvetica,sans-Serif" font-size="10.00">+ RobotSituation()</text>
<text text-anchor="start" x="140.5" y="-316.5" font-family="Helvetica,sans-Serif" font-size="10.00">+ Ready()</text>
<text text-anchor="start" x="140.5" y="-305.5" font-family="Helvetica,sans-Serif" font-size="10.00">+ Attack()</text>
<text text-anchor="start" x="140.5" y="-294.5" font-family="Helvetica,sans-Serif" font-size="10.00">+ Deactivate()</text>
<text text-anchor="start" x="140.5" y="-283.5" font-family="Helvetica,sans-Serif" font-size="10.00">+ TakeDamage()</text>
<text text-anchor="start" x="140.5" y="-272.5" font-family="Helvetica,sans-Serif" font-size="10.00"># Destroy()</text>
<text text-anchor="start" x="140.5" y="-261.5" font-family="Helvetica,sans-Serif" font-size="10.00">&#45; RobotSituation()</text>
</a>
</g>
</g>
<!-- Node2 -->
<g id="node2" class="node"><title>Node2</title>
<g id="a_node2"><a xlink:href="class_robowars_1_1_robot_1_1_active.html" target="_top" xlink:title=" ">
<polygon fill="white" stroke="black" points="7.5,-116.5 7.5,-217.5 124.5,-217.5 124.5,-116.5 7.5,-116.5"/>
<text text-anchor="middle" x="66" y="-205.5" font-family="Helvetica,sans-Serif" font-size="10.00">Robowars.Robot.Active</text>
<polyline fill="none" stroke="black" points="7.5,-198.5 124.5,-198.5 "/>
<text text-anchor="middle" x="66" y="-186.5" font-family="Helvetica,sans-Serif" font-size="10.00"> </text>
<polyline fill="none" stroke="black" points="7.5,-179.5 124.5,-179.5 "/>
<text text-anchor="start" x="15.5" y="-167.5" font-family="Helvetica,sans-Serif" font-size="10.00">+ Active()</text>
<text text-anchor="start" x="15.5" y="-156.5" font-family="Helvetica,sans-Serif" font-size="10.00">+ Ready()</text>
<text text-anchor="start" x="15.5" y="-145.5" font-family="Helvetica,sans-Serif" font-size="10.00">+ Deactivate()</text>
<text text-anchor="start" x="15.5" y="-134.5" font-family="Helvetica,sans-Serif" font-size="10.00">+ Attack()</text>
<text text-anchor="start" x="15.5" y="-123.5" font-family="Helvetica,sans-Serif" font-size="10.00"># Destroy()</text>
</a>
</g>
</g>
<!-- Node1&#45;&gt;Node2 -->
<g id="edge1" class="edge"><title>Node1&#45;&gt;Node2</title>
<path fill="none" stroke="midnightblue" d="M137.83,-246.814C128.781,-236.885 119.736,-226.96 111.266,-217.667"/>
<polygon fill="none" stroke="midnightblue" points="135.418,-249.363 144.741,-254.397 140.592,-244.648 135.418,-249.363"/>
</g>
<!-- Node4 -->
<g id="node4" class="node"><title>Node4</title>
<g id="a_node4"><a xlink:href="class_robowars_1_1_robot_1_1_destroyed.html" target="_top" xlink:title=" ">
<polygon fill="white" stroke="black" points="142.5,-116.5 142.5,-217.5 277.5,-217.5 277.5,-116.5 142.5,-116.5"/>
<text text-anchor="middle" x="210" y="-205.5" font-family="Helvetica,sans-Serif" font-size="10.00">Robowars.Robot.Destroyed</text>
<polyline fill="none" stroke="black" points="142.5,-198.5 277.5,-198.5 "/>
<text text-anchor="middle" x="210" y="-186.5" font-family="Helvetica,sans-Serif" font-size="10.00"> </text>
<polyline fill="none" stroke="black" points="142.5,-179.5 277.5,-179.5 "/>
<text text-anchor="start" x="150.5" y="-167.5" font-family="Helvetica,sans-Serif" font-size="10.00">+ Destroyed()</text>
<text text-anchor="start" x="150.5" y="-156.5" font-family="Helvetica,sans-Serif" font-size="10.00">+ Ready()</text>
<text text-anchor="start" x="150.5" y="-145.5" font-family="Helvetica,sans-Serif" font-size="10.00">+ Deactivate()</text>
<text text-anchor="start" x="150.5" y="-134.5" font-family="Helvetica,sans-Serif" font-size="10.00">+ Attack()</text>
<text text-anchor="start" x="150.5" y="-123.5" font-family="Helvetica,sans-Serif" font-size="10.00"># Destroy()</text>
</a>
</g>
</g>
<!-- Node1&#45;&gt;Node4 -->
<g id="edge3" class="edge"><title>Node1&#45;&gt;Node4</title>
<path fill="none" stroke="midnightblue" d="M210,-244.186C210,-235.139 210,-226.14 210,-217.667"/>
<polygon fill="none" stroke="midnightblue" points="206.5,-244.397 210,-254.397 213.5,-244.397 206.5,-244.397"/>
</g>
<!-- Node5 -->
<g id="node5" class="node"><title>Node5</title>
<g id="a_node5"><a xlink:href="class_robowars_1_1_robot_1_1_standby.html" target="_top" xlink:title=" ">
<polygon fill="white" stroke="black" points="295.5,-116.5 295.5,-217.5 422.5,-217.5 422.5,-116.5 295.5,-116.5"/>
<text text-anchor="middle" x="359" y="-205.5" font-family="Helvetica,sans-Serif" font-size="10.00">Robowars.Robot.Standby</text>
<polyline fill="none" stroke="black" points="295.5,-198.5 422.5,-198.5 "/>
<text text-anchor="middle" x="359" y="-186.5" font-family="Helvetica,sans-Serif" font-size="10.00"> </text>
<polyline fill="none" stroke="black" points="295.5,-179.5 422.5,-179.5 "/>
<text text-anchor="start" x="303.5" y="-167.5" font-family="Helvetica,sans-Serif" font-size="10.00">+ Standby()</text>
<text text-anchor="start" x="303.5" y="-156.5" font-family="Helvetica,sans-Serif" font-size="10.00">+ Ready()</text>
<text text-anchor="start" x="303.5" y="-145.5" font-family="Helvetica,sans-Serif" font-size="10.00">+ Deactivate()</text>
<text text-anchor="start" x="303.5" y="-134.5" font-family="Helvetica,sans-Serif" font-size="10.00">+ Attack()</text>
<text text-anchor="start" x="303.5" y="-123.5" font-family="Helvetica,sans-Serif" font-size="10.00"># Destroy()</text>
</a>
</g>
</g>
<!-- Node1&#45;&gt;Node5 -->
<g id="edge4" class="edge"><title>Node1&#45;&gt;Node5</title>
<path fill="none" stroke="midnightblue" d="M284.4,-247.106C293.855,-237.08 303.312,-227.052 312.162,-217.667"/>
<polygon fill="none" stroke="midnightblue" points="281.839,-244.72 277.525,-254.397 286.932,-249.523 281.839,-244.72"/>
</g>
<!-- Node3 -->
<g id="node3" class="node"><title>Node3</title>
<g id="a_node3"><a xlink:href="class_robowars_1_1_robot_1_1_attacking.html" target="_top" xlink:title=" ">
<polygon fill="white" stroke="black" points="0,-0.5 0,-79.5 132,-79.5 132,-0.5 0,-0.5"/>
<text text-anchor="middle" x="66" y="-67.5" font-family="Helvetica,sans-Serif" font-size="10.00">Robowars.Robot.Attacking</text>
<polyline fill="none" stroke="black" points="0,-60.5 132,-60.5 "/>
<text text-anchor="middle" x="66" y="-48.5" font-family="Helvetica,sans-Serif" font-size="10.00"> </text>
<polyline fill="none" stroke="black" points="0,-41.5 132,-41.5 "/>
<text text-anchor="start" x="8" y="-29.5" font-family="Helvetica,sans-Serif" font-size="10.00">+ Attacking()</text>
<text text-anchor="start" x="8" y="-18.5" font-family="Helvetica,sans-Serif" font-size="10.00">+ Ready()</text>
<text text-anchor="start" x="8" y="-7.5" font-family="Helvetica,sans-Serif" font-size="10.00">+ Attack()</text>
</a>
</g>
</g>
<!-- Node2&#45;&gt;Node3 -->
<g id="edge2" class="edge"><title>Node2&#45;&gt;Node3</title>
<path fill="none" stroke="midnightblue" d="M66,-106.186C66,-97.2207 66,-88.1815 66,-79.8082"/>
<polygon fill="none" stroke="midnightblue" points="62.5001,-106.237 66,-116.238 69.5001,-106.238 62.5001,-106.237"/>
</g>
</g>
</svg>
