<?xml version="1.0" encoding="UTF-8" standalone="no"?>
<!DOCTYPE svg PUBLIC "-//W3C//DTD SVG 1.1//EN"
 "http://www.w3.org/Graphics/SVG/1.1/DTD/svg11.dtd">
<!-- Generated by graphviz version 2.38.0 (20140413.2041)
 -->
<!-- Title: Robowars.Robots.Terminator Pages: 1 -->
<svg width="150pt" height="292pt"
 viewBox="0.00 0.00 150.00 292.00" xmlns="http://www.w3.org/2000/svg" xmlns:xlink="http://www.w3.org/1999/xlink">
<g id="graph0" class="graph" transform="scale(1 1) rotate(0) translate(4 288)">
<title>Robowars.Robots.Terminator</title>
<polygon fill="white" stroke="none" points="-4,4 -4,-288 146,-288 146,4 -4,4"/>
<!-- Node1 -->
<g id="node1" class="node"><title>Node1</title>
<g id="a_node1"><a xlink:title="Represents a killer&#45;robot designed to &#39;terminate&#39; others">
<polygon fill="#bfbfbf" stroke="black" points="0,-0.5 0,-68.5 142,-68.5 142,-0.5 0,-0.5"/>
<text text-anchor="middle" x="71" y="-56.5" font-family="Helvetica,sans-Serif" font-size="10.00">Robowars.Robots.Terminator</text>
<polyline fill="none" stroke="black" points="0,-49.5 142,-49.5 "/>
<text text-anchor="start" x="8" y="-37.5" font-family="Helvetica,sans-Serif" font-size="10.00">+ Mark</text>
<polyline fill="none" stroke="black" points="0,-30.5 142,-30.5 "/>
<text text-anchor="start" x="8" y="-18.5" font-family="Helvetica,sans-Serif" font-size="10.00">+ Report()</text>
<text text-anchor="start" x="8" y="-7.5" font-family="Helvetica,sans-Serif" font-size="10.00">~ Terminator()</text>
</a>
</g>
</g>
<!-- Node2 -->
<g id="node2" class="node"><title>Node2</title>
<g id="a_node2"><a xlink:href="class_robowars_1_1_robots_1_1_robot.html" target="_top" xlink:title="An interface and abstract implementation for basic Robot functionality">
<polygon fill="white" stroke="black" points="17,-105.5 17,-283.5 125,-283.5 125,-105.5 17,-105.5"/>
<text text-anchor="middle" x="71" y="-271.5" font-family="Helvetica,sans-Serif" font-size="10.00">Robot</text>
<polyline fill="none" stroke="black" points="17,-264.5 125,-264.5 "/>
<text text-anchor="start" x="25" y="-252.5" font-family="Helvetica,sans-Serif" font-size="10.00">+ IsDestroyed</text>
<text text-anchor="start" x="25" y="-241.5" font-family="Helvetica,sans-Serif" font-size="10.00">+ IsActive</text>
<text text-anchor="start" x="25" y="-230.5" font-family="Helvetica,sans-Serif" font-size="10.00">+ IsStandby</text>
<text text-anchor="start" x="25" y="-219.5" font-family="Helvetica,sans-Serif" font-size="10.00">+ IsMoving</text>
<text text-anchor="start" x="25" y="-208.5" font-family="Helvetica,sans-Serif" font-size="10.00">+ Situation</text>
<text text-anchor="start" x="25" y="-197.5" font-family="Helvetica,sans-Serif" font-size="10.00">+ Name</text>
<text text-anchor="start" x="25" y="-186.5" font-family="Helvetica,sans-Serif" font-size="10.00">+ PowerLevel</text>
<text text-anchor="start" x="25" y="-175.5" font-family="Helvetica,sans-Serif" font-size="10.00">+ Weapons</text>
<polyline fill="none" stroke="black" points="17,-168.5 125,-168.5 "/>
<text text-anchor="start" x="25" y="-156.5" font-family="Helvetica,sans-Serif" font-size="10.00">+ TakeDamage()</text>
<text text-anchor="start" x="25" y="-145.5" font-family="Helvetica,sans-Serif" font-size="10.00">+ Report()</text>
<text text-anchor="start" x="25" y="-134.5" font-family="Helvetica,sans-Serif" font-size="10.00">+ Attack()</text>
<text text-anchor="start" x="25" y="-123.5" font-family="Helvetica,sans-Serif" font-size="10.00">+ ActivateIfPossible()</text>
<text text-anchor="start" x="25" y="-112.5" font-family="Helvetica,sans-Serif" font-size="10.00">~ Robot()</text>
</a>
</g>
</g>
<!-- Node2&#45;&gt;Node1 -->
<g id="edge1" class="edge"><title>Node2&#45;&gt;Node1</title>
<path fill="none" stroke="midnightblue" d="M71,-94.9951C71,-85.6501 71,-76.6935 71,-68.6942"/>
<polygon fill="none" stroke="midnightblue" points="67.5001,-95.261 71,-105.261 74.5001,-95.2611 67.5001,-95.261"/>
</g>
</g>
</svg>
