<?xml version="1.0" encoding="UTF-8" standalone="no"?>
<!DOCTYPE svg PUBLIC "-//W3C//DTD SVG 1.1//EN"
 "http://www.w3.org/Graphics/SVG/1.1/DTD/svg11.dtd">
<!-- Generated by graphviz version 2.38.0 (20140413.2041)
 -->
<!-- Title: Weapon Pages: 1 -->
<svg width="434pt" height="298pt"
 viewBox="0.00 0.00 434.00 298.00" xmlns="http://www.w3.org/2000/svg" xmlns:xlink="http://www.w3.org/1999/xlink">
<g id="graph0" class="graph" transform="scale(1 1) rotate(0) translate(4 294)">
<title>Weapon</title>
<polygon fill="white" stroke="none" points="-4,4 -4,-294 430,-294 430,4 -4,4"/>
<!-- Node1 -->
<g id="node1" class="node"><title>Node1</title>
<g id="a_node1"><a xlink:title="Defines a top level interface for a weapon.">
<polygon fill="#bfbfbf" stroke="black" points="89,-210.5 89,-289.5 172,-289.5 172,-210.5 89,-210.5"/>
<text text-anchor="middle" x="130.5" y="-277.5" font-family="Helvetica,sans-Serif" font-size="10.00">Weapon</text>
<polyline fill="none" stroke="black" points="89,-270.5 172,-270.5 "/>
<text text-anchor="start" x="97" y="-258.5" font-family="Helvetica,sans-Serif" font-size="10.00">+ PowerDrain</text>
<text text-anchor="start" x="97" y="-247.5" font-family="Helvetica,sans-Serif" font-size="10.00">+ Name</text>
<text text-anchor="start" x="97" y="-236.5" font-family="Helvetica,sans-Serif" font-size="10.00">+ Damage</text>
<polyline fill="none" stroke="black" points="89,-229.5 172,-229.5 "/>
<text text-anchor="start" x="97" y="-217.5" font-family="Helvetica,sans-Serif" font-size="10.00">+ GetDamage()</text>
</a>
</g>
</g>
<!-- Node2 -->
<g id="node2" class="node"><title>Node2</title>
<g id="a_node2"><a xlink:href="class_hammer.html" target="_top" xlink:title=" ">
<polygon fill="white" stroke="black" points="0,-116.5 0,-173.5 75,-173.5 75,-116.5 0,-116.5"/>
<text text-anchor="middle" x="37.5" y="-161.5" font-family="Helvetica,sans-Serif" font-size="10.00">Hammer</text>
<polyline fill="none" stroke="black" points="0,-154.5 75,-154.5 "/>
<text text-anchor="start" x="8" y="-142.5" font-family="Helvetica,sans-Serif" font-size="10.00">+ PowerDrain</text>
<polyline fill="none" stroke="black" points="0,-135.5 75,-135.5 "/>
<text text-anchor="start" x="8" y="-123.5" font-family="Helvetica,sans-Serif" font-size="10.00">+ Hammer()</text>
</a>
</g>
</g>
<!-- Node1&#45;&gt;Node2 -->
<g id="edge1" class="edge"><title>Node1&#45;&gt;Node2</title>
<path fill="none" stroke="midnightblue" d="M88.7918,-202.807C79.7901,-192.837 70.5462,-182.6 62.429,-173.61"/>
<polygon fill="none" stroke="midnightblue" points="86.3063,-205.277 95.6056,-210.354 91.5018,-200.586 86.3063,-205.277"/>
</g>
<!-- Node3 -->
<g id="node3" class="node"><title>Node3</title>
<g id="a_node3"><a xlink:href="class_laser.html" target="_top" xlink:title=" ">
<polygon fill="white" stroke="black" points="93,-116.5 93,-173.5 168,-173.5 168,-116.5 93,-116.5"/>
<text text-anchor="middle" x="130.5" y="-161.5" font-family="Helvetica,sans-Serif" font-size="10.00">Laser</text>
<polyline fill="none" stroke="black" points="93,-154.5 168,-154.5 "/>
<text text-anchor="start" x="101" y="-142.5" font-family="Helvetica,sans-Serif" font-size="10.00">+ PowerDrain</text>
<polyline fill="none" stroke="black" points="93,-135.5 168,-135.5 "/>
<text text-anchor="start" x="101" y="-123.5" font-family="Helvetica,sans-Serif" font-size="10.00">+ Laser()</text>
</a>
</g>
</g>
<!-- Node1&#45;&gt;Node3 -->
<g id="edge2" class="edge"><title>Node1&#45;&gt;Node3</title>
<path fill="none" stroke="midnightblue" d="M130.5,-200.163C130.5,-191.04 130.5,-181.806 130.5,-173.61"/>
<polygon fill="none" stroke="midnightblue" points="127,-200.354 130.5,-210.354 134,-200.354 127,-200.354"/>
</g>
<!-- Node4 -->
<g id="node4" class="node"><title>Node4</title>
<g id="a_node4"><a xlink:href="class_weapon_enhancement.html" target="_top" xlink:title="Represents an enchancement of a Weapon, by transparently wrapping the weapon while also implementing ...">
<polygon fill="white" stroke="black" points="186,-116.5 186,-173.5 299,-173.5 299,-116.5 186,-116.5"/>
<text text-anchor="middle" x="242.5" y="-161.5" font-family="Helvetica,sans-Serif" font-size="10.00">WeaponEnhancement</text>
<polyline fill="none" stroke="black" points="186,-154.5 299,-154.5 "/>
<text text-anchor="start" x="194" y="-142.5" font-family="Helvetica,sans-Serif" font-size="10.00">+ EnhancedWeapon</text>
<polyline fill="none" stroke="black" points="186,-135.5 299,-135.5 "/>
<text text-anchor="start" x="194" y="-123.5" font-family="Helvetica,sans-Serif" font-size="10.00">+ GetDamage()</text>
</a>
</g>
</g>
<!-- Node1&#45;&gt;Node4 -->
<g id="edge3" class="edge"><title>Node1&#45;&gt;Node4</title>
<path fill="none" stroke="midnightblue" d="M179.791,-203.67C190.863,-193.488 202.29,-182.979 212.306,-173.767"/>
<polygon fill="none" stroke="midnightblue" points="177.196,-201.301 172.205,-210.647 181.935,-206.454 177.196,-201.301"/>
</g>
<!-- Node5 -->
<g id="node5" class="node"><title>Node5</title>
<g id="a_node5"><a xlink:href="class_fixed_damage_bonus_weapon.html" target="_top" xlink:title=" ">
<polygon fill="white" stroke="black" points="72,-0.5 72,-79.5 227,-79.5 227,-0.5 72,-0.5"/>
<text text-anchor="middle" x="149.5" y="-67.5" font-family="Helvetica,sans-Serif" font-size="10.00">FixedDamageBonusWeapon</text>
<polyline fill="none" stroke="black" points="72,-60.5 227,-60.5 "/>
<text text-anchor="start" x="80" y="-48.5" font-family="Helvetica,sans-Serif" font-size="10.00">+ PowerDrain</text>
<text text-anchor="start" x="80" y="-37.5" font-family="Helvetica,sans-Serif" font-size="10.00">+ Bonus</text>
<polyline fill="none" stroke="black" points="72,-30.5 227,-30.5 "/>
<text text-anchor="start" x="80" y="-18.5" font-family="Helvetica,sans-Serif" font-size="10.00">+ FixedDamageBonusWeapon()</text>
<text text-anchor="start" x="80" y="-7.5" font-family="Helvetica,sans-Serif" font-size="10.00">+ GetDamage()</text>
</a>
</g>
</g>
<!-- Node4&#45;&gt;Node5 -->
<g id="edge4" class="edge"><title>Node4&#45;&gt;Node5</title>
<path fill="none" stroke="midnightblue" d="M210.641,-108.715C202.146,-99.3064 192.924,-89.0934 184.281,-79.5205"/>
<polygon fill="none" stroke="midnightblue" points="208.278,-111.321 217.578,-116.398 213.474,-106.63 208.278,-111.321"/>
</g>
<!-- Node6 -->
<g id="node6" class="node"><title>Node6</title>
<g id="a_node6"><a xlink:href="class_percentage_bonus_damage_weapon.html" target="_top" xlink:title=" ">
<polygon fill="white" stroke="black" points="245,-0.5 245,-79.5 426,-79.5 426,-0.5 245,-0.5"/>
<text text-anchor="middle" x="335.5" y="-67.5" font-family="Helvetica,sans-Serif" font-size="10.00">PercentageBonusDamageWeapon</text>
<polyline fill="none" stroke="black" points="245,-60.5 426,-60.5 "/>
<text text-anchor="start" x="253" y="-48.5" font-family="Helvetica,sans-Serif" font-size="10.00">+ PowerDrain</text>
<text text-anchor="start" x="253" y="-37.5" font-family="Helvetica,sans-Serif" font-size="10.00">+ BonusFactor</text>
<polyline fill="none" stroke="black" points="245,-30.5 426,-30.5 "/>
<text text-anchor="start" x="253" y="-18.5" font-family="Helvetica,sans-Serif" font-size="10.00">+ PercentageBonusDamageWeapon()</text>
<text text-anchor="start" x="253" y="-7.5" font-family="Helvetica,sans-Serif" font-size="10.00">+ GetDamage()</text>
</a>
</g>
</g>
<!-- Node4&#45;&gt;Node6 -->
<g id="edge5" class="edge"><title>Node4&#45;&gt;Node6</title>
<path fill="none" stroke="midnightblue" d="M274.359,-108.715C282.854,-99.3064 292.076,-89.0934 300.719,-79.5205"/>
<polygon fill="none" stroke="midnightblue" points="271.526,-106.63 267.422,-116.398 276.722,-111.321 271.526,-106.63"/>
</g>
</g>
</svg>
