<?xml version="1.0" encoding="UTF-8" standalone="no"?>
<!DOCTYPE svg PUBLIC "-//W3C//DTD SVG 1.1//EN"
 "http://www.w3.org/Graphics/SVG/1.1/DTD/svg11.dtd">
<!-- Generated by graphviz version 2.38.0 (20140413.2041)
 -->
<!-- Title: Robowars.WeaponEnhancement.GetDamage Pages: 1 -->
<svg width="578pt" height="39pt"
 viewBox="0.00 0.00 578.00 39.00" xmlns="http://www.w3.org/2000/svg" xmlns:xlink="http://www.w3.org/1999/xlink">
<g id="graph0" class="graph" transform="scale(1 1) rotate(0) translate(4 35)">
<title>Robowars.WeaponEnhancement.GetDamage</title>
<polygon fill="white" stroke="none" points="-4,4 -4,-35 574,-35 574,4 -4,4"/>
<!-- Node1 -->
<g id="node1" class="node"><title>Node1</title>
<g id="a_node1"><a xlink:title=" ">
<polygon fill="#bfbfbf" stroke="black" points="0,-0.5 0,-30.5 161,-30.5 161,-0.5 0,-0.5"/>
<text text-anchor="start" x="8" y="-18.5" font-family="Helvetica,sans-Serif" font-size="10.00">Robowars.WeaponEnhancement.</text>
<text text-anchor="middle" x="80.5" y="-7.5" font-family="Helvetica,sans-Serif" font-size="10.00">GetDamage</text>
</a>
</g>
</g>
<!-- Node2 -->
<g id="node2" class="node"><title>Node2</title>
<g id="a_node2"><a xlink:href="class_robowars_1_1_weapon.html#aa2c866db4e3d5317d1ceda6c29b4dcc4" target="_top" xlink:title=" ">
<polygon fill="white" stroke="black" points="197,-6 197,-25 350,-25 350,-6 197,-6"/>
<text text-anchor="middle" x="273.5" y="-13" font-family="Helvetica,sans-Serif" font-size="10.00">Robowars.Weapon.GetDamage</text>
</a>
</g>
</g>
<!-- Node1&#45;&gt;Node2 -->
<g id="edge1" class="edge"><title>Node1&#45;&gt;Node2</title>
<path fill="none" stroke="midnightblue" d="M161.118,-15.5C169.652,-15.5 178.361,-15.5 186.96,-15.5"/>
<polygon fill="midnightblue" stroke="midnightblue" points="186.988,-19.0001 196.988,-15.5 186.988,-12.0001 186.988,-19.0001"/>
</g>
<!-- Node3 -->
<g id="node3" class="node"><title>Node3</title>
<g id="a_node3"><a xlink:href="class_robowars_1_1_weapon_1_1_damage_rating.html#a467baf6e92ccab89e2668032215af28f" target="_top" xlink:title="Gets a new random damage between Min and Max.">
<polygon fill="white" stroke="black" points="386,-6 386,-25 570,-25 570,-6 386,-6"/>
<text text-anchor="middle" x="478" y="-13" font-family="Helvetica,sans-Serif" font-size="10.00">Robowars.Weapon.DamageRating.Get</text>
</a>
</g>
</g>
<!-- Node2&#45;&gt;Node3 -->
<g id="edge2" class="edge"><title>Node2&#45;&gt;Node3</title>
<path fill="none" stroke="midnightblue" d="M350.191,-15.5C358.508,-15.5 367.071,-15.5 375.635,-15.5"/>
<polygon fill="midnightblue" stroke="midnightblue" points="375.674,-19.0001 385.674,-15.5 375.673,-12.0001 375.674,-19.0001"/>
</g>
</g>
</svg>
