<?xml version="1.0" encoding="UTF-8" standalone="no"?>
<!DOCTYPE svg PUBLIC "-//W3C//DTD SVG 1.1//EN"
 "http://www.w3.org/Graphics/SVG/1.1/DTD/svg11.dtd">
<!-- Generated by graphviz version 2.38.0 (20140413.2041)
 -->
<!-- Title: Robowars.SkyNet Pages: 1 -->
<svg width="109pt" height="215pt"
 viewBox="0.00 0.00 109.00 215.00" xmlns="http://www.w3.org/2000/svg" xmlns:xlink="http://www.w3.org/1999/xlink">
<g id="graph0" class="graph" transform="scale(1 1) rotate(0) translate(4 211)">
<title>Robowars.SkyNet</title>
<polygon fill="white" stroke="none" points="-4,4 -4,-211 105,-211 105,4 -4,4"/>
<!-- Node1 -->
<g id="node1" class="node"><title>Node1</title>
<g id="a_node1"><a xlink:title="Creates terminator robots">
<polygon fill="#bfbfbf" stroke="black" points="3,-0.5 3,-101.5 98,-101.5 98,-0.5 3,-0.5"/>
<text text-anchor="middle" x="50.5" y="-89.5" font-family="Helvetica,sans-Serif" font-size="10.00">Robowars.SkyNet</text>
<polyline fill="none" stroke="black" points="3,-82.5 98,-82.5 "/>
<text text-anchor="start" x="11" y="-70.5" font-family="Helvetica,sans-Serif" font-size="10.00">+ Instance</text>
<text text-anchor="start" x="11" y="-59.5" font-family="Helvetica,sans-Serif" font-size="10.00">&#45; _mark</text>
<text text-anchor="start" x="11" y="-48.5" font-family="Helvetica,sans-Serif" font-size="10.00">&#45; _instance</text>
<text text-anchor="start" x="11" y="-37.5" font-family="Helvetica,sans-Serif" font-size="10.00">&#45; start</text>
<polyline fill="none" stroke="black" points="3,-30.5 98,-30.5 "/>
<text text-anchor="start" x="11" y="-18.5" font-family="Helvetica,sans-Serif" font-size="10.00"># CreateRobot()</text>
<text text-anchor="start" x="11" y="-7.5" font-family="Helvetica,sans-Serif" font-size="10.00">&#45; SkyNet()</text>
</a>
</g>
</g>
<!-- Node2 -->
<g id="node2" class="node"><title>Node2</title>
<g id="a_node2"><a xlink:href="class_robowars_1_1_robot_assembler.html" target="_top" xlink:title="Represents logic regarding how specific robots may be produced.">
<polygon fill="white" stroke="black" points="0,-138.5 0,-206.5 101,-206.5 101,-138.5 0,-138.5"/>
<text text-anchor="middle" x="50.5" y="-194.5" font-family="Helvetica,sans-Serif" font-size="10.00">RobotAssembler</text>
<polyline fill="none" stroke="black" points="0,-187.5 101,-187.5 "/>
<text text-anchor="middle" x="50.5" y="-175.5" font-family="Helvetica,sans-Serif" font-size="10.00"> </text>
<polyline fill="none" stroke="black" points="0,-168.5 101,-168.5 "/>
<text text-anchor="start" x="8" y="-156.5" font-family="Helvetica,sans-Serif" font-size="10.00">+ AssembleRobot()</text>
<text text-anchor="start" x="8" y="-145.5" font-family="Helvetica,sans-Serif" font-size="10.00"># CreateRobot()</text>
</a>
</g>
</g>
<!-- Node2&#45;&gt;Node1 -->
<g id="edge1" class="edge"><title>Node2&#45;&gt;Node1</title>
<path fill="none" stroke="midnightblue" d="M50.5,-128.045C50.5,-119.469 50.5,-110.408 50.5,-101.646"/>
<polygon fill="none" stroke="midnightblue" points="47.0001,-128.213 50.5,-138.213 54.0001,-128.213 47.0001,-128.213"/>
</g>
</g>
</svg>
