<?xml version="1.0" encoding="UTF-8" standalone="no"?>
<!DOCTYPE svg PUBLIC "-//W3C//DTD SVG 1.1//EN"
 "http://www.w3.org/Graphics/SVG/1.1/DTD/svg11.dtd">
<!-- Generated by graphviz version 2.38.0 (20140413.2041)
 -->
<!-- Title: Robowars.Robots.Robot Pages: 1 -->
<svg width="288pt" height="303pt"
 viewBox="0.00 0.00 288.00 303.00" xmlns="http://www.w3.org/2000/svg" xmlns:xlink="http://www.w3.org/1999/xlink">
<g id="graph0" class="graph" transform="scale(1 1) rotate(0) translate(4 299)">
<title>Robowars.Robots.Robot</title>
<polygon fill="white" stroke="none" points="-4,4 -4,-299 284,-299 284,4 -4,4"/>
<!-- Node1 -->
<g id="node1" class="node"><title>Node1</title>
<g id="a_node1"><a xlink:title="An interface and abstract implementation for basic Robot functionality">
<polygon fill="#bfbfbf" stroke="black" points="73,-116.5 73,-294.5 195,-294.5 195,-116.5 73,-116.5"/>
<text text-anchor="middle" x="134" y="-282.5" font-family="Helvetica,sans-Serif" font-size="10.00">Robowars.Robots.Robot</text>
<polyline fill="none" stroke="black" points="73,-275.5 195,-275.5 "/>
<text text-anchor="start" x="81" y="-263.5" font-family="Helvetica,sans-Serif" font-size="10.00">+ IsDestroyed</text>
<text text-anchor="start" x="81" y="-252.5" font-family="Helvetica,sans-Serif" font-size="10.00">+ IsActive</text>
<text text-anchor="start" x="81" y="-241.5" font-family="Helvetica,sans-Serif" font-size="10.00">+ IsStandby</text>
<text text-anchor="start" x="81" y="-230.5" font-family="Helvetica,sans-Serif" font-size="10.00">+ IsMoving</text>
<text text-anchor="start" x="81" y="-219.5" font-family="Helvetica,sans-Serif" font-size="10.00">+ Situation</text>
<text text-anchor="start" x="81" y="-208.5" font-family="Helvetica,sans-Serif" font-size="10.00">+ Name</text>
<text text-anchor="start" x="81" y="-197.5" font-family="Helvetica,sans-Serif" font-size="10.00">+ PowerLevel</text>
<text text-anchor="start" x="81" y="-186.5" font-family="Helvetica,sans-Serif" font-size="10.00">+ Weapons</text>
<polyline fill="none" stroke="black" points="73,-179.5 195,-179.5 "/>
<text text-anchor="start" x="81" y="-167.5" font-family="Helvetica,sans-Serif" font-size="10.00">+ TakeDamage()</text>
<text text-anchor="start" x="81" y="-156.5" font-family="Helvetica,sans-Serif" font-size="10.00">+ Report()</text>
<text text-anchor="start" x="81" y="-145.5" font-family="Helvetica,sans-Serif" font-size="10.00">+ Attack()</text>
<text text-anchor="start" x="81" y="-134.5" font-family="Helvetica,sans-Serif" font-size="10.00">+ ActivateIfPossible()</text>
<text text-anchor="start" x="81" y="-123.5" font-family="Helvetica,sans-Serif" font-size="10.00">~ Robot()</text>
</a>
</g>
</g>
<!-- Node2 -->
<g id="node2" class="node"><title>Node2</title>
<g id="a_node2"><a xlink:href="class_robowars_1_1_robots_1_1_miner.html" target="_top" xlink:title="Represents a robot designed to perform mining tasks.">
<polygon fill="white" stroke="black" points="0,-0.5 0,-79.5 120,-79.5 120,-0.5 0,-0.5"/>
<text text-anchor="middle" x="60" y="-67.5" font-family="Helvetica,sans-Serif" font-size="10.00">Robowars.Robots.Miner</text>
<polyline fill="none" stroke="black" points="0,-60.5 120,-60.5 "/>
<text text-anchor="start" x="8" y="-48.5" font-family="Helvetica,sans-Serif" font-size="10.00">+ Color</text>
<text text-anchor="start" x="8" y="-37.5" font-family="Helvetica,sans-Serif" font-size="10.00">+ day</text>
<polyline fill="none" stroke="black" points="0,-30.5 120,-30.5 "/>
<text text-anchor="start" x="8" y="-18.5" font-family="Helvetica,sans-Serif" font-size="10.00">+ Report()</text>
<text text-anchor="start" x="8" y="-7.5" font-family="Helvetica,sans-Serif" font-size="10.00">~ Miner()</text>
</a>
</g>
</g>
<!-- Node1&#45;&gt;Node2 -->
<g id="edge1" class="edge"><title>Node1&#45;&gt;Node2</title>
<path fill="none" stroke="midnightblue" d="M89.7873,-106.814C85.4621,-97.2574 81.2737,-88.0034 77.4711,-79.6016"/>
<polygon fill="none" stroke="midnightblue" points="86.6559,-108.383 93.9679,-116.051 93.0331,-105.497 86.6559,-108.383"/>
</g>
<!-- Node3 -->
<g id="node3" class="node"><title>Node3</title>
<g id="a_node3"><a xlink:href="class_robowars_1_1_robots_1_1_terminator.html" target="_top" xlink:title="Represents a killer&#45;robot designed to &#39;terminate&#39; others">
<polygon fill="white" stroke="black" points="138,-6 138,-74 280,-74 280,-6 138,-6"/>
<text text-anchor="middle" x="209" y="-62" font-family="Helvetica,sans-Serif" font-size="10.00">Robowars.Robots.Terminator</text>
<polyline fill="none" stroke="black" points="138,-55 280,-55 "/>
<text text-anchor="start" x="146" y="-43" font-family="Helvetica,sans-Serif" font-size="10.00">+ Mark</text>
<polyline fill="none" stroke="black" points="138,-36 280,-36 "/>
<text text-anchor="start" x="146" y="-24" font-family="Helvetica,sans-Serif" font-size="10.00">+ Report()</text>
<text text-anchor="start" x="146" y="-13" font-family="Helvetica,sans-Serif" font-size="10.00">~ Terminator()</text>
</a>
</g>
</g>
<!-- Node1&#45;&gt;Node3 -->
<g id="edge2" class="edge"><title>Node1&#45;&gt;Node3</title>
<path fill="none" stroke="midnightblue" d="M178.871,-106.682C184.185,-95.0957 189.294,-83.9581 193.748,-74.2498"/>
<polygon fill="none" stroke="midnightblue" points="175.561,-105.502 174.573,-116.051 181.924,-108.421 175.561,-105.502"/>
</g>
</g>
</svg>
