<?xml version="1.0" encoding="UTF-8" standalone="no"?>
<!DOCTYPE svg PUBLIC "-//W3C//DTD SVG 1.1//EN"
 "http://www.w3.org/Graphics/SVG/1.1/DTD/svg11.dtd">
<!-- Generated by graphviz version 2.38.0 (20140413.2041)
 -->
<!-- Title: RobotAssembler Pages: 1 -->
<svg width="210pt" height="204pt"
 viewBox="0.00 0.00 209.50 204.00" xmlns="http://www.w3.org/2000/svg" xmlns:xlink="http://www.w3.org/1999/xlink">
<g id="graph0" class="graph" transform="scale(1 1) rotate(0) translate(4 200)">
<title>RobotAssembler</title>
<polygon fill="white" stroke="none" points="-4,4 -4,-200 205.5,-200 205.5,4 -4,4"/>
<!-- Node1 -->
<g id="node1" class="node"><title>Node1</title>
<g id="a_node1"><a xlink:title="Represents logic regarding how specific robots may be produced.">
<polygon fill="#bfbfbf" stroke="black" points="53.5,-127.5 53.5,-195.5 154.5,-195.5 154.5,-127.5 53.5,-127.5"/>
<text text-anchor="middle" x="104" y="-183.5" font-family="Helvetica,sans-Serif" font-size="10.00">RobotAssembler</text>
<polyline fill="none" stroke="black" points="53.5,-176.5 154.5,-176.5 "/>
<text text-anchor="middle" x="104" y="-164.5" font-family="Helvetica,sans-Serif" font-size="10.00"> </text>
<polyline fill="none" stroke="black" points="53.5,-157.5 154.5,-157.5 "/>
<text text-anchor="start" x="61.5" y="-145.5" font-family="Helvetica,sans-Serif" font-size="10.00">+ AssembleRobot()</text>
<text text-anchor="start" x="61.5" y="-134.5" font-family="Helvetica,sans-Serif" font-size="10.00"># CreateRobot()</text>
</a>
</g>
</g>
<!-- Node2 -->
<g id="node2" class="node"><title>Node2</title>
<g id="a_node2"><a xlink:href="class_mining_robot_maker.html" target="_top" xlink:title="Creates friendly mining robots">
<polygon fill="white" stroke="black" points="0,-17 0,-74 98,-74 98,-17 0,-17"/>
<text text-anchor="middle" x="49" y="-62" font-family="Helvetica,sans-Serif" font-size="10.00">MiningRobotMaker</text>
<polyline fill="none" stroke="black" points="0,-55 98,-55 "/>
<text text-anchor="middle" x="49" y="-43" font-family="Helvetica,sans-Serif" font-size="10.00"> </text>
<polyline fill="none" stroke="black" points="0,-36 98,-36 "/>
<text text-anchor="start" x="8" y="-24" font-family="Helvetica,sans-Serif" font-size="10.00"># CreateRobot()</text>
</a>
</g>
</g>
<!-- Node1&#45;&gt;Node2 -->
<g id="edge1" class="edge"><title>Node1&#45;&gt;Node2</title>
<path fill="none" stroke="midnightblue" d="M83.4326,-117.869C76.3935,-103.279 68.7061,-87.3454 62.3842,-74.2418"/>
<polygon fill="none" stroke="midnightblue" points="80.4462,-119.734 87.9439,-127.22 86.7508,-116.693 80.4462,-119.734"/>
</g>
<!-- Node3 -->
<g id="node3" class="node"><title>Node3</title>
<g id="a_node3"><a xlink:href="class_sky_net.html" target="_top" xlink:title="Creates terminator robots">
<polygon fill="white" stroke="black" points="116.5,-0.5 116.5,-90.5 201.5,-90.5 201.5,-0.5 116.5,-0.5"/>
<text text-anchor="middle" x="159" y="-78.5" font-family="Helvetica,sans-Serif" font-size="10.00">SkyNet</text>
<polyline fill="none" stroke="black" points="116.5,-71.5 201.5,-71.5 "/>
<text text-anchor="start" x="124.5" y="-59.5" font-family="Helvetica,sans-Serif" font-size="10.00">+ Instance</text>
<text text-anchor="start" x="124.5" y="-48.5" font-family="Helvetica,sans-Serif" font-size="10.00">&#45; _mark</text>
<text text-anchor="start" x="124.5" y="-37.5" font-family="Helvetica,sans-Serif" font-size="10.00">&#45; _instance</text>
<polyline fill="none" stroke="black" points="116.5,-30.5 201.5,-30.5 "/>
<text text-anchor="start" x="124.5" y="-18.5" font-family="Helvetica,sans-Serif" font-size="10.00"># CreateRobot()</text>
<text text-anchor="start" x="124.5" y="-7.5" font-family="Helvetica,sans-Serif" font-size="10.00">&#45; SkyNet()</text>
</a>
</g>
</g>
<!-- Node1&#45;&gt;Node3 -->
<g id="edge2" class="edge"><title>Node1&#45;&gt;Node3</title>
<path fill="none" stroke="midnightblue" d="M124.453,-118.107C128.777,-109.144 133.351,-99.6639 137.705,-90.6378"/>
<polygon fill="none" stroke="midnightblue" points="121.249,-116.693 120.056,-127.22 127.554,-119.734 121.249,-116.693"/>
</g>
</g>
</svg>
