<?xml version="1.0" encoding="UTF-8" standalone="no"?>
<!DOCTYPE svg PUBLIC "-//W3C//DTD SVG 1.1//EN"
 "http://www.w3.org/Graphics/SVG/1.1/DTD/svg11.dtd">
<!-- Generated by graphviz version 2.38.0 (20140413.2041)
 -->
<!-- Title: Robowars.Robots.Robot.Attack Pages: 1 -->
<svg width="758pt" height="137pt"
 viewBox="0.00 0.00 758.00 137.00" xmlns="http://www.w3.org/2000/svg" xmlns:xlink="http://www.w3.org/1999/xlink">
<g id="graph0" class="graph" transform="scale(1 1) rotate(0) translate(4 133)">
<title>Robowars.Robots.Robot.Attack</title>
<polygon fill="white" stroke="none" points="-4,4 -4,-133 754,-133 754,4 -4,4"/>
<!-- Node1 -->
<g id="node1" class="node"><title>Node1</title>
<g id="a_node1"><a xlink:title="Robot attacks the other robot with a random weapon, if the situation allows.">
<polygon fill="#bfbfbf" stroke="black" points="0,-55 0,-74 153,-74 153,-55 0,-55"/>
<text text-anchor="middle" x="76.5" y="-62" font-family="Helvetica,sans-Serif" font-size="10.00">Robowars.Robots.Robot.Attack</text>
</a>
</g>
</g>
<!-- Node2 -->
<g id="node2" class="node"><title>Node2</title>
<g id="a_node2"><a xlink:href="class_robowars_1_1_robots_1_1_robot_situation.html#a315b54104eb3d49393d2cd266aa40511" target="_top" xlink:title="Attempts a transition to the Attacking Situation">
<polygon fill="white" stroke="black" points="189,-98.5 189,-128.5 352,-128.5 352,-98.5 189,-98.5"/>
<text text-anchor="start" x="197" y="-116.5" font-family="Helvetica,sans-Serif" font-size="10.00">Robowars.Robots.RobotSituation.</text>
<text text-anchor="middle" x="270.5" y="-105.5" font-family="Helvetica,sans-Serif" font-size="10.00">Attack</text>
</a>
</g>
</g>
<!-- Node1&#45;&gt;Node2 -->
<g id="edge1" class="edge"><title>Node1&#45;&gt;Node2</title>
<path fill="none" stroke="midnightblue" d="M114.975,-74.064C139.283,-80.2676 171.686,-88.5371 200.541,-95.901"/>
<polygon fill="midnightblue" stroke="midnightblue" points="200.025,-99.3814 210.58,-98.463 201.756,-92.5988 200.025,-99.3814"/>
</g>
<!-- Node3 -->
<g id="node3" class="node"><title>Node3</title>
<g id="a_node3"><a xlink:href="class_robowars_1_1_robots_1_1_robot_situation.html#ac8cbc450ec8ecbcf22d036f89d8177d2" target="_top" xlink:title="Attempts a transition to the Standby Situation">
<polygon fill="white" stroke="black" points="189,-49.5 189,-79.5 352,-79.5 352,-49.5 189,-49.5"/>
<text text-anchor="start" x="197" y="-67.5" font-family="Helvetica,sans-Serif" font-size="10.00">Robowars.Robots.RobotSituation.</text>
<text text-anchor="middle" x="270.5" y="-56.5" font-family="Helvetica,sans-Serif" font-size="10.00">Deactivate</text>
</a>
</g>
</g>
<!-- Node1&#45;&gt;Node3 -->
<g id="edge2" class="edge"><title>Node1&#45;&gt;Node3</title>
<path fill="none" stroke="midnightblue" d="M153.108,-64.5C161.555,-64.5 170.224,-64.5 178.835,-64.5"/>
<polygon fill="midnightblue" stroke="midnightblue" points="178.901,-68.0001 188.901,-64.5 178.901,-61.0001 178.901,-68.0001"/>
</g>
<!-- Node4 -->
<g id="node4" class="node"><title>Node4</title>
<g id="a_node4"><a xlink:href="class_robowars_1_1_robots_1_1_robot.html#a1527aa8d6f7658939d31ac9e674d747f" target="_top" xlink:title="Instructs the robot to take damage for a certain reason">
<polygon fill="white" stroke="black" points="197.5,-0.5 197.5,-30.5 343.5,-30.5 343.5,-0.5 197.5,-0.5"/>
<text text-anchor="start" x="205.5" y="-18.5" font-family="Helvetica,sans-Serif" font-size="10.00">Robowars.Robots.Robot.Take</text>
<text text-anchor="middle" x="270.5" y="-7.5" font-family="Helvetica,sans-Serif" font-size="10.00">Damage</text>
</a>
</g>
</g>
<!-- Node1&#45;&gt;Node4 -->
<g id="edge3" class="edge"><title>Node1&#45;&gt;Node4</title>
<path fill="none" stroke="midnightblue" d="M114.975,-54.936C139.283,-48.7324 171.686,-40.4629 200.541,-33.099"/>
<polygon fill="midnightblue" stroke="midnightblue" points="201.756,-36.4012 210.58,-30.537 200.025,-29.6186 201.756,-36.4012"/>
</g>
<!-- Node5 -->
<g id="node5" class="node"><title>Node5</title>
<g id="a_node5"><a xlink:href="class_robowars_1_1_robots_1_1_robot_situation.html#a0d113708aa1f066d2df5c9a80b21efa2" target="_top" xlink:title="Handles the logic for a Robot taking damage, and transitions the Situation to Destroyed when appropri...">
<polygon fill="white" stroke="black" points="388,-0.5 388,-30.5 551,-30.5 551,-0.5 388,-0.5"/>
<text text-anchor="start" x="396" y="-18.5" font-family="Helvetica,sans-Serif" font-size="10.00">Robowars.Robots.RobotSituation.</text>
<text text-anchor="middle" x="469.5" y="-7.5" font-family="Helvetica,sans-Serif" font-size="10.00">TakeDamage</text>
</a>
</g>
</g>
<!-- Node4&#45;&gt;Node5 -->
<g id="edge4" class="edge"><title>Node4&#45;&gt;Node5</title>
<path fill="none" stroke="midnightblue" d="M343.737,-15.5C354.863,-15.5 366.472,-15.5 377.936,-15.5"/>
<polygon fill="midnightblue" stroke="midnightblue" points="377.957,-19.0001 387.957,-15.5 377.957,-12.0001 377.957,-19.0001"/>
</g>
<!-- Node6 -->
<g id="node6" class="node"><title>Node6</title>
<g id="a_node6"><a xlink:href="class_robowars_1_1_robots_1_1_robot_situation.html#a352cf94b82a44b9cb58fe481527b7edf" target="_top" xlink:title="Attempts a transition to the Destroyed Situation">
<polygon fill="white" stroke="black" points="587,-0.5 587,-30.5 750,-30.5 750,-0.5 587,-0.5"/>
<text text-anchor="start" x="595" y="-18.5" font-family="Helvetica,sans-Serif" font-size="10.00">Robowars.Robots.RobotSituation.</text>
<text text-anchor="middle" x="668.5" y="-7.5" font-family="Helvetica,sans-Serif" font-size="10.00">Destroy</text>
</a>
</g>
</g>
<!-- Node5&#45;&gt;Node6 -->
<g id="edge5" class="edge"><title>Node5&#45;&gt;Node6</title>
<path fill="none" stroke="midnightblue" d="M551.196,-15.5C559.673,-15.5 568.333,-15.5 576.912,-15.5"/>
<polygon fill="midnightblue" stroke="midnightblue" points="576.93,-19.0001 586.93,-15.5 576.93,-12.0001 576.93,-19.0001"/>
</g>
</g>
</svg>
