<?xml version="1.0" encoding="UTF-8" standalone="no"?>
<!DOCTYPE svg PUBLIC "-//W3C//DTD SVG 1.1//EN"
 "http://www.w3.org/Graphics/SVG/1.1/DTD/svg11.dtd">
<!-- Generated by graphviz version 2.38.0 (20140413.2041)
 -->
<!-- Title: Graphical Class Hierarchy Pages: 1 -->
<svg width="486pt" height="134pt"
 viewBox="0.00 0.00 486.00 133.50" xmlns="http://www.w3.org/2000/svg" xmlns:xlink="http://www.w3.org/1999/xlink">
<g id="graph0" class="graph" transform="scale(1 1) rotate(0) translate(4 129.5)">
<title>Graphical Class Hierarchy</title>
<polygon fill="white" stroke="none" points="-4,4 -4,-129.5 482,-129.5 482,4 -4,4"/>
<!-- Node0 -->
<g id="node1" class="node"><title>Node0</title>
<g id="a_node1"><a xlink:href="class_robowars_1_1_weapon.html" target="_top" xlink:title="Defines a top level interface for a weapon.">
<polygon fill="white" stroke="black" points="0,-68 0,-87 98,-87 98,-68 0,-68"/>
<text text-anchor="middle" x="49" y="-75" font-family="Helvetica,sans-Serif" font-size="10.00">Robowars.Weapon</text>
</a>
</g>
</g>
<!-- Node1 -->
<g id="node2" class="node"><title>Node1</title>
<g id="a_node2"><a xlink:href="class_robowars_1_1_hammer.html" target="_top" xlink:title=" ">
<polygon fill="white" stroke="black" points="163.5,-106 163.5,-125 262.5,-125 262.5,-106 163.5,-106"/>
<text text-anchor="middle" x="213" y="-113" font-family="Helvetica,sans-Serif" font-size="10.00">Robowars.Hammer</text>
</a>
</g>
</g>
<!-- Node0&#45;&gt;Node1 -->
<g id="edge1" class="edge"><title>Node0&#45;&gt;Node1</title>
<path fill="none" stroke="midnightblue" d="M100.715,-89.3961C123.486,-94.7374 149.987,-100.954 171.415,-105.98"/>
<polygon fill="midnightblue" stroke="midnightblue" points="101.415,-85.9653 90.8794,-87.089 99.8159,-92.7803 101.415,-85.9653"/>
</g>
<!-- Node2 -->
<g id="node3" class="node"><title>Node2</title>
<g id="a_node3"><a xlink:href="class_robowars_1_1_laser.html" target="_top" xlink:title=" ">
<polygon fill="white" stroke="black" points="170,-68 170,-87 256,-87 256,-68 170,-68"/>
<text text-anchor="middle" x="213" y="-75" font-family="Helvetica,sans-Serif" font-size="10.00">Robowars.Laser</text>
</a>
</g>
</g>
<!-- Node0&#45;&gt;Node2 -->
<g id="edge2" class="edge"><title>Node0&#45;&gt;Node2</title>
<path fill="none" stroke="midnightblue" d="M108.267,-77.5C128.602,-77.5 151.016,-77.5 169.79,-77.5"/>
<polygon fill="midnightblue" stroke="midnightblue" points="108.167,-74.0001 98.1667,-77.5 108.167,-81.0001 108.167,-74.0001"/>
</g>
<!-- Node3 -->
<g id="node4" class="node"><title>Node3</title>
<g id="a_node4"><a xlink:href="class_robowars_1_1_weapon_enhancement.html" target="_top" xlink:title="Represents an enchancement of a Weapon, by transparently wrapping the weapon while also implementing ...">
<polygon fill="white" stroke="black" points="134,-30 134,-49 292,-49 292,-30 134,-30"/>
<text text-anchor="middle" x="213" y="-37" font-family="Helvetica,sans-Serif" font-size="10.00">Robowars.WeaponEnhancement</text>
</a>
</g>
</g>
<!-- Node0&#45;&gt;Node3 -->
<g id="edge3" class="edge"><title>Node0&#45;&gt;Node3</title>
<path fill="none" stroke="midnightblue" d="M100.715,-65.6039C123.486,-60.2626 149.987,-54.0463 171.415,-49.0201"/>
<polygon fill="midnightblue" stroke="midnightblue" points="99.8159,-62.2197 90.8794,-67.911 101.415,-69.0347 99.8159,-62.2197"/>
</g>
<!-- Node4 -->
<g id="node5" class="node"><title>Node4</title>
<g id="a_node5"><a xlink:href="class_robowars_1_1_fixed_damage_bonus_weapon.html" target="_top" xlink:title=" ">
<polygon fill="white" stroke="black" points="328,-49.5 328,-79.5 478,-79.5 478,-49.5 328,-49.5"/>
<text text-anchor="start" x="336" y="-67.5" font-family="Helvetica,sans-Serif" font-size="10.00">Robowars.FixedDamageBonus</text>
<text text-anchor="middle" x="403" y="-56.5" font-family="Helvetica,sans-Serif" font-size="10.00">Weapon</text>
</a>
</g>
</g>
<!-- Node3&#45;&gt;Node4 -->
<g id="edge4" class="edge"><title>Node3&#45;&gt;Node4</title>
<path fill="none" stroke="midnightblue" d="M295.74,-50.3697C306.393,-51.7863 317.259,-53.2312 327.779,-54.6301"/>
<polygon fill="midnightblue" stroke="midnightblue" points="295.985,-46.8716 285.611,-49.0227 295.062,-53.8105 295.985,-46.8716"/>
</g>
<!-- Node5 -->
<g id="node6" class="node"><title>Node5</title>
<g id="a_node6"><a xlink:href="class_robowars_1_1_percentage_bonus_damage_weapon.html" target="_top" xlink:title=" ">
<polygon fill="white" stroke="black" points="333,-0.5 333,-30.5 473,-30.5 473,-0.5 333,-0.5"/>
<text text-anchor="start" x="341" y="-18.5" font-family="Helvetica,sans-Serif" font-size="10.00">Robowars.PercentageBonus</text>
<text text-anchor="middle" x="403" y="-7.5" font-family="Helvetica,sans-Serif" font-size="10.00">DamageWeapon</text>
</a>
</g>
</g>
<!-- Node3&#45;&gt;Node5 -->
<g id="edge5" class="edge"><title>Node3&#45;&gt;Node5</title>
<path fill="none" stroke="midnightblue" d="M298.55,-28.7064C309.978,-27.2475 321.595,-25.7645 332.714,-24.345"/>
<polygon fill="midnightblue" stroke="midnightblue" points="298.049,-25.2419 288.573,-29.9801 298.935,-32.1855 298.049,-25.2419"/>
</g>
</g>
</svg>
