<?xml version="1.0" encoding="UTF-8" standalone="no"?>
<!DOCTYPE svg PUBLIC "-//W3C//DTD SVG 1.1//EN"
 "http://www.w3.org/Graphics/SVG/1.1/DTD/svg11.dtd">
<!-- Generated by graphviz version 2.38.0 (20140413.2041)
 -->
<!-- Title: Graphical Class Hierarchy Pages: 1 -->
<svg width="308pt" height="66pt"
 viewBox="0.00 0.00 308.00 66.00" xmlns="http://www.w3.org/2000/svg" xmlns:xlink="http://www.w3.org/1999/xlink">
<g id="graph0" class="graph" transform="scale(1 1) rotate(0) translate(4 62)">
<title>Graphical Class Hierarchy</title>
<polygon fill="white" stroke="none" points="-4,4 -4,-62 304,-62 304,4 -4,4"/>
<!-- Node0 -->
<g id="node1" class="node"><title>Node0</title>
<g id="a_node1"><a xlink:href="class_robowars_1_1_robots_1_1_robot.html" target="_top" xlink:title="An interface and abstract implementation for basic Robot functionality">
<polygon fill="white" stroke="black" points="0,-19.5 0,-38.5 122,-38.5 122,-19.5 0,-19.5"/>
<text text-anchor="middle" x="61" y="-26.5" font-family="Helvetica,sans-Serif" font-size="10.00">Robowars.Robots.Robot</text>
</a>
</g>
</g>
<!-- Node1 -->
<g id="node2" class="node"><title>Node1</title>
<g id="a_node2"><a xlink:href="class_robowars_1_1_robots_1_1_miner.html" target="_top" xlink:title="Represents a robot designed to perform mining tasks.">
<polygon fill="white" stroke="black" points="169,-38.5 169,-57.5 289,-57.5 289,-38.5 169,-38.5"/>
<text text-anchor="middle" x="229" y="-45.5" font-family="Helvetica,sans-Serif" font-size="10.00">Robowars.Robots.Miner</text>
</a>
</g>
</g>
<!-- Node0&#45;&gt;Node1 -->
<g id="edge1" class="edge"><title>Node0&#45;&gt;Node1</title>
<path fill="none" stroke="midnightblue" d="M132.448,-37.0633C144.539,-38.4473 156.995,-39.8729 168.756,-41.219"/>
<polygon fill="midnightblue" stroke="midnightblue" points="132.733,-33.5731 122.399,-35.9132 131.936,-40.5277 132.733,-33.5731"/>
</g>
<!-- Node2 -->
<g id="node3" class="node"><title>Node2</title>
<g id="a_node3"><a xlink:href="class_robowars_1_1_robots_1_1_terminator.html" target="_top" xlink:title="Represents a killer&#45;robot designed to &#39;terminate&#39; others">
<polygon fill="white" stroke="black" points="158,-0.5 158,-19.5 300,-19.5 300,-0.5 158,-0.5"/>
<text text-anchor="middle" x="229" y="-7.5" font-family="Helvetica,sans-Serif" font-size="10.00">Robowars.Robots.Terminator</text>
</a>
</g>
</g>
<!-- Node0&#45;&gt;Node2 -->
<g id="edge2" class="edge"><title>Node0&#45;&gt;Node2</title>
<path fill="none" stroke="midnightblue" d="M132.501,-20.9306C140.873,-19.9724 149.418,-18.9944 157.785,-18.0366"/>
<polygon fill="midnightblue" stroke="midnightblue" points="131.936,-17.4723 122.399,-22.0868 132.733,-24.4269 131.936,-17.4723"/>
</g>
</g>
</svg>
