<?xml version="1.0" encoding="UTF-8" standalone="no"?>
<!DOCTYPE svg PUBLIC "-//W3C//DTD SVG 1.1//EN"
 "http://www.w3.org/Graphics/SVG/1.1/DTD/svg11.dtd">
<!-- Generated by graphviz version 2.38.0 (20140413.2041)
 -->
<!-- Title: Graphical Class Hierarchy Pages: 1 -->
<svg width="417pt" height="104pt"
 viewBox="0.00 0.00 417.00 104.00" xmlns="http://www.w3.org/2000/svg" xmlns:xlink="http://www.w3.org/1999/xlink">
<g id="graph0" class="graph" transform="scale(1 1) rotate(0) translate(4 100)">
<title>Graphical Class Hierarchy</title>
<polygon fill="white" stroke="none" points="-4,4 -4,-100 413,-100 413,4 -4,4"/>
<!-- Node0 -->
<g id="node1" class="node"><title>Node0</title>
<g id="a_node1"><a xlink:href="class_robowars_1_1_robot_situation.html" target="_top" xlink:title="Represents a Situation a robot can have; Each method is a transition to a different situation,...">
<polygon fill="white" stroke="black" points="0,-38.5 0,-57.5 126,-57.5 126,-38.5 0,-38.5"/>
<text text-anchor="middle" x="63" y="-45.5" font-family="Helvetica,sans-Serif" font-size="10.00">Robowars.RobotSituation</text>
</a>
</g>
</g>
<!-- Node1 -->
<g id="node2" class="node"><title>Node1</title>
<g id="a_node2"><a xlink:href="class_robowars_1_1_active.html" target="_top" xlink:title=" ">
<polygon fill="white" stroke="black" points="171,-76.5 171,-95.5 260,-95.5 260,-76.5 171,-76.5"/>
<text text-anchor="middle" x="215.5" y="-83.5" font-family="Helvetica,sans-Serif" font-size="10.00">Robowars.Active</text>
</a>
</g>
</g>
<!-- Node0&#45;&gt;Node1 -->
<g id="edge1" class="edge"><title>Node0&#45;&gt;Node1</title>
<path fill="none" stroke="midnightblue" d="M111.685,-60.04C132.71,-65.3488 157.067,-71.4988 176.796,-76.4799"/>
<polygon fill="midnightblue" stroke="midnightblue" points="112.53,-56.6437 101.978,-57.589 110.816,-63.4307 112.53,-56.6437"/>
</g>
<!-- Node3 -->
<g id="node4" class="node"><title>Node3</title>
<g id="a_node4"><a xlink:href="class_robowars_1_1_destroyed.html" target="_top" xlink:title=" ">
<polygon fill="white" stroke="black" points="162,-38.5 162,-57.5 269,-57.5 269,-38.5 162,-38.5"/>
<text text-anchor="middle" x="215.5" y="-45.5" font-family="Helvetica,sans-Serif" font-size="10.00">Robowars.Destroyed</text>
</a>
</g>
</g>
<!-- Node0&#45;&gt;Node3 -->
<g id="edge3" class="edge"><title>Node0&#45;&gt;Node3</title>
<path fill="none" stroke="midnightblue" d="M136.137,-48C144.745,-48 153.408,-48 161.674,-48"/>
<polygon fill="midnightblue" stroke="midnightblue" points="136.083,-44.5001 126.083,-48 136.083,-51.5001 136.083,-44.5001"/>
</g>
<!-- Node4 -->
<g id="node5" class="node"><title>Node4</title>
<g id="a_node5"><a xlink:href="class_robowars_1_1_standby.html" target="_top" xlink:title=" ">
<polygon fill="white" stroke="black" points="166.5,-0.5 166.5,-19.5 264.5,-19.5 264.5,-0.5 166.5,-0.5"/>
<text text-anchor="middle" x="215.5" y="-7.5" font-family="Helvetica,sans-Serif" font-size="10.00">Robowars.Standby</text>
</a>
</g>
</g>
<!-- Node0&#45;&gt;Node4 -->
<g id="edge4" class="edge"><title>Node0&#45;&gt;Node4</title>
<path fill="none" stroke="midnightblue" d="M111.685,-35.96C132.71,-30.6512 157.067,-24.5012 176.796,-19.5201"/>
<polygon fill="midnightblue" stroke="midnightblue" points="110.816,-32.5693 101.978,-38.411 112.53,-39.3563 110.816,-32.5693"/>
</g>
<!-- Node2 -->
<g id="node3" class="node"><title>Node2</title>
<g id="a_node3"><a xlink:href="class_robowars_1_1_attacking.html" target="_top" xlink:title=" ">
<polygon fill="white" stroke="black" points="305,-76.5 305,-95.5 409,-95.5 409,-76.5 305,-76.5"/>
<text text-anchor="middle" x="357" y="-83.5" font-family="Helvetica,sans-Serif" font-size="10.00">Robowars.Attacking</text>
</a>
</g>
</g>
<!-- Node1&#45;&gt;Node2 -->
<g id="edge2" class="edge"><title>Node1&#45;&gt;Node2</title>
<path fill="none" stroke="midnightblue" d="M270.379,-86C281.619,-86 293.44,-86 304.588,-86"/>
<polygon fill="midnightblue" stroke="midnightblue" points="270.256,-82.5001 260.256,-86 270.256,-89.5001 270.256,-82.5001"/>
</g>
</g>
</svg>
