<?xml version="1.0" encoding="UTF-8" standalone="no"?>
<!DOCTYPE svg PUBLIC "-//W3C//DTD SVG 1.1//EN"
 "http://www.w3.org/Graphics/SVG/1.1/DTD/svg11.dtd">
<!-- Generated by graphviz version 2.38.0 (20140413.2041)
 -->
<!-- Title: Graphical Class Hierarchy Pages: 1 -->
<svg width="321pt" height="66pt"
 viewBox="0.00 0.00 321.00 66.00" xmlns="http://www.w3.org/2000/svg" xmlns:xlink="http://www.w3.org/1999/xlink">
<g id="graph0" class="graph" transform="scale(1 1) rotate(0) translate(4 62)">
<title>Graphical Class Hierarchy</title>
<polygon fill="white" stroke="none" points="-4,4 -4,-62 317,-62 317,4 -4,4"/>
<!-- Node0 -->
<g id="node1" class="node"><title>Node0</title>
<g id="a_node1"><a xlink:href="class_robowars_1_1_robot_assembler.html" target="_top" xlink:title="Represents logic regarding how specific robots may be produced.">
<polygon fill="white" stroke="black" points="0,-19.5 0,-38.5 134,-38.5 134,-19.5 0,-19.5"/>
<text text-anchor="middle" x="67" y="-26.5" font-family="Helvetica,sans-Serif" font-size="10.00">Robowars.RobotAssembler</text>
</a>
</g>
</g>
<!-- Node1 -->
<g id="node2" class="node"><title>Node1</title>
<g id="a_node2"><a xlink:href="class_robowars_1_1_mining_robot_maker.html" target="_top" xlink:title="Creates friendly mining robots">
<polygon fill="white" stroke="black" points="170,-38.5 170,-57.5 313,-57.5 313,-38.5 170,-38.5"/>
<text text-anchor="middle" x="241.5" y="-45.5" font-family="Helvetica,sans-Serif" font-size="10.00">Robowars.MiningRobotMaker</text>
</a>
</g>
</g>
<!-- Node0&#45;&gt;Node1 -->
<g id="edge1" class="edge"><title>Node0&#45;&gt;Node1</title>
<path fill="none" stroke="midnightblue" d="M144.163,-37.389C152.72,-38.3315 161.412,-39.2888 169.894,-40.2232"/>
<polygon fill="midnightblue" stroke="midnightblue" points="144.523,-33.9075 134.2,-36.2916 143.756,-40.8654 144.523,-33.9075"/>
</g>
<!-- Node2 -->
<g id="node3" class="node"><title>Node2</title>
<g id="a_node3"><a xlink:href="class_robowars_1_1_sky_net.html" target="_top" xlink:title="Creates terminator robots">
<polygon fill="white" stroke="black" points="194,-0.5 194,-19.5 289,-19.5 289,-0.5 194,-0.5"/>
<text text-anchor="middle" x="241.5" y="-7.5" font-family="Helvetica,sans-Serif" font-size="10.00">Robowars.SkyNet</text>
</a>
</g>
</g>
<!-- Node0&#45;&gt;Node2 -->
<g id="edge2" class="edge"><title>Node0&#45;&gt;Node2</title>
<path fill="none" stroke="midnightblue" d="M144.549,-20.5686C161.309,-18.7224 178.565,-16.8218 193.741,-15.1503"/>
<polygon fill="midnightblue" stroke="midnightblue" points="143.756,-17.1346 134.2,-21.7084 144.523,-24.0925 143.756,-17.1346"/>
</g>
</g>
</svg>
