<?xml version="1.0" encoding="UTF-8" standalone="no"?>
<!DOCTYPE svg PUBLIC "-//W3C//DTD SVG 1.1//EN"
 "http://www.w3.org/Graphics/SVG/1.1/DTD/svg11.dtd">
<!-- Generated by graphviz version 2.38.0 (20140413.2041)
 -->
<!-- Title: Graphical Class Hierarchy Pages: 1 -->
<svg width="593pt" height="134pt"
 viewBox="0.00 0.00 593.00 133.50" xmlns="http://www.w3.org/2000/svg" xmlns:xlink="http://www.w3.org/1999/xlink">
<g id="graph0" class="graph" transform="scale(1 1) rotate(0) translate(4 129.5)">
<title>Graphical Class Hierarchy</title>
<polygon fill="white" stroke="none" points="-4,4 -4,-129.5 589,-129.5 589,4 -4,4"/>
<!-- Node0 -->
<g id="node1" class="node"><title>Node0</title>
<g id="a_node1"><a xlink:href="class_robowars_1_1_weapons_1_1_weapon.html" target="_top" xlink:title="Defines a top level interface for a weapon.">
<polygon fill="white" stroke="black" points="0,-68 0,-87 143,-87 143,-68 0,-68"/>
<text text-anchor="middle" x="71.5" y="-75" font-family="Helvetica,sans-Serif" font-size="10.00">Robowars.Weapons.Weapon</text>
</a>
</g>
</g>
<!-- Node1 -->
<g id="node2" class="node"><title>Node1</title>
<g id="a_node2"><a xlink:href="class_robowars_1_1_weapons_1_1_hammer.html" target="_top" xlink:title=" ">
<polygon fill="white" stroke="black" points="209,-106 209,-125 352,-125 352,-106 209,-106"/>
<text text-anchor="middle" x="280.5" y="-113" font-family="Helvetica,sans-Serif" font-size="10.00">Robowars.Weapons.Hammer</text>
</a>
</g>
</g>
<!-- Node0&#45;&gt;Node1 -->
<g id="edge1" class="edge"><title>Node0&#45;&gt;Node1</title>
<path fill="none" stroke="midnightblue" d="M134.311,-88.847C164.011,-94.2991 199.209,-100.761 227.511,-105.956"/>
<polygon fill="midnightblue" stroke="midnightblue" points="134.935,-85.4031 124.468,-87.04 133.671,-92.2881 134.935,-85.4031"/>
</g>
<!-- Node2 -->
<g id="node3" class="node"><title>Node2</title>
<g id="a_node3"><a xlink:href="class_robowars_1_1_weapons_1_1_laser.html" target="_top" xlink:title=" ">
<polygon fill="white" stroke="black" points="215,-68 215,-87 346,-87 346,-68 215,-68"/>
<text text-anchor="middle" x="280.5" y="-75" font-family="Helvetica,sans-Serif" font-size="10.00">Robowars.Weapons.Laser</text>
</a>
</g>
</g>
<!-- Node0&#45;&gt;Node2 -->
<g id="edge2" class="edge"><title>Node0&#45;&gt;Node2</title>
<path fill="none" stroke="midnightblue" d="M153.351,-77.5C173.701,-77.5 195.278,-77.5 214.725,-77.5"/>
<polygon fill="midnightblue" stroke="midnightblue" points="153.159,-74.0001 143.159,-77.5 153.159,-81.0001 153.159,-74.0001"/>
</g>
<!-- Node3 -->
<g id="node4" class="node"><title>Node3</title>
<g id="a_node4"><a xlink:href="class_robowars_1_1_weapons_1_1_weapon_enhancement.html" target="_top" xlink:title="Represents an enchancement of a Weapon, by transparently wrapping the weapon while also implementing ...">
<polygon fill="white" stroke="black" points="179,-30 179,-49 382,-49 382,-30 179,-30"/>
<text text-anchor="middle" x="280.5" y="-37" font-family="Helvetica,sans-Serif" font-size="10.00">Robowars.Weapons.WeaponEnhancement</text>
</a>
</g>
</g>
<!-- Node0&#45;&gt;Node3 -->
<g id="edge3" class="edge"><title>Node0&#45;&gt;Node3</title>
<path fill="none" stroke="midnightblue" d="M134.311,-66.153C164.011,-60.7009 199.209,-54.2393 227.511,-49.0439"/>
<polygon fill="midnightblue" stroke="midnightblue" points="133.671,-62.7119 124.468,-67.96 134.935,-69.5969 133.671,-62.7119"/>
</g>
<!-- Node4 -->
<g id="node5" class="node"><title>Node4</title>
<g id="a_node5"><a xlink:href="class_robowars_1_1_weapons_1_1_fixed_damage_bonus_weapon.html" target="_top" xlink:title=" ">
<polygon fill="white" stroke="black" points="418,-49.5 418,-79.5 585,-79.5 585,-49.5 418,-49.5"/>
<text text-anchor="start" x="426" y="-67.5" font-family="Helvetica,sans-Serif" font-size="10.00">Robowars.Weapons.FixedDamage</text>
<text text-anchor="middle" x="501.5" y="-56.5" font-family="Helvetica,sans-Serif" font-size="10.00">BonusWeapon</text>
</a>
</g>
</g>
<!-- Node3&#45;&gt;Node4 -->
<g id="edge4" class="edge"><title>Node3&#45;&gt;Node4</title>
<path fill="none" stroke="midnightblue" d="M375.139,-50.1894C389.281,-51.8037 403.783,-53.4592 417.675,-55.0451"/>
<polygon fill="midnightblue" stroke="midnightblue" points="375.252,-46.6796 364.919,-49.0227 374.458,-53.6344 375.252,-46.6796"/>
</g>
<!-- Node5 -->
<g id="node6" class="node"><title>Node5</title>
<g id="a_node6"><a xlink:href="class_robowars_1_1_weapons_1_1_percentage_bonus_damage_weapon.html" target="_top" xlink:title=" ">
<polygon fill="white" stroke="black" points="423.5,-0.5 423.5,-30.5 579.5,-30.5 579.5,-0.5 423.5,-0.5"/>
<text text-anchor="start" x="431.5" y="-18.5" font-family="Helvetica,sans-Serif" font-size="10.00">Robowars.Weapons.Percentage</text>
<text text-anchor="middle" x="501.5" y="-7.5" font-family="Helvetica,sans-Serif" font-size="10.00">BonusDamageWeapon</text>
</a>
</g>
</g>
<!-- Node3&#45;&gt;Node5 -->
<g id="edge5" class="edge"><title>Node3&#45;&gt;Node5</title>
<path fill="none" stroke="midnightblue" d="M378.657,-28.8526C393.61,-27.214 408.873,-25.5413 423.313,-23.9589"/>
<polygon fill="midnightblue" stroke="midnightblue" points="377.928,-25.4115 368.369,-29.9801 378.691,-32.3698 377.928,-25.4115"/>
</g>
</g>
</svg>
