<?xml version="1.0" encoding="UTF-8" standalone="no"?>
<!DOCTYPE svg PUBLIC "-//W3C//DTD SVG 1.1//EN"
 "http://www.w3.org/Graphics/SVG/1.1/DTD/svg11.dtd">
<!-- Generated by graphviz version 2.38.0 (20140413.2041)
 -->
<!-- Title: Graphical Class Hierarchy Pages: 1 -->
<svg width="517pt" height="104pt"
 viewBox="0.00 0.00 517.00 104.00" xmlns="http://www.w3.org/2000/svg" xmlns:xlink="http://www.w3.org/1999/xlink">
<g id="graph0" class="graph" transform="scale(1 1) rotate(0) translate(4 100)">
<title>Graphical Class Hierarchy</title>
<polygon fill="white" stroke="none" points="-4,4 -4,-100 513,-100 513,4 -4,4"/>
<!-- Node0 -->
<g id="node1" class="node"><title>Node0</title>
<g id="a_node1"><a xlink:href="class_robowars_1_1_robots_1_1_robot_situation.html" target="_top" xlink:title="Represents a Situation a Robot can be in; Each method is a transition to a different RobotSituation,...">
<polygon fill="white" stroke="black" points="0,-38.5 0,-57.5 160,-57.5 160,-38.5 0,-38.5"/>
<text text-anchor="middle" x="80" y="-45.5" font-family="Helvetica,sans-Serif" font-size="10.00">Robowars.Robots.RobotSituation</text>
</a>
</g>
</g>
<!-- Node1 -->
<g id="node2" class="node"><title>Node1</title>
<g id="a_node2"><a xlink:href="class_robowars_1_1_robots_1_1_active.html" target="_top" xlink:title="Indicates that the Robot is Active and is ready to perform actions.">
<polygon fill="white" stroke="black" points="205,-76.5 205,-95.5 327,-95.5 327,-76.5 205,-76.5"/>
<text text-anchor="middle" x="266" y="-83.5" font-family="Helvetica,sans-Serif" font-size="10.00">Robowars.Robots.Active</text>
</a>
</g>
</g>
<!-- Node0&#45;&gt;Node1 -->
<g id="edge1" class="edge"><title>Node0&#45;&gt;Node1</title>
<path fill="none" stroke="midnightblue" d="M137.561,-59.681C163.654,-65.0699 194.238,-71.3861 218.903,-76.4799"/>
<polygon fill="midnightblue" stroke="midnightblue" points="137.932,-56.184 127.431,-57.589 136.516,-63.0393 137.932,-56.184"/>
</g>
<!-- Node3 -->
<g id="node4" class="node"><title>Node3</title>
<g id="a_node4"><a xlink:href="class_robowars_1_1_robots_1_1_destroyed.html" target="_top" xlink:title="Indicates that the Robot has been Destroyed.">
<polygon fill="white" stroke="black" points="196,-38.5 196,-57.5 336,-57.5 336,-38.5 196,-38.5"/>
<text text-anchor="middle" x="266" y="-45.5" font-family="Helvetica,sans-Serif" font-size="10.00">Robowars.Robots.Destroyed</text>
</a>
</g>
</g>
<!-- Node0&#45;&gt;Node3 -->
<g id="edge3" class="edge"><title>Node0&#45;&gt;Node3</title>
<path fill="none" stroke="midnightblue" d="M170.178,-48C178.791,-48 187.438,-48 195.814,-48"/>
<polygon fill="midnightblue" stroke="midnightblue" points="170.1,-44.5001 160.1,-48 170.1,-51.5001 170.1,-44.5001"/>
</g>
<!-- Node4 -->
<g id="node5" class="node"><title>Node4</title>
<g id="a_node5"><a xlink:href="class_robowars_1_1_robots_1_1_standby.html" target="_top" xlink:title="Indicates that the Robot is inactive, on Standby.">
<polygon fill="white" stroke="black" points="200,-0.5 200,-19.5 332,-19.5 332,-0.5 200,-0.5"/>
<text text-anchor="middle" x="266" y="-7.5" font-family="Helvetica,sans-Serif" font-size="10.00">Robowars.Robots.Standby</text>
</a>
</g>
</g>
<!-- Node0&#45;&gt;Node4 -->
<g id="edge4" class="edge"><title>Node0&#45;&gt;Node4</title>
<path fill="none" stroke="midnightblue" d="M137.561,-36.319C163.654,-30.9301 194.238,-24.6139 218.903,-19.5201"/>
<polygon fill="midnightblue" stroke="midnightblue" points="136.516,-32.9607 127.431,-38.411 137.932,-39.816 136.516,-32.9607"/>
</g>
<!-- Node2 -->
<g id="node3" class="node"><title>Node2</title>
<g id="a_node3"><a xlink:href="class_robowars_1_1_robots_1_1_attacking.html" target="_top" xlink:title="Indicates that the Robot is currently Attacking.">
<polygon fill="white" stroke="black" points="372,-76.5 372,-95.5 509,-95.5 509,-76.5 372,-76.5"/>
<text text-anchor="middle" x="440.5" y="-83.5" font-family="Helvetica,sans-Serif" font-size="10.00">Robowars.Robots.Attacking</text>
</a>
</g>
</g>
<!-- Node1&#45;&gt;Node2 -->
<g id="edge2" class="edge"><title>Node1&#45;&gt;Node2</title>
<path fill="none" stroke="midnightblue" d="M337.594,-86C348.907,-86 360.591,-86 371.834,-86"/>
<polygon fill="midnightblue" stroke="midnightblue" points="337.332,-82.5001 327.332,-86 337.332,-89.5001 337.332,-82.5001"/>
</g>
</g>
</svg>
