<?xml version="1.0" encoding="UTF-8" standalone="no"?>
<!DOCTYPE svg PUBLIC "-//W3C//DTD SVG 1.1//EN"
 "http://www.w3.org/Graphics/SVG/1.1/DTD/svg11.dtd">
<!-- Generated by graphviz version 2.38.0 (20140413.2041)
 -->
<!-- Title: Graphical Class Hierarchy Pages: 1 -->
<svg width="502pt" height="104pt"
 viewBox="0.00 0.00 502.00 104.00" xmlns="http://www.w3.org/2000/svg" xmlns:xlink="http://www.w3.org/1999/xlink">
<g id="graph0" class="graph" transform="scale(1 1) rotate(0) translate(4 100)">
<title>Graphical Class Hierarchy</title>
<polygon fill="white" stroke="none" points="-4,4 -4,-100 498,-100 498,4 -4,4"/>
<!-- Node0 -->
<g id="node1" class="node"><title>Node0</title>
<g id="a_node1"><a xlink:href="class_robowars_1_1_robot_1_1_robot_situation.html" target="_top" xlink:title="Represents a Situation a robot can have; Each method is a transition to a different situation,...">
<polygon fill="white" stroke="black" points="0,-38.5 0,-57.5 155,-57.5 155,-38.5 0,-38.5"/>
<text text-anchor="middle" x="77.5" y="-45.5" font-family="Helvetica,sans-Serif" font-size="10.00">Robowars.Robot.RobotSituation</text>
</a>
</g>
</g>
<!-- Node1 -->
<g id="node2" class="node"><title>Node1</title>
<g id="a_node2"><a xlink:href="class_robowars_1_1_robot_1_1_active.html" target="_top" xlink:title=" ">
<polygon fill="white" stroke="black" points="200,-76.5 200,-95.5 317,-95.5 317,-76.5 200,-76.5"/>
<text text-anchor="middle" x="258.5" y="-83.5" font-family="Helvetica,sans-Serif" font-size="10.00">Robowars.Robot.Active</text>
</a>
</g>
</g>
<!-- Node0&#45;&gt;Node1 -->
<g id="edge1" class="edge"><title>Node0&#45;&gt;Node1</title>
<path fill="none" stroke="midnightblue" d="M133.524,-59.681C158.908,-65.0699 188.661,-71.3861 212.656,-76.4799"/>
<polygon fill="midnightblue" stroke="midnightblue" points="134.178,-56.242 123.669,-57.589 132.724,-63.0894 134.178,-56.242"/>
</g>
<!-- Node3 -->
<g id="node4" class="node"><title>Node3</title>
<g id="a_node4"><a xlink:href="class_robowars_1_1_robot_1_1_destroyed.html" target="_top" xlink:title=" ">
<polygon fill="white" stroke="black" points="191,-38.5 191,-57.5 326,-57.5 326,-38.5 191,-38.5"/>
<text text-anchor="middle" x="258.5" y="-45.5" font-family="Helvetica,sans-Serif" font-size="10.00">Robowars.Robot.Destroyed</text>
</a>
</g>
</g>
<!-- Node0&#45;&gt;Node3 -->
<g id="edge3" class="edge"><title>Node0&#45;&gt;Node3</title>
<path fill="none" stroke="midnightblue" d="M165.253,-48C173.853,-48 182.487,-48 190.838,-48"/>
<polygon fill="midnightblue" stroke="midnightblue" points="165.191,-44.5001 155.191,-48 165.191,-51.5001 165.191,-44.5001"/>
</g>
<!-- Node4 -->
<g id="node5" class="node"><title>Node4</title>
<g id="a_node5"><a xlink:href="class_robowars_1_1_robot_1_1_standby.html" target="_top" xlink:title=" ">
<polygon fill="white" stroke="black" points="195,-0.5 195,-19.5 322,-19.5 322,-0.5 195,-0.5"/>
<text text-anchor="middle" x="258.5" y="-7.5" font-family="Helvetica,sans-Serif" font-size="10.00">Robowars.Robot.Standby</text>
</a>
</g>
</g>
<!-- Node0&#45;&gt;Node4 -->
<g id="edge4" class="edge"><title>Node0&#45;&gt;Node4</title>
<path fill="none" stroke="midnightblue" d="M133.524,-36.319C158.908,-30.9301 188.661,-24.6139 212.656,-19.5201"/>
<polygon fill="midnightblue" stroke="midnightblue" points="132.724,-32.9106 123.669,-38.411 134.178,-39.758 132.724,-32.9106"/>
</g>
<!-- Node2 -->
<g id="node3" class="node"><title>Node2</title>
<g id="a_node3"><a xlink:href="class_robowars_1_1_robot_1_1_attacking.html" target="_top" xlink:title=" ">
<polygon fill="white" stroke="black" points="362,-76.5 362,-95.5 494,-95.5 494,-76.5 362,-76.5"/>
<text text-anchor="middle" x="428" y="-83.5" font-family="Helvetica,sans-Serif" font-size="10.00">Robowars.Robot.Attacking</text>
</a>
</g>
</g>
<!-- Node1&#45;&gt;Node2 -->
<g id="edge2" class="edge"><title>Node1&#45;&gt;Node2</title>
<path fill="none" stroke="midnightblue" d="M327.421,-86C338.762,-86 350.504,-86 361.776,-86"/>
<polygon fill="midnightblue" stroke="midnightblue" points="327.144,-82.5001 317.144,-86 327.144,-89.5001 327.144,-82.5001"/>
</g>
</g>
</svg>
